<svg width="42" height="42" viewBox="0 0 42 42" fill="none" xmlns="http://www.w3.org/2000/svg">
<path d="M32.2677 33.1615C31.878 35.207 30.0896 36.687 28.0073 36.687H13.9647C11.8824 36.687 10.094 35.207 9.70433 33.1615L6.53711 16.5335L20.8685 5.93555L35.4355 16.5299L32.2677 33.1615Z" fill="#FFC800"/>
<path opacity="0.5" fill-rule="evenodd" clip-rule="evenodd" d="M17.2666 30.3334C17.2666 29.5602 17.8933 28.9333 18.6665 28.9333H24.2666C25.0398 28.9333 25.6666 29.5602 25.6666 30.3334C25.6666 31.1066 25.0398 31.7334 24.2666 31.7334H18.6665C17.8933 31.7334 17.2666 31.1066 17.2666 30.3334Z" fill="#945151"/>
<path d="M25.566 21.3934C25.566 23.9147 23.522 25.9585 21.0007 25.9585C18.4794 25.9585 16.4355 23.9147 16.4355 21.3934C16.4355 18.8721 18.4794 16.8281 21.0007 16.8281C23.522 16.8281 25.566 18.8721 25.566 21.3934Z" fill="#945151"/>
<path d="M21.2215 3.73362C21.8444 3.73058 22.4747 3.91903 23.0165 4.31238L39.3038 16.0544C40.6591 17.0392 40.9595 18.9361 39.9749 20.2914C38.9904 21.6463 37.0942 21.947 35.7389 20.9632L21.2106 10.4894L6.68369 20.9623L6.68255 20.9632C5.32731 21.9468 3.43114 21.6462 2.44672 20.2912C1.46203 18.9359 1.76247 17.0389 3.11778 16.0543L3.11987 16.0527L19.4042 4.31287C19.9523 3.91499 20.5918 3.72609 21.2215 3.73362Z" fill="#FF4B4B"/>
</svg>
