<svg width="32" height="32" viewBox="0 0 32 32" fill="none" xmlns="http://www.w3.org/2000/svg">
<g clip-path="url(#clip0_259_2923)">
<path d="M16 32C24.8366 32 32 24.8366 32 16C32 7.16344 24.8366 0 16 0C7.16344 0 0 7.16344 0 16C0 24.8366 7.16344 32 16 32Z" fill="#273B7A"/>
<path d="M16.1023 31.9987C24.8916 31.9436 32 24.8024 32 16C32 15.845 31.9972 15.6907 31.9929 15.5367L25.5846 9.12842C25.4974 9.12842 25.1609 12.339 24.898 14.9865L21.8085 11.8969C21.8085 11.7769 18.7079 17.6525 17.39 20.1554L10.9434 13.7087L11.3837 13.2685L10.6409 12.5257L11.3545 11.812L8.82491 9.28248L8.55779 10.4427L7.3976 9.28248L7.10548 10.3691L6.01885 9.28254L5.46191 12.2919L5.7341 12.5641L5.71698 12.9542L7.18941 14.3542L7.10054 22.997L16.1023 31.9987Z" fill="#121149"/>
<path d="M26.6665 11.6672C26.6665 10.5978 25.9126 8.88892 24.9826 8.88892C24.0527 8.88892 23.2988 10.5979 23.2988 11.6672C23.2988 12.5927 23.8638 13.3655 24.6186 13.557V18.0667H25.3467V13.5569C26.1014 13.3655 26.6665 12.5929 26.6665 11.6672Z" fill="white"/>
<path d="M24.34 16.5662H25.6261V22.3538C25.6261 22.709 25.3382 22.9969 24.983 22.9969C24.6278 22.9969 24.3398 22.709 24.3398 22.3538V16.5662H24.34Z" fill="#FF7F4F"/>
<path d="M8.50307 9.08936C8.30201 9.08936 8.13901 9.25236 8.13901 9.45342V12.0459C8.13901 12.3498 7.88538 12.597 7.5737 12.597H7.46413V9.49248C7.46413 9.29142 7.30113 9.12842 7.10007 9.12842C6.89901 9.12842 6.73601 9.29142 6.73601 9.49248V12.597H6.62645C6.31476 12.597 6.06113 12.3498 6.06113 12.0459V9.45354C6.06113 9.25248 5.89813 9.08948 5.69707 9.08948C5.49601 9.08948 5.33301 9.25248 5.33301 9.45354V12.046C5.33301 12.7514 5.9132 13.3254 6.62645 13.3254H6.73601V18.0669C6.73601 18.2679 6.89901 18.4309 7.10007 18.4309C7.30113 18.4309 7.46413 18.2679 7.46413 18.0669V13.3254H7.5737C8.28695 13.3254 8.86713 12.7514 8.86713 12.046V9.45354C8.86713 9.25242 8.70413 9.08936 8.50307 9.08936Z" fill="white"/>
<path d="M6.45703 16.5662H7.74316V22.3538C7.74316 22.709 7.45528 22.9969 7.10003 22.9969C6.74491 22.9969 6.45703 22.709 6.45703 22.3538V16.5662Z" fill="#FF7F4F"/>
<path d="M15.9998 23.1112C19.9272 23.1112 23.1109 19.9274 23.1109 16C23.1109 12.0727 19.9272 8.88892 15.9998 8.88892C12.0724 8.88892 8.88867 12.0727 8.88867 16C8.88867 19.9274 12.0724 23.1112 15.9998 23.1112Z" fill="#FEE187"/>
<path d="M23.1111 16C23.1111 12.0727 19.9274 8.88892 16 8.88892V23.1112C19.9274 23.1112 23.1111 19.9274 23.1111 16Z" fill="#FFC61B"/>
<path d="M16.0003 21.3334C18.9458 21.3334 21.3336 18.9456 21.3336 16.0001C21.3336 13.0546 18.9458 10.6667 16.0003 10.6667C13.0548 10.6667 10.667 13.0546 10.667 16.0001C10.667 18.9456 13.0548 21.3334 16.0003 21.3334Z" fill="#FFEDB5"/>
<path d="M21.3333 16.0001C21.3333 13.0546 18.9455 10.6667 16 10.6667V21.3334C18.9455 21.3334 21.3333 18.9456 21.3333 16.0001Z" fill="#FEE187"/>
</g>
<defs>
<clipPath id="clip0_259_2923">
<rect width="32" height="32" fill="white"/>
</clipPath>
</defs>
</svg>
