<svg width="33" height="32" viewBox="0 0 33 32" fill="none" xmlns="http://www.w3.org/2000/svg">
<path fill-rule="evenodd" clip-rule="evenodd" d="M16.6712 3.47974C10.5241 3.47974 5.54076 8.46301 5.54076 14.6102V15.261C3.47924 16.2855 2.0625 18.4128 2.0625 20.8711C2.0625 24.3288 4.86559 27.1319 8.32336 27.1319H25.019C28.4768 27.1319 31.2799 24.3288 31.2799 20.8711C31.2799 18.4128 29.8632 16.2855 27.8016 15.261V14.6102C27.8016 8.46301 22.8184 3.47974 16.6712 3.47974Z" fill="#9069CD"/>
<path d="M8.32324 14.6101C8.32324 9.99963 12.0607 6.26221 16.6711 6.26221C21.2814 6.26221 25.0189 9.99963 25.0189 14.6101V20.1753C25.0189 24.7856 21.2814 28.5231 16.6711 28.5231C12.0607 28.5231 8.32324 24.7856 8.32324 20.1753V14.6101Z" fill="#F3AD6D"/>
<path d="M5.54102 17.045C5.54102 15.3161 6.94256 13.9146 8.67144 13.9146H24.6714C26.4003 13.9146 27.8019 15.3161 27.8019 17.045C27.8019 18.7738 26.4003 20.1754 24.6714 20.1754H8.67144C6.94256 20.1754 5.54102 18.7738 5.54102 17.045Z" fill="#F3AD6D"/>
<path d="M13.1924 14.2622C13.1924 13.6859 13.6596 13.2188 14.2359 13.2188C14.8121 13.2188 15.2793 13.6859 15.2793 14.2622V17.0448C15.2793 17.6211 14.8121 18.0883 14.2359 18.0883C13.6596 18.0883 13.1924 17.6211 13.1924 17.0448V14.2622Z" fill="#BF8034"/>
<path d="M17.3662 14.2622C17.3662 13.6859 17.8334 13.2188 18.4097 13.2188C18.986 13.2188 19.4532 13.6859 19.4532 14.2622V17.0448C19.4532 17.6211 18.986 18.0883 18.4097 18.0883C17.8334 18.0883 17.3662 17.6211 17.3662 17.0448V14.2622Z" fill="#BF8034"/>
<path d="M12.4971 20.205C12.4971 19.8044 12.8218 19.4797 13.2224 19.4797H19.424C19.8246 19.4797 20.1492 19.8044 20.1492 20.205V20.5232C20.1492 22.6363 18.4363 24.3493 16.3232 24.3493C14.2101 24.3493 12.4971 22.6363 12.4971 20.5232V20.205Z" fill="white"/>
<path d="M5.54102 14.6131V14.6102C5.54102 8.46301 10.5243 3.47974 16.6714 3.47974C18.6452 3.47974 20.499 3.9935 22.1064 4.89459C21.228 10.7827 16.0147 15.3059 9.71491 15.3059C8.2514 15.3059 6.84653 15.0618 5.54102 14.6131Z" fill="#9069CD"/>
</svg>
