<svg width="32" height="32" viewBox="0 0 32 32" fill="none" xmlns="http://www.w3.org/2000/svg">
<path d="M24.369 5.3479H7.62988V25.1305H24.369V5.3479Z" fill="#AA572A"/>
<path fill-rule="evenodd" clip-rule="evenodd" d="M2.30469 4.20649C2.30469 3.57617 2.81567 3.06519 3.446 3.06519H6.48947C7.1198 3.06519 7.63078 3.57617 7.63078 4.20649V13.7174H24.3699V4.20649C24.3699 3.57617 24.8809 3.06519 25.5112 3.06519H28.5547C29.185 3.06519 29.696 3.57617 29.696 4.20649V27.7935C29.696 28.4238 29.185 28.9348 28.5547 28.9348H3.446C2.81567 28.9348 2.30469 28.4238 2.30469 27.7935V4.20649ZM7.63078 25.1304H24.3699V18.2826H7.63078V25.1304Z" fill="#FFC800"/>
<path d="M29.6956 21.2721L21.4582 28.9348H3.94922L8.03889 25.1304H24.3695V18.2826H15.4003L20.3079 13.7174H24.3695V9.93912L29.6956 4.98462V21.2721Z" fill="#FBE56D"/>
<path d="M7.63078 13.6572L2.30469 18.6117V9.7482L7.63078 4.7937V13.6572Z" fill="#FBE56D"/>
<path d="M13.1435 10.502H19.1247C20.0686 10.502 20.8337 11.2931 20.8337 12.2691V19.3379C20.8337 20.3138 20.0686 21.105 19.1247 21.105H13.1435C12.1997 21.105 11.4346 20.3138 11.4346 19.3379V12.2691C11.4346 11.2931 12.1997 10.502 13.1435 10.502Z" fill="#FFC800"/>
<path d="M18.2176 14.4778C18.2176 13.2578 17.2612 12.2688 16.0814 12.2688C14.9016 12.2688 13.9453 13.2578 13.9453 14.4778C13.9453 15.1984 14.2789 15.8384 14.7952 16.2416L14.2538 18.2126C14.2322 18.2911 14.2213 18.3724 14.2213 18.454C14.2213 18.942 14.6038 19.3376 15.0758 19.3376H17.0861C17.1651 19.3376 17.2436 19.3263 17.3196 19.304C17.7735 19.1707 18.037 18.682 17.9081 18.2126L17.3668 16.2422C17.8836 15.8391 18.2176 15.1988 18.2176 14.4778Z" fill="#CD7900"/>
</svg>
