<svg width="74" height="78" viewBox="0 0 74 78" fill="none" xmlns="http://www.w3.org/2000/svg">
<path d="M64.9521 72.6441L72.4304 63.8853C72.8546 63.3884 73.0641 62.7434 73.0127 62.0921C72.9614 61.4409 72.6534 60.8367 72.1566 60.4124L63.3978 52.9341C63.0339 52.6234 62.5614 52.4699 62.0844 52.5075C61.6073 52.5451 61.1647 52.7707 60.854 53.1346C60.5433 53.4986 60.3898 53.971 60.4274 54.4481C60.465 54.9251 60.6906 55.3677 61.0545 55.6784L67.0043 60.787C43.952 62.3732 35.3087 51.9954 32.2027 45.6188C31.979 45.1595 31.771 44.6933 31.5787 44.2204C33.4891 44.5818 35.4223 44.8107 37.3643 44.9056C43.8083 45.2095 49.02 43.8725 52.039 41.1388C56.6285 36.9835 58.4375 31.7963 57.1338 26.5352C56.4491 23.8497 55.0413 21.4032 53.0635 19.4618C51.1058 17.497 48.6578 16.0918 45.9738 15.3924C40.7287 14.0535 35.4087 15.8029 31.3775 20.1929C27.5122 24.4015 25.7454 30.7344 26.2553 37.1984C26.3072 37.856 26.3828 38.514 26.4822 39.1723C24.3233 38.4441 22.2274 37.5411 20.2153 36.4723C13.3129 32.7945 2.10092 24.1007 4.55467 7.19629C4.61695 6.72659 4.49161 6.25126 4.20581 5.87335C3.92002 5.49543 3.49679 5.24538 3.02788 5.17739C2.55896 5.1094 2.08214 5.22895 1.70078 5.51012C1.31941 5.7913 1.06423 6.21145 0.990537 6.6795C0.611273 9.21478 0.516388 11.7845 0.707662 14.3408C1.04268 18.8412 2.43246 23.1995 4.76455 27.063C7.81513 32.128 12.5719 36.4808 18.5209 39.6508C21.3488 41.1509 24.3261 42.3507 27.4039 43.2307C27.8205 44.5912 28.3424 45.9171 28.9649 47.1966C31.7133 52.8381 36.3335 57.3883 42.3265 60.3546C49.0862 63.7006 57.4732 65.0534 67.2635 64.3805L62.208 70.3015C62.0541 70.4817 61.9373 70.6904 61.8641 70.9158C61.7909 71.1411 61.7628 71.3787 61.7815 71.6149C61.8001 71.8512 61.8651 72.0814 61.9727 72.2925C62.0803 72.5036 62.2284 72.6914 62.4086 72.8453C62.5888 72.9991 62.7976 73.116 63.023 73.1892C63.2483 73.2623 63.4859 73.2904 63.7221 73.2718C63.9583 73.2531 64.1885 73.1882 64.3996 73.0805C64.6107 72.9729 64.7986 72.8248 64.9524 72.6446L64.9521 72.6441ZM37.5338 41.3082C35.1167 41.187 32.7158 40.844 30.3615 40.2835C28.9276 33.71 30.2345 26.7614 34.0301 22.6283C37.1811 19.1969 41.1059 17.8663 45.0829 18.8814C49.1978 19.9319 52.6357 23.3558 53.6381 27.401C53.7715 27.9373 53.8606 28.4836 53.9044 29.0344C54.1695 32.3955 52.686 35.6943 49.6218 38.4686C47.3469 40.5286 42.941 41.5634 37.5341 41.3081L37.5338 41.3082Z" fill="#323232"/>
</svg>
