<svg width="24" height="24" viewBox="0 0 24 24" fill="none" xmlns="http://www.w3.org/2000/svg">
<g clip-path="url(#clip0_2188_3388)">
<path d="M16.281 12.9676C16.4218 13.1084 16.5009 13.2994 16.5009 13.4986C16.5009 13.6977 16.4218 13.8887 16.281 14.0296C16.1402 14.1704 15.9492 14.2495 15.75 14.2495C15.5508 14.2495 15.3598 14.1704 15.219 14.0296L12.75 11.5591V15.7486C12.75 15.9475 12.671 16.1382 12.5303 16.2789C12.3897 16.4195 12.1989 16.4986 12 16.4986C11.8011 16.4986 11.6103 16.4195 11.4697 16.2789C11.329 16.1382 11.25 15.9475 11.25 15.7486V11.5591L8.781 14.0296C8.64017 14.1704 8.44916 14.2495 8.25 14.2495C8.05084 14.2495 7.85983 14.1704 7.719 14.0296C7.57817 13.8887 7.49905 13.6977 7.49905 13.4986C7.49905 13.2994 7.57817 13.1084 7.719 12.9676L11.469 9.21756C11.5393 9.14799 11.6223 9.0925 11.7135 9.05406C11.8971 8.97904 12.1029 8.97904 12.2865 9.05406C12.3777 9.0925 12.4607 9.14799 12.531 9.21756L16.281 12.9676ZM24 14.9986C24 16.192 23.5259 17.3366 22.682 18.1805C21.8381 19.0245 20.6935 19.4986 19.5 19.4986H3.75C2.75544 19.4986 1.80161 19.1035 1.09835 18.4002C0.395088 17.697 0 16.7431 0 15.7486C0 14.754 0.395088 13.8002 1.09835 13.0969C1.80161 12.3937 2.75544 11.9986 3.75 11.9986C4.00201 11.9989 4.25332 12.025 4.5 12.0766V11.9986C4.49395 10.1405 5.17949 8.34664 6.42319 6.96618C7.66688 5.58571 9.37974 4.7174 11.2284 4.53025C13.077 4.34311 14.9291 4.85051 16.4243 5.95372C17.9194 7.05692 18.9505 8.67698 19.317 10.4986C19.9232 10.4739 20.5281 10.572 21.0953 10.7871C21.6626 11.0022 22.1805 11.3297 22.618 11.7501C23.0554 12.1704 23.4033 12.6749 23.6408 13.2331C23.8783 13.7914 24.0005 14.3919 24 14.9986ZM22.5 14.9986C22.5037 14.5481 22.405 14.1026 22.2115 13.6958C22.018 13.289 21.7346 12.9314 21.3827 12.65C21.0309 12.3687 20.6197 12.1709 20.1803 12.0715C19.7409 11.9722 19.2847 11.9739 18.846 12.0766C18.7423 12.0996 18.635 12.1003 18.531 12.0787C18.427 12.0571 18.3288 12.0137 18.2429 11.9513C18.1569 11.8889 18.0852 11.8089 18.0325 11.7168C17.9798 11.6246 17.9472 11.5223 17.937 11.4166C17.791 9.88491 17.0605 8.46839 15.8972 7.46137C14.734 6.45435 13.2274 5.93426 11.6907 6.00919C10.1539 6.08412 8.7051 6.74829 7.64531 7.8637C6.58553 8.97911 5.99628 10.46 6 11.9986V13.1641C6.00004 13.296 5.96526 13.4257 5.89917 13.5399C5.83308 13.6541 5.73802 13.7489 5.62359 13.8146C5.50916 13.8804 5.37942 13.9147 5.24745 13.9143C5.11549 13.9138 4.98598 13.8786 4.872 13.8121C4.53287 13.6089 4.14534 13.5006 3.75 13.4986C3.15326 13.4986 2.58097 13.7356 2.15901 14.1576C1.73705 14.5795 1.5 15.1518 1.5 15.7486C1.5 16.3453 1.73705 16.9176 2.15901 17.3396C2.58097 17.7615 3.15326 17.9986 3.75 17.9986H19.5C20.2956 17.9986 21.0587 17.6825 21.6213 17.1199C22.1839 16.5573 22.5 15.7942 22.5 14.9986Z" fill="black"/>
</g>
<defs>
<clipPath id="clip0_2188_3388">
<rect width="24" height="24" fill="white"/>
</clipPath>
</defs>
</svg>
