<svg width="19" height="17" viewBox="0 0 19 17" fill="none" xmlns="http://www.w3.org/2000/svg">
<path d="M17.9394 0.346166C18.1152 0.54768 18.2039 0.810735 18.1859 1.07756C18.1679 1.34439 18.0448 1.59318 17.8435 1.76928L1.69464 15.8995C1.5956 15.9911 1.47919 16.062 1.35231 16.1078C1.22542 16.1537 1.09063 16.1736 0.955902 16.1665C0.821176 16.1593 0.689247 16.1253 0.567917 16.0663C0.446586 16.0073 0.338316 15.9245 0.249506 15.823C0.160697 15.7214 0.0931517 15.6031 0.0508629 15.4749C0.00857414 15.3468 -0.00759963 15.2115 0.00329796 15.0771C0.0141956 14.9426 0.0519433 14.8117 0.114309 14.692C0.176676 14.5724 0.262394 14.4665 0.366399 14.3805L16.5153 0.250282C16.7168 0.0744635 16.9798 -0.0141918 17.2466 0.00378592C17.5135 0.0217637 17.7633 0.144904 17.9394 0.346166ZM17.9394 6.78048C18.1152 6.98199 18.2039 7.24504 18.1859 7.51187C18.1679 7.7787 18.0448 8.02748 17.8435 8.20359L9.04843 15.9005C8.94862 15.9878 8.8326 16.0546 8.70699 16.097C8.58138 16.1395 8.44865 16.1568 8.31636 16.1479C8.18407 16.139 8.05482 16.1042 7.93599 16.0454C7.81716 15.9866 7.71108 15.905 7.6238 15.8052C7.53652 15.7054 7.46975 15.5893 7.42731 15.4637C7.38486 15.3381 7.36758 15.2054 7.37643 15.0731C7.38529 14.9408 7.42012 14.8116 7.47892 14.6927C7.53773 14.5739 7.61937 14.4678 7.71917 14.3805L16.5142 6.68459C16.6141 6.59722 16.7301 6.5304 16.8558 6.48793C16.9815 6.44546 17.1143 6.42818 17.2467 6.43709C17.3791 6.44599 17.5084 6.48091 17.6272 6.53983C17.7461 6.59875 17.8522 6.68052 17.9394 6.78048ZM16.5142 12.6142C16.7071 12.443 16.9583 12.3521 17.2161 12.3602C17.4739 12.3683 17.7188 12.4749 17.9005 12.6579C18.0823 12.8409 18.187 13.0866 18.1933 13.3444C18.1996 13.6023 18.1069 13.8528 17.9343 14.0444L17.8435 14.1343L15.8249 15.9005C15.6317 16.0699 15.3812 16.1592 15.1245 16.1502C14.8678 16.1413 14.6241 16.0348 14.4432 15.8524C14.2622 15.6701 14.1576 15.4256 14.1507 15.1688C14.1437 14.912 14.235 14.6622 14.4058 14.4704L14.4966 14.3805L16.5142 12.6142ZM10.5866 0.346166C10.7625 0.547552 10.8514 0.810529 10.8336 1.07735C10.8158 1.34418 10.6928 1.59303 10.4917 1.76928L1.69666 9.46623C1.59685 9.55351 1.48084 9.62028 1.35523 9.66272C1.22962 9.70516 1.09688 9.72245 0.964591 9.71359C0.832301 9.70474 0.703052 9.66991 0.584222 9.6111C0.465392 9.55229 0.359308 9.47066 0.272029 9.37085C0.184749 9.27105 0.117981 9.15503 0.075539 9.02942C0.0330967 8.90381 0.0158104 8.77107 0.0246672 8.63878C0.033524 8.50649 0.0683505 8.37724 0.127158 8.25841C0.185966 8.13958 0.267602 8.0335 0.367408 7.94622L9.16248 0.250282C9.36399 0.0744635 9.62705 -0.0141918 9.89388 0.00378592C10.1607 0.0217637 10.4095 0.144904 10.5856 0.346166H10.5866ZM2.81699 0.250282C3.01017 0.0809593 3.26065 -0.00832936 3.51738 0.000612161C3.77412 0.00955368 4.01778 0.116052 4.19871 0.298405C4.37965 0.480758 4.48425 0.725242 4.49119 0.982035C4.49813 1.23883 4.40689 1.4886 4.23607 1.68046L4.14624 1.77029L1.69666 3.91506C1.50441 4.09081 1.25166 4.18542 0.991266 4.17913C0.73087 4.17283 0.48299 4.06611 0.299461 3.88127C0.115932 3.69644 0.0109651 3.44781 0.00651094 3.18738C0.00205681 2.92694 0.0984599 2.67487 0.275561 2.48387L0.366399 2.39404L2.81699 0.250282Z" fill="black"/>
</svg>
