<svg width="20" height="18" viewBox="0 0 20 18" fill="none" xmlns="http://www.w3.org/2000/svg">
<path d="M1 17.5C0.7235 17.5 0.5 17.276 0.5 17V1C0.5 0.724 0.7235 0.5 1 0.5C1.2765 0.5 1.5 0.724 1.5 1V17C1.5 17.276 1.2765 17.5 1 17.5ZM7.5 17V1C7.5 0.724 7.2765 0.5 7 0.5C6.7235 0.5 6.5 0.724 6.5 1V17C6.5 17.276 6.7235 17.5 7 17.5C7.2765 17.5 7.5 17.276 7.5 17ZM11.5 17V1C11.5 0.724 11.2765 0.5 11 0.5C10.7235 0.5 10.5 0.724 10.5 1V17C10.5 17.276 10.7235 17.5 11 17.5C11.2765 17.5 11.5 17.276 11.5 17ZM9.5 17V1C9.5 0.724 9.2765 0.5 9 0.5C8.7235 0.5 8.5 0.724 8.5 1V17C8.5 17.276 8.7235 17.5 9 17.5C9.2765 17.5 9.5 17.276 9.5 17ZM17.5 17V1C17.5 0.724 17.2765 0.5 17 0.5C16.7235 0.5 16.5 0.724 16.5 1V17C16.5 17.276 16.7235 17.5 17 17.5C17.2765 17.5 17.5 17.276 17.5 17ZM19.5 17V1C19.5 0.724 19.2765 0.5 19 0.5C18.7235 0.5 18.5 0.724 18.5 1V17C18.5 17.276 18.7235 17.5 19 17.5C19.2765 17.5 19.5 17.276 19.5 17ZM5.5 17V1C5.5 0.724 5.2765 0.5 5 0.5H3C2.7235 0.5 2.5 0.724 2.5 1V17C2.5 17.276 2.7235 17.5 3 17.5H5C5.2765 17.5 5.5 17.276 5.5 17ZM3.5 1.5H4.5V16.5H3.5V1.5ZM15.5 17V1C15.5 0.724 15.2765 0.5 15 0.5H13C12.7235 0.5 12.5 0.724 12.5 1V17C12.5 17.276 12.7235 17.5 13 17.5H15C15.2765 17.5 15.5 17.276 15.5 17ZM13.5 1.5H14.5V16.5H13.5V1.5Z" fill="black"/>
</svg>
