<svg width="10" height="11" viewBox="0 0 10 11" fill="none" xmlns="http://www.w3.org/2000/svg">
<path d="M4.88017 1.17399C5.31034 1.59283 5.6454 2.09929 5.86263 2.65901C6.07985 3.21873 6.17418 3.81862 6.13918 4.418C6.13697 4.6016 6.20061 4.77991 6.31857 4.92062C6.43653 5.06133 6.601 5.15512 6.78217 5.18499C6.82212 5.19635 6.86368 5.20108 6.90517 5.19899C7.10658 5.20033 7.30032 5.12187 7.44405 4.98077C7.58777 4.83966 7.66979 4.6474 7.67216 4.446V4.33599C7.67216 4.28099 7.67217 4.15799 7.68617 4.02099C7.68572 3.99381 7.69336 3.96711 7.70813 3.94428C7.7229 3.92146 7.74414 3.90354 7.76912 3.89282C7.7941 3.8821 7.82171 3.87905 7.84843 3.88407C7.87515 3.88908 7.89978 3.90194 7.91917 3.92099C8.64424 4.69892 9.05413 5.71867 9.06917 6.78199C9.05362 7.25502 8.9439 7.72019 8.74644 8.15031C8.54899 8.58043 8.26775 8.96686 7.91917 9.28699C7.2137 9.98238 6.26762 10.3795 5.27718 10.396C4.28808 10.3732 3.34422 9.97698 2.63516 9.28699C2.28659 8.96686 2.00535 8.58043 1.80789 8.15031C1.61043 7.72019 1.50072 7.25502 1.48517 6.78199C1.58978 5.53418 2.16757 4.3736 3.10017 3.53799C3.78567 2.88387 4.27118 2.04843 4.50017 1.12899C4.50282 1.1049 4.5121 1.08202 4.52698 1.06289C4.54186 1.04376 4.56175 1.02913 4.58444 1.02063C4.60714 1.01214 4.63175 1.0101 4.65553 1.01476C4.67932 1.01941 4.70134 1.03057 4.71916 1.04699L4.88017 1.17399ZM4.04517 0.0249937C3.99904 0.0237914 3.95339 0.0344742 3.91258 0.0560148C3.87178 0.0775555 3.83719 0.109231 3.81216 0.147995C3.75716 0.247995 3.83917 0.447992 3.93517 0.708992C4.12717 1.29799 3.53517 2.24199 2.70317 3.18699C1.678 4.12291 1.05092 5.41645 0.951172 6.80099C0.996194 7.92174 1.47308 8.98161 2.28197 9.75866C3.09086 10.5357 4.16901 10.9697 5.29066 10.9697C6.41232 10.9697 7.49049 10.5357 8.29938 9.75866C9.10827 8.98161 9.58515 7.92174 9.63017 6.80099C9.6206 6.09916 9.45901 5.40774 9.15656 4.77435C8.8541 4.14095 8.41797 3.58064 7.87817 3.13199L7.74117 3.022C7.68034 2.96932 7.60263 2.94022 7.52217 2.93999C7.45899 2.9397 7.39706 2.95766 7.34384 2.99173C7.29062 3.02579 7.24837 3.07449 7.22217 3.13199C7.1721 3.53614 7.14473 3.94278 7.14017 4.34999V4.44999C7.14057 4.47886 7.13519 4.50753 7.12433 4.53428C7.11347 4.56103 7.09734 4.58533 7.07692 4.60575C7.0565 4.62617 7.0322 4.64228 7.00545 4.65314C6.97869 4.66401 6.95004 4.6694 6.92117 4.66899H6.88017C6.8259 4.6589 6.77691 4.63001 6.74181 4.58741C6.7067 4.5448 6.68771 4.4912 6.68817 4.43599C6.7264 3.75917 6.61778 3.0821 6.36974 2.45121C6.1217 1.82032 5.74012 1.25055 5.25117 0.780994C4.93355 0.417891 4.51627 0.156055 4.05116 0.0279921L4.04517 0.0249937Z" fill="black"/>
</svg>
