<svg width="19" height="19" viewBox="0 0 19 19" fill="none" xmlns="http://www.w3.org/2000/svg">
<path d="M13.5711 11.7622C13.5711 12.2975 13.3147 15.8667 13.1187 19.0001H0.45237C0.332394 19.0001 0.217332 18.9524 0.132496 18.8676C0.0476603 18.7827 0 18.6677 0 18.5477C0 18.0953 0.75395 17.9174 0.75395 17.4922C0.75395 15.1429 -1.10529 13.7918 1.05553 4.22266H12.5156C12.5156 4.22266 13.5711 8.89714 13.5711 11.7622Z" fill="#D1A788"/>
<path d="M11.3091 9.80048C11.3098 10.9746 10.8539 12.1029 10.0379 12.9471C9.22189 13.7912 8.10964 14.285 6.93621 14.3242H6.63463C5.74695 14.2946 4.88762 14.0043 4.1638 13.4896C3.43998 12.9749 2.8837 12.2585 2.56432 11.4297C2.24493 10.6009 2.17658 9.69648 2.36779 8.82914C2.559 7.96179 3.0013 7.16991 3.63954 6.55226C4.27779 5.9346 5.08373 5.51849 5.95688 5.35582C6.83003 5.19315 7.73175 5.29111 8.5496 5.63748C9.36745 5.98386 10.0652 6.56333 10.556 7.30363C11.0467 8.04393 11.3086 8.91231 11.3091 9.80048Z" fill="#F3F4F5"/>
<path d="M7.5411 7.68954C7.53908 7.88798 7.50022 8.08432 7.4265 8.26857L7.39182 8.2927C7.25881 8.39274 7.14316 8.51399 7.04953 8.65158C6.88749 8.88855 6.79647 9.16686 6.78715 9.45378C6.77972 9.22019 6.71809 8.99153 6.60714 8.78584C6.49618 8.58015 6.33893 8.40307 6.1478 8.26857C6.07449 8.0842 6.03564 7.88794 6.0332 7.68954C6.0332 7.12709 6.41018 6.5179 6.78715 6.18164C6.78715 6.18164 7.5411 6.85718 7.5411 7.68954Z" fill="#FAC270"/>
<path d="M7.5387 7.68945C7.53607 7.88734 7.49723 8.08308 7.4241 8.26698C7.23406 8.40175 7.07766 8.57851 6.96704 8.78354C6.85641 8.98857 6.79455 9.21635 6.78626 9.44917C6.77605 9.16404 6.68563 8.88756 6.52539 8.65149C6.73353 8.21723 7.09423 7.87478 7.5387 7.68945Z" fill="#F6B756"/>
<path d="M8.89622 7.99205C8.89622 8.22614 8.84171 8.45702 8.73702 8.6664C8.63233 8.87578 8.48033 9.05791 8.29306 9.19837C8.27798 9.19837 8.31567 9.17575 6.78516 10.7063V9.49995C6.78516 9.26586 6.83966 9.03498 6.94435 8.8256C7.04904 8.61622 7.20104 8.43409 7.38832 8.29363C7.87235 7.93174 8.28702 7.99205 8.89622 7.99205Z" fill="#FAC270"/>
<path d="M6.78715 9.4537C6.77972 9.22011 6.71809 8.99144 6.60714 8.78575C6.49618 8.58007 6.33893 8.40298 6.1478 8.26849C6.07449 8.08412 6.03564 7.88785 6.0332 7.68945C6.32745 7.80904 6.58677 8.00094 6.78715 8.24738C6.89125 8.37052 6.9794 8.50629 7.04953 8.65149C6.88749 8.88847 6.79647 9.16677 6.78715 9.4537Z" fill="#F6B756"/>
<path d="M6.78293 9.45581V10.7059L5.27503 9.19796C5.08836 9.05694 4.9368 8.87469 4.83217 8.66544C4.72755 8.45619 4.67269 8.22559 4.67188 7.99164C5.28408 7.99164 5.69875 7.93434 6.17977 8.29322C6.3602 8.42916 6.50798 8.60368 6.61233 8.80403C6.71668 9.00439 6.77497 9.22552 6.78293 9.45128C6.78293 9.45128 6.78595 9.45279 6.78293 9.45581Z" fill="#FAC270"/>
<path d="M8.69415 8.74609C8.59263 8.92261 8.45615 9.07655 8.29305 9.19846C8.27797 9.19846 8.30662 9.18489 6.78515 10.7064L6.375 10.2962C6.46892 9.85729 6.71062 9.46389 7.05972 9.18175C7.40883 8.89961 7.84419 8.74583 8.29305 8.74609H8.69415Z" fill="#F6B756"/>
<path d="M7.1961 10.2962L6.78595 10.7064C5.23583 9.15624 5.29313 9.19846 5.27805 9.19846C5.11496 9.07655 4.97847 8.92261 4.87695 8.74609H5.27805C5.72692 8.74583 6.16227 8.89961 6.51138 9.18175C6.86048 9.46389 7.10219 9.85729 7.1961 10.2962Z" fill="#F6B756"/>
<path d="M8.89595 9.19867C8.89595 9.43276 8.84144 9.66364 8.73675 9.87302C8.63206 10.0824 8.48006 10.2645 8.29279 10.405C8.27771 10.405 8.3154 10.3824 6.78489 11.9129V10.7066C6.78489 10.3066 6.94375 9.92311 7.22654 9.64032C7.50933 9.35754 7.89287 9.19867 8.29279 9.19867H8.89595ZM6.78489 10.7066V11.9129C5.23477 10.3628 5.29207 10.405 5.27699 10.405C5.08971 10.2645 4.93771 10.0824 4.83302 9.87302C4.72833 9.66364 4.67383 9.43276 4.67383 9.19867C5.29207 9.19867 5.70523 9.14137 6.18173 9.50025C6.24808 9.50025 6.78489 9.99936 6.78489 10.7066Z" fill="#FAC270"/>
<path d="M8.69415 9.95117C8.59263 10.1277 8.45615 10.2816 8.29305 10.4035C8.27797 10.4035 8.30662 10.39 6.78515 11.9114L6.375 11.5013C6.46892 11.0624 6.71062 10.669 7.05972 10.3868C7.40883 10.1047 7.84419 9.95091 8.29305 9.95117H8.69415Z" fill="#F6B756"/>
<path d="M7.1961 11.5013L6.78595 11.9114C5.23583 10.3613 5.29313 10.4035 5.27805 10.4035C5.11496 10.2816 4.97847 10.1277 4.87695 9.95117H5.27805C5.72692 9.95091 6.16227 10.1047 6.51138 10.3868C6.86048 10.669 7.10219 11.0624 7.1961 11.5013Z" fill="#F6B756"/>
<path d="M8.89622 10.4043C8.89622 10.6384 8.84171 10.8693 8.73702 11.0786C8.63233 11.288 8.48033 11.4702 8.29306 11.6106C8.27798 11.6106 8.31567 11.588 6.78516 13.1185V11.9122C6.78516 11.5123 6.94402 11.1287 7.22681 10.846C7.5096 10.5632 7.89314 10.4043 8.29306 10.4043H8.89622Z" fill="#FAC270"/>
<path d="M13.404 14.625L13.131 18.8049C12.1238 18.6625 11.2018 18.1612 10.5347 17.3932C9.86758 16.6253 9.50015 15.6423 9.5 14.625H13.404Z" fill="#CBA07A"/>
<path d="M13.1187 19H0.452361C0.365368 18.9993 0.280439 18.9735 0.207748 18.9257C0.135058 18.8779 0.0776907 18.8101 0.042521 18.7306C0.00735138 18.651 -0.00412887 18.563 0.00945604 18.477C0.0230409 18.3911 0.0611147 18.3109 0.119115 18.2461C0.161103 18.293 0.212433 18.3307 0.269818 18.3567C0.327202 18.3826 0.389377 18.3963 0.452361 18.3969H13.1187V19Z" fill="#CBA07A"/>
<path d="M14.6255 18.3968H13.7207C12.6009 18.3968 11.527 17.952 10.7352 17.1602C9.94343 16.3684 9.4986 15.2944 9.4986 14.1747C9.4986 14.1596 9.25734 14.1747 18.8476 14.1747C18.8476 15.2944 18.4027 16.3684 17.6109 17.1602C16.8191 17.952 15.7452 18.3968 14.6255 18.3968Z" fill="#FAC270"/>
<path d="M18.7043 15.2773C18.4618 16.1727 17.9312 16.9632 17.1945 17.5268C16.4578 18.0905 15.556 18.3958 14.6284 18.3957H13.7237C12.7969 18.3948 11.8961 18.089 11.1603 17.5255C10.4245 16.9619 9.89464 16.1719 9.65234 15.2773C9.96389 16.0631 10.5041 16.7373 11.2031 17.2126C11.9021 17.6879 12.7276 17.9424 13.5729 17.9433H14.7792C15.6252 17.9433 16.4518 17.6892 17.1516 17.2138C17.8515 16.7385 18.3924 16.0638 18.7043 15.2773Z" fill="#F6B756"/>
<path d="M16.1354 18.1172V18.9993H12.2148V18.1172" fill="#FAC270"/>
<path d="M18.3967 14.1743H9.95245C9.95245 14.1743 11.8373 12.0632 14.1746 12.0632C16.5118 12.0632 18.3967 14.1743 18.3967 14.1743ZM12.2143 3.0158H1.35742C1.35742 3.0158 3.78816 0 6.78586 0C9.78356 0 12.2143 3.0158 12.2143 3.0158Z" fill="#DCDCDC"/>
<path d="M18.3967 14.1733H9.95245C10.1002 14.0144 10.2563 13.8634 10.4199 13.721H17.9292C18.0929 13.8634 18.2489 14.0144 18.3967 14.1733ZM12.2143 3.01487H1.35742C1.35742 3.01487 1.50821 2.83392 1.76606 2.5625H11.8057C12.0695 2.83392 12.2143 3.01487 12.2143 3.01487Z" fill="#E2E2E2"/>
<path d="M3.76802 1.80824C3.76802 1.84823 3.75213 1.88658 3.72386 1.91486C3.69558 1.94314 3.65722 1.95903 3.61723 1.95903C3.57724 1.95903 3.53888 1.94314 3.51061 1.91486C3.48233 1.88658 3.46644 1.84823 3.46644 1.80824C3.46644 1.76825 3.48233 1.72989 3.51061 1.70161C3.53888 1.67333 3.57724 1.65745 3.61723 1.65745C3.65722 1.65745 3.69558 1.67333 3.72386 1.70161C3.75213 1.72989 3.76802 1.76825 3.76802 1.80824ZM4.0696 2.4114C4.0696 2.45139 4.05371 2.48974 4.02544 2.51802C3.99716 2.5463 3.9588 2.56219 3.91881 2.56219C3.87882 2.56219 3.84046 2.5463 3.81219 2.51802C3.78391 2.48974 3.76802 2.45139 3.76802 2.4114C3.76802 2.37141 3.78391 2.33305 3.81219 2.30477C3.84046 2.27649 3.87882 2.26061 3.91881 2.26061C3.9588 2.26061 3.99716 2.27649 4.02544 2.30477C4.05371 2.33305 4.0696 2.37141 4.0696 2.4114ZM3.16486 2.26061C3.16486 2.3006 3.14897 2.33895 3.1207 2.36723C3.09242 2.39551 3.05406 2.4114 3.01407 2.4114C2.97408 2.4114 2.93573 2.39551 2.90745 2.36723C2.87917 2.33895 2.86328 2.3006 2.86328 2.26061C2.86328 2.22062 2.87917 2.18226 2.90745 2.15398C2.93573 2.1257 2.97408 2.10982 3.01407 2.10982C3.05406 2.10982 3.09242 2.1257 3.1207 2.15398C3.14897 2.18226 3.16486 2.22062 3.16486 2.26061ZM4.82355 1.35587C4.82355 1.39586 4.80766 1.43421 4.77939 1.46249C4.75111 1.49077 4.71275 1.50666 4.67276 1.50666C4.63277 1.50666 4.59441 1.49077 4.56614 1.46249C4.53786 1.43421 4.52197 1.39586 4.52197 1.35587C4.52197 1.31588 4.53786 1.27752 4.56614 1.24924C4.59441 1.22096 4.63277 1.20508 4.67276 1.20508C4.71275 1.20508 4.75111 1.22096 4.77939 1.24924C4.80766 1.27752 4.82355 1.31588 4.82355 1.35587ZM4.52197 1.95903C4.52197 1.99902 4.50608 2.03737 4.47781 2.06565C4.44953 2.09393 4.41117 2.10982 4.37118 2.10982C4.33119 2.10982 4.29283 2.09393 4.26456 2.06565C4.23628 2.03737 4.22039 1.99902 4.22039 1.95903C4.22039 1.91904 4.23628 1.88068 4.26456 1.8524C4.29283 1.82412 4.33119 1.80824 4.37118 1.80824C4.41117 1.80824 4.44953 1.82412 4.47781 1.8524C4.50608 1.88068 4.52197 1.91904 4.52197 1.95903ZM5.12513 2.26061C5.12513 2.3006 5.10924 2.33895 5.08097 2.36723C5.05269 2.39551 5.01433 2.4114 4.97434 2.4114C4.93435 2.4114 4.89599 2.39551 4.86772 2.36723C4.83944 2.33895 4.82355 2.3006 4.82355 2.26061C4.82355 2.22062 4.83944 2.18226 4.86772 2.15398C4.89599 2.1257 4.93435 2.10982 4.97434 2.10982C5.01433 2.10982 5.05269 2.1257 5.08097 2.15398C5.10924 2.18226 5.12513 2.22062 5.12513 2.26061Z" fill="#BDC3CD"/>
<path d="M12.6656 4.22194H0.903941C0.743973 4.22194 0.590557 4.1584 0.477443 4.04528C0.364328 3.93217 0.300781 3.77875 0.300781 3.61878C0.300781 3.45882 0.364328 3.3054 0.477443 3.19229C0.590557 3.07917 0.743973 3.01562 0.903941 3.01562H12.6656C12.8255 3.01562 12.9789 3.07917 13.0921 3.19229C13.2052 3.3054 13.2687 3.45882 13.2687 3.61878C13.2687 3.77875 13.2052 3.93217 13.0921 4.04528C12.9789 4.1584 12.8255 4.22194 12.6656 4.22194Z" fill="#D1A788"/>
<path d="M12.6663 4.22192H0.904673C0.80601 4.22172 0.708902 4.19732 0.621863 4.15086C0.534824 4.1044 0.460511 4.0373 0.405439 3.95543C0.350368 3.87357 0.316219 3.77945 0.305987 3.68132C0.295755 3.58318 0.309752 3.48404 0.346751 3.39258C0.391728 3.50376 0.468832 3.59902 0.568212 3.66617C0.667592 3.73331 0.784735 3.76931 0.904673 3.76955H12.6663C12.7862 3.76931 12.9034 3.73331 13.0027 3.66617C13.1021 3.59902 13.1792 3.50376 13.2242 3.39258C13.2612 3.48404 13.2752 3.58318 13.265 3.68132C13.2547 3.77945 13.2206 3.87357 13.1655 3.95543C13.1104 4.0373 13.0361 4.1044 12.9491 4.15086C12.8621 4.19732 12.7649 4.22172 12.6663 4.22192Z" fill="#CBA07A"/>
<path d="M6.78489 11.9116V13.118C5.23477 11.5678 5.29207 11.6101 5.27699 11.6101C5.08971 11.4696 4.93771 11.2875 4.83302 11.0781C4.72833 10.8687 4.67383 10.6378 4.67383 10.4037C5.29207 10.4037 5.70523 10.3464 6.18173 10.7053C6.24808 10.7053 6.78489 11.2044 6.78489 11.9116Z" fill="#FAC270"/>
<path d="M8.69415 11.1582C8.59263 11.3347 8.45615 11.4887 8.29305 11.6106C8.27797 11.6106 8.30662 11.597 6.78515 13.1185L6.375 12.7083C6.46892 12.2694 6.71062 11.876 7.05972 11.5939C7.40883 11.3117 7.84419 11.1579 8.29305 11.1582H8.69415Z" fill="#F6B756"/>
<path d="M6.78516 13.1173H7.38832C7.78824 13.1173 8.17178 12.9584 8.45456 12.6756C8.73735 12.3928 8.89622 12.0093 8.89622 11.6094H8.29306C7.89314 11.6094 7.5096 11.7682 7.22681 12.051C6.94402 12.3338 6.78516 12.7174 6.78516 13.1173Z" fill="#FAC270"/>
<path d="M7.1961 12.7083L6.78595 13.1185C5.23583 11.5684 5.29313 11.6106 5.27805 11.6106C5.11496 11.4887 4.97847 11.3347 4.87695 11.1582H5.27805C5.72692 11.1579 6.16227 11.3117 6.51138 11.5939C6.86048 11.876 7.10219 12.2694 7.1961 12.7083Z" fill="#F6B756"/>
<path d="M6.78489 13.1173H6.18173C5.78181 13.1173 5.39827 12.9584 5.11548 12.6756C4.8327 12.3928 4.67383 12.0093 4.67383 11.6094H5.27699C5.67691 11.6094 6.06045 11.7682 6.34323 12.051C6.62602 12.3338 6.78489 12.7174 6.78489 13.1173Z" fill="#FAC270"/>
<path d="M8.89595 11.6094C8.89595 12.0093 8.73708 12.3928 8.45429 12.6756C8.17151 12.9584 7.78797 13.1173 7.38805 13.1173H6.78489C6.78659 12.9635 6.81202 12.8109 6.86028 12.6649H7.38805C7.70791 12.6636 8.01908 12.5607 8.27659 12.371C8.5341 12.1812 8.7246 11.9145 8.82055 11.6094H8.89595ZM6.78489 13.1173H6.18173C5.78181 13.1173 5.39827 12.9584 5.11548 12.6756C4.8327 12.3928 4.67383 12.0093 4.67383 11.6094H4.74922C4.84549 11.9155 5.0369 12.1829 5.29562 12.3727C5.55434 12.5626 5.86687 12.6649 6.18776 12.6649H6.70949C6.75775 12.8109 6.78318 12.9635 6.78489 13.1173Z" fill="#F6B756"/>
<path d="M6.93635 9.34806V14.3241H6.63477V9.34806C6.63477 9.30806 6.65065 9.26971 6.67893 9.24143C6.70721 9.21315 6.74556 9.19727 6.78556 9.19727C6.82555 9.19727 6.8639 9.21315 6.89218 9.24143C6.92046 9.26971 6.93635 9.30806 6.93635 9.34806Z" fill="#F6B756"/>
<path d="M12.3637 13.1188C12.3637 13.1588 12.3478 13.1971 12.3196 13.2254C12.2913 13.2537 12.2529 13.2696 12.2129 13.2696C12.1729 13.2696 12.1346 13.2537 12.1063 13.2254C12.078 13.1971 12.0621 13.1588 12.0621 13.1188C12.0621 13.0788 12.078 13.0404 12.1063 13.0122C12.1346 12.9839 12.1729 12.968 12.2129 12.968C12.2529 12.968 12.2913 12.9839 12.3196 13.0122C12.3478 13.0404 12.3637 13.0788 12.3637 13.1188ZM12.6653 13.7219C12.6653 13.7619 12.6494 13.8003 12.6211 13.8286C12.5929 13.8568 12.5545 13.8727 12.5145 13.8727C12.4745 13.8727 12.4362 13.8568 12.4079 13.8286C12.3796 13.8003 12.3637 13.7619 12.3637 13.7219C12.3637 13.682 12.3796 13.6436 12.4079 13.6153C12.4362 13.587 12.4745 13.5712 12.5145 13.5712C12.5545 13.5712 12.5929 13.587 12.6211 13.6153C12.6494 13.6436 12.6653 13.682 12.6653 13.7219ZM11.7606 13.5712C11.7606 13.6111 11.7447 13.6495 11.7164 13.6778C11.6881 13.7061 11.6498 13.7219 11.6098 13.7219C11.5698 13.7219 11.5314 13.7061 11.5031 13.6778C11.4749 13.6495 11.459 13.6111 11.459 13.5712C11.459 13.5312 11.4749 13.4928 11.5031 13.4645C11.5314 13.4363 11.5698 13.4204 11.6098 13.4204C11.6498 13.4204 11.6881 13.4363 11.7164 13.4645C11.7447 13.4928 11.7606 13.5312 11.7606 13.5712ZM13.4193 12.6664C13.4193 12.7064 13.4034 12.7448 13.3751 12.773C13.3468 12.8013 13.3085 12.8172 13.2685 12.8172C13.2285 12.8172 13.1901 12.8013 13.1618 12.773C13.1336 12.7448 13.1177 12.7064 13.1177 12.6664C13.1177 12.6264 13.1336 12.5881 13.1618 12.5598C13.1901 12.5315 13.2285 12.5156 13.2685 12.5156C13.3085 12.5156 13.3468 12.5315 13.3751 12.5598C13.4034 12.5881 13.4193 12.6264 13.4193 12.6664ZM13.1177 13.2696C13.1177 13.3096 13.1018 13.3479 13.0735 13.3762C13.0452 13.4045 13.0069 13.4204 12.9669 13.4204C12.9269 13.4204 12.8885 13.4045 12.8603 13.3762C12.832 13.3479 12.8161 13.3096 12.8161 13.2696C12.8161 13.2296 12.832 13.1912 12.8603 13.1629C12.8885 13.1347 12.9269 13.1188 12.9669 13.1188C13.0069 13.1188 13.0452 13.1347 13.0735 13.1629C13.1018 13.1912 13.1177 13.2296 13.1177 13.2696ZM13.7208 13.5712C13.7208 13.6111 13.7049 13.6495 13.6767 13.6778C13.6484 13.7061 13.61 13.7219 13.57 13.7219C13.5301 13.7219 13.4917 13.7061 13.4634 13.6778C13.4351 13.6495 13.4193 13.6111 13.4193 13.5712C13.4193 13.5312 13.4351 13.4928 13.4634 13.4645C13.4917 13.4363 13.5301 13.4204 13.57 13.4204C13.61 13.4204 13.6484 13.4363 13.6767 13.4645C13.7049 13.4928 13.7208 13.5312 13.7208 13.5712Z" fill="#BDC3CD"/>
</svg>
