<svg width="21" height="21" viewBox="0 0 21 21" fill="none" xmlns="http://www.w3.org/2000/svg">
<path d="M14.9999 12.9993C14.9999 13.5909 14.7165 17.5359 14.4999 20.9992H0.499995C0.367388 20.9992 0.240213 20.9465 0.146445 20.8527C0.0526779 20.759 0 20.6318 0 20.4992C0 19.9992 0.833325 19.8025 0.833325 19.3325C0.833325 16.7359 -1.22165 15.2426 1.16666 4.66602H13.8332C13.8332 4.66602 14.9999 9.83263 14.9999 12.9993Z" fill="#D1A788"/>
<path d="M12.4999 10.8331C12.5006 12.1308 11.9968 13.3779 11.0949 14.311C10.1929 15.244 8.96359 15.7898 7.66662 15.8331H7.33329C6.35215 15.8003 5.40236 15.4795 4.60233 14.9106C3.80231 14.3417 3.18746 13.5499 2.83445 12.6338C2.48145 11.7178 2.4059 10.7182 2.61724 9.7595C2.82857 8.80084 3.31744 7.9256 4.02288 7.24292C4.72832 6.56023 5.61911 6.10032 6.58419 5.92052C7.54926 5.74072 8.54592 5.84899 9.44987 6.23183C10.3538 6.61468 11.1251 7.25515 11.6675 8.07339C12.2098 8.89163 12.4994 9.85143 12.4999 10.8331Z" fill="#F3F4F5"/>
<path d="M8.33364 8.50064C8.3314 8.71997 8.28845 8.93698 8.20698 9.14063L8.16864 9.1673C8.02163 9.27787 7.89381 9.41188 7.79031 9.56396C7.61122 9.82588 7.51061 10.1335 7.50032 10.4506C7.4921 10.1924 7.42399 9.9397 7.30135 9.71235C7.17871 9.48501 7.00491 9.28929 6.79366 9.14063C6.71262 8.93685 6.66969 8.71992 6.66699 8.50064C6.66699 7.87897 7.08365 7.20565 7.50032 6.83398C7.50032 6.83398 8.33364 7.58064 8.33364 8.50064Z" fill="#FAC270"/>
<path d="M8.33386 8.5C8.33096 8.71872 8.28803 8.93507 8.20719 9.13833C7.99715 9.28728 7.82428 9.48266 7.70201 9.70927C7.57974 9.93589 7.51137 10.1876 7.5022 10.445C7.49091 10.1298 7.39098 9.82425 7.21387 9.56332C7.44392 9.08335 7.84259 8.70484 8.33386 8.5Z" fill="#F6B756"/>
<path d="M9.83331 8.83424C9.83331 9.09298 9.77307 9.34817 9.65736 9.57959C9.54165 9.81102 9.37364 10.0123 9.16665 10.1676C9.14998 10.1676 9.19165 10.1426 7.5 11.8342V10.5009C7.5 10.2422 7.56024 9.98697 7.67595 9.75555C7.79166 9.52412 7.95967 9.32282 8.16666 9.16757C8.70166 8.76758 9.15998 8.83424 9.83331 8.83424Z" fill="#FAC270"/>
<path d="M7.50032 10.45C7.4921 10.1918 7.42399 9.93906 7.30135 9.71172C7.17871 9.48438 7.00491 9.28865 6.79366 9.13999C6.71262 8.93621 6.66969 8.71929 6.66699 8.5C6.99222 8.63218 7.27884 8.84428 7.50032 9.11666C7.61537 9.25277 7.71281 9.40284 7.79031 9.56332C7.61122 9.82525 7.51061 10.1328 7.50032 10.45Z" fill="#F6B756"/>
<path d="M7.49737 10.4521V11.8338L5.83072 10.1671C5.6244 10.0112 5.45688 9.80981 5.34124 9.57853C5.2256 9.34724 5.16496 9.09237 5.16406 8.83379C5.84072 8.83379 6.29905 8.77046 6.83071 9.16712C7.03013 9.31737 7.19347 9.51026 7.30881 9.73171C7.42415 9.95316 7.48857 10.1976 7.49737 10.4471C7.49737 10.4471 7.50071 10.4488 7.49737 10.4521Z" fill="#FAC270"/>
<path d="M9.60921 9.66602C9.497 9.86112 9.34615 10.0313 9.16588 10.166C9.14921 10.166 9.18088 10.151 7.49923 11.8327L7.0459 11.3793C7.1497 10.8942 7.41685 10.4594 7.80271 10.1475C8.18857 9.8357 8.66976 9.66572 9.16588 9.66602H9.60921Z" fill="#F6B756"/>
<path d="M7.95296 11.3793L7.49963 11.8327C5.78631 10.1193 5.84964 10.166 5.83298 10.166C5.65271 10.0313 5.50185 9.86112 5.38965 9.66602H5.83298C6.32909 9.66572 6.81029 9.8357 7.19614 10.1475C7.582 10.4594 7.84915 10.8942 7.95296 11.3793Z" fill="#F6B756"/>
<path d="M9.83361 10.1678C9.83361 10.4265 9.77337 10.6817 9.65766 10.9131C9.54195 11.1445 9.37395 11.3458 9.16695 11.5011C9.15029 11.5011 9.19195 11.4761 7.5003 13.1677V11.8344C7.5003 11.3924 7.6759 10.9685 7.98845 10.6559C8.30101 10.3434 8.72493 10.1678 9.16695 10.1678H9.83361ZM7.5003 11.8344V13.1677C5.78699 11.4544 5.85032 11.5011 5.83365 11.5011C5.62666 11.3458 5.45866 11.1445 5.34295 10.9131C5.22723 10.6817 5.16699 10.4265 5.16699 10.1678C5.85032 10.1678 6.30698 10.1044 6.83364 10.5011C6.90698 10.5011 7.5003 11.0528 7.5003 11.8344Z" fill="#FAC270"/>
<path d="M9.60921 11C9.497 11.1951 9.34615 11.3652 9.16588 11.5C9.14921 11.5 9.18088 11.485 7.49923 13.1666L7.0459 12.7133C7.1497 12.2282 7.41685 11.7934 7.80271 11.4815C8.18857 11.1697 8.66976 10.9997 9.16588 11H9.60921Z" fill="#F6B756"/>
<path d="M7.95296 12.7133L7.49963 13.1666C5.78631 11.4533 5.84964 11.5 5.83298 11.5C5.65271 11.3652 5.50185 11.1951 5.38965 11H5.83298C6.32909 10.9997 6.81029 11.1697 7.19614 11.4815C7.582 11.7934 7.84915 12.2282 7.95296 12.7133Z" fill="#F6B756"/>
<path d="M9.83331 11.5C9.83331 11.7587 9.77307 12.0139 9.65736 12.2453C9.54165 12.4768 9.37364 12.6781 9.16665 12.8333C9.14998 12.8333 9.19165 12.8083 7.5 14.5V13.1667C7.5 12.7246 7.67559 12.3007 7.98815 11.9882C8.30071 11.6756 8.72463 11.5 9.16665 11.5H9.83331Z" fill="#FAC270"/>
<path d="M14.815 16.166L14.5133 20.786C13.4 20.6286 12.381 20.0745 11.6436 19.2257C10.9063 18.3769 10.5002 17.2904 10.5 16.166H14.815Z" fill="#CBA07A"/>
<path d="M14.4994 20.9993H0.499574C0.403423 20.9985 0.309552 20.97 0.229209 20.9171C0.148866 20.8643 0.0854588 20.7894 0.0465864 20.7015C0.00771408 20.6136 -0.0049748 20.5163 0.0100403 20.4213C0.0250554 20.3263 0.0671376 20.2377 0.131244 20.166C0.177653 20.2179 0.234387 20.2595 0.297813 20.2882C0.361239 20.3169 0.429959 20.3321 0.499574 20.3327H14.4994V20.9993Z" fill="#CBA07A"/>
<path d="M16.1662 20.3342H15.1663C13.9286 20.3342 12.7416 19.8425 11.8665 18.9674C10.9913 18.0922 10.4996 16.9052 10.4996 15.6676C10.4996 15.6509 10.233 15.6676 20.8329 15.6676C20.8329 16.9052 20.3412 18.0922 19.466 18.9674C18.5909 19.8425 17.4039 20.3342 16.1662 20.3342Z" fill="#FAC270"/>
<path d="M20.6729 16.8867C20.4048 17.8763 19.8184 18.7501 19.0041 19.373C18.1899 19.996 17.1931 20.3335 16.1679 20.3334H15.1679C14.1435 20.3324 13.1479 19.9944 12.3347 19.3715C11.5215 18.7486 10.9358 17.8755 10.668 16.8867C11.0123 17.7552 11.6094 18.5003 12.382 19.0257C13.1545 19.551 14.067 19.8324 15.0013 19.8334H16.3346C17.2697 19.8334 18.1833 19.5525 18.9568 19.0271C19.7304 18.5017 20.3282 17.756 20.6729 16.8867Z" fill="#F6B756"/>
<path d="M17.8333 20.0254V21.0004H13.5V20.0254" fill="#FAC270"/>
<path d="M20.3341 15.6665H11.0009C11.0009 15.6665 13.0842 13.3332 15.6675 13.3332C18.2508 13.3332 20.3341 15.6665 20.3341 15.6665ZM13.5009 3.3333H1.50098C1.50098 3.3333 4.18762 0 7.50092 0C10.8142 0 13.5009 3.3333 13.5009 3.3333Z" fill="#DCDCDC"/>
<path d="M20.3341 15.6672H11.0009C11.1642 15.4916 11.3367 15.3247 11.5175 15.1672H19.8175C19.9983 15.3247 20.1708 15.4916 20.3341 15.6672ZM13.5009 3.33398H1.50098C1.50098 3.33398 1.66764 3.13398 1.95264 2.83398H13.0492C13.3409 3.13398 13.5009 3.33398 13.5009 3.33398Z" fill="#E2E2E2"/>
<path d="M4.16601 1.99869C4.16601 2.04289 4.14845 2.08529 4.11719 2.11654C4.08594 2.1478 4.04354 2.16536 3.99934 2.16536C3.95514 2.16536 3.91275 2.1478 3.88149 2.11654C3.85024 2.08529 3.83268 2.04289 3.83268 1.99869C3.83268 1.95449 3.85024 1.9121 3.88149 1.88084C3.91275 1.84959 3.95514 1.83203 3.99934 1.83203C4.04354 1.83203 4.08594 1.84959 4.11719 1.88084C4.14845 1.9121 4.16601 1.95449 4.16601 1.99869ZM4.49934 2.66535C4.49934 2.70955 4.48178 2.75195 4.45052 2.7832C4.41927 2.81446 4.37687 2.83202 4.33267 2.83202C4.28847 2.83202 4.24608 2.81446 4.21482 2.7832C4.18357 2.75195 4.16601 2.70955 4.16601 2.66535C4.16601 2.62115 4.18357 2.57876 4.21482 2.5475C4.24608 2.51625 4.28847 2.49869 4.33267 2.49869C4.37687 2.49869 4.41927 2.51625 4.45052 2.5475C4.48178 2.57876 4.49934 2.62115 4.49934 2.66535ZM3.49935 2.49869C3.49935 2.54289 3.48179 2.58528 3.45053 2.61654C3.41928 2.64779 3.37688 2.66535 3.33268 2.66535C3.28848 2.66535 3.24609 2.64779 3.21483 2.61654C3.18357 2.58528 3.16602 2.54289 3.16602 2.49869C3.16602 2.45448 3.18357 2.41209 3.21483 2.38084C3.24609 2.34958 3.28848 2.33202 3.33268 2.33202C3.37688 2.33202 3.41928 2.34958 3.45053 2.38084C3.48179 2.41209 3.49935 2.45448 3.49935 2.49869ZM5.33266 1.4987C5.33266 1.5429 5.3151 1.58529 5.28385 1.61655C5.25259 1.6478 5.2102 1.66536 5.166 1.66536C5.12179 1.66536 5.0794 1.6478 5.04815 1.61655C5.01689 1.58529 4.99933 1.5429 4.99933 1.4987C4.99933 1.45449 5.01689 1.4121 5.04815 1.38085C5.0794 1.34959 5.12179 1.33203 5.166 1.33203C5.2102 1.33203 5.25259 1.34959 5.28385 1.38085C5.3151 1.4121 5.33266 1.45449 5.33266 1.4987ZM4.99933 2.16536C4.99933 2.20956 4.98177 2.25195 4.95052 2.28321C4.91926 2.31446 4.87687 2.33202 4.83267 2.33202C4.78846 2.33202 4.74607 2.31446 4.71482 2.28321C4.68356 2.25195 4.666 2.20956 4.666 2.16536C4.666 2.12115 4.68356 2.07876 4.71482 2.04751C4.74607 2.01625 4.78846 1.99869 4.83267 1.99869C4.87687 1.99869 4.91926 2.01625 4.95052 2.04751C4.98177 2.07876 4.99933 2.12115 4.99933 2.16536ZM5.66599 2.49869C5.66599 2.54289 5.64843 2.58528 5.61718 2.61654C5.58592 2.64779 5.54353 2.66535 5.49933 2.66535C5.45512 2.66535 5.41273 2.64779 5.38148 2.61654C5.35022 2.58528 5.33266 2.54289 5.33266 2.49869C5.33266 2.45448 5.35022 2.41209 5.38148 2.38084C5.41273 2.34958 5.45512 2.33202 5.49933 2.33202C5.54353 2.33202 5.58592 2.34958 5.61718 2.38084C5.64843 2.41209 5.66599 2.45448 5.66599 2.49869Z" fill="#BDC3CD"/>
<path d="M13.9995 4.6673H0.999668C0.822859 4.6673 0.653291 4.59707 0.528268 4.47204C0.403245 4.34702 0.333008 4.17745 0.333008 4.00064C0.333008 3.82384 0.403245 3.65427 0.528268 3.52924C0.653291 3.40422 0.822859 3.33398 0.999668 3.33398H13.9995C14.1764 3.33398 14.3459 3.40422 14.4709 3.52924C14.596 3.65427 14.6662 3.82384 14.6662 4.00064C14.6662 4.17745 14.596 4.34702 14.4709 4.47204C14.3459 4.59707 14.1764 4.6673 13.9995 4.6673Z" fill="#D1A788"/>
<path d="M13.9992 4.66666H0.999295C0.890245 4.66644 0.782914 4.63947 0.686711 4.58812C0.590508 4.53676 0.508372 4.4626 0.447502 4.37211C0.386633 4.28163 0.348889 4.1776 0.337579 4.06914C0.32627 3.96067 0.341741 3.85109 0.382635 3.75C0.432347 3.87289 0.517568 3.97817 0.627411 4.05239C0.737254 4.12661 0.86673 4.16639 0.999295 4.16666H13.9992C14.1317 4.16639 14.2612 4.12661 14.3711 4.05239C14.4809 3.97817 14.5661 3.87289 14.6158 3.75C14.6567 3.85109 14.6722 3.96067 14.6609 4.06914C14.6496 4.1776 14.6118 4.28163 14.551 4.37211C14.4901 4.4626 14.408 4.53676 14.3118 4.58812C14.2156 4.63947 14.1082 4.66644 13.9992 4.66666Z" fill="#CBA07A"/>
<path d="M7.5003 13.1665V14.4998C5.78699 12.7865 5.85032 12.8331 5.83365 12.8331C5.62666 12.6779 5.45866 12.4766 5.34295 12.2452C5.22723 12.0137 5.16699 11.7585 5.16699 11.4998C5.85032 11.4998 6.30698 11.4365 6.83364 11.8331C6.90698 11.8331 7.5003 12.3848 7.5003 13.1665Z" fill="#FAC270"/>
<path d="M9.60921 12.334C9.497 12.5291 9.34615 12.6992 9.16588 12.834C9.14921 12.834 9.18088 12.819 7.49923 14.5006L7.0459 14.0473C7.1497 13.5622 7.41685 13.1273 7.80271 12.8155C8.18857 12.5037 8.66976 12.3337 9.16588 12.334H9.60921Z" fill="#F6B756"/>
<path d="M7.5 14.4987H8.16666C8.60868 14.4987 9.0326 14.3231 9.34516 14.0105C9.65772 13.698 9.83331 13.2741 9.83331 12.832H9.16665C8.72463 12.832 8.30071 13.0076 7.98815 13.3202C7.67559 13.6327 7.5 14.0567 7.5 14.4987Z" fill="#FAC270"/>
<path d="M7.95296 14.0473L7.49963 14.5006C5.78631 12.7873 5.84964 12.834 5.83298 12.834C5.65271 12.6992 5.50185 12.5291 5.38965 12.334H5.83298C6.32909 12.3337 6.81029 12.5037 7.19614 12.8155C7.582 13.1273 7.84915 13.5622 7.95296 14.0473Z" fill="#F6B756"/>
<path d="M7.5003 14.4987H6.83364C6.39162 14.4987 5.9677 14.3231 5.65514 14.0105C5.34259 13.698 5.16699 13.2741 5.16699 12.832H5.83365C6.27568 12.832 6.69959 13.0076 7.01215 13.3202C7.32471 13.6327 7.5003 14.0567 7.5003 14.4987Z" fill="#FAC270"/>
<path d="M9.83361 12.832C9.83361 13.2741 9.65802 13.698 9.34546 14.0105C9.03291 14.3231 8.60899 14.4987 8.16696 14.4987H7.5003C7.50219 14.3287 7.5303 14.1601 7.58364 13.9987H8.16696C8.5205 13.9973 8.86443 13.8835 9.14905 13.6738C9.43367 13.4641 9.64422 13.1693 9.75028 12.832H9.83361ZM7.5003 14.4987H6.83364C6.39162 14.4987 5.9677 14.3231 5.65514 14.0105C5.34259 13.698 5.16699 13.2741 5.16699 12.832H5.25032C5.35673 13.1704 5.56829 13.4659 5.85425 13.6758C6.1402 13.8856 6.48563 13.9987 6.84031 13.9987H7.41697C7.47031 14.1601 7.49842 14.3287 7.5003 14.4987Z" fill="#F6B756"/>
<path d="M7.66634 10.3327V15.8326H7.33301V10.3327C7.33301 10.2885 7.35057 10.2461 7.38182 10.2148C7.41308 10.1836 7.45547 10.166 7.49967 10.166C7.54388 10.166 7.58627 10.1836 7.61752 10.2148C7.64878 10.2461 7.66634 10.2885 7.66634 10.3327Z" fill="#F6B756"/>
<path d="M13.666 14.5006C13.666 14.5448 13.6484 14.5872 13.6172 14.6185C13.5859 14.6498 13.5435 14.6673 13.4993 14.6673C13.4551 14.6673 13.4127 14.6498 13.3815 14.6185C13.3502 14.5872 13.3327 14.5448 13.3327 14.5006C13.3327 14.4564 13.3502 14.4141 13.3815 14.3828C13.4127 14.3515 13.4551 14.334 13.4993 14.334C13.5435 14.334 13.5859 14.3515 13.6172 14.3828C13.6484 14.4141 13.666 14.4564 13.666 14.5006ZM13.9993 15.1673C13.9993 15.2115 13.9818 15.2539 13.9505 15.2852C13.9193 15.3164 13.8769 15.334 13.8327 15.334C13.7885 15.334 13.7461 15.3164 13.7148 15.2852C13.6836 15.2539 13.666 15.2115 13.666 15.1673C13.666 15.1231 13.6836 15.0807 13.7148 15.0495C13.7461 15.0182 13.7885 15.0006 13.8327 15.0006C13.8769 15.0006 13.9193 15.0182 13.9505 15.0495C13.9818 15.0807 13.9993 15.1231 13.9993 15.1673ZM12.9993 15.0006C12.9993 15.0448 12.9818 15.0872 12.9505 15.1185C12.9193 15.1497 12.8769 15.1673 12.8327 15.1673C12.7885 15.1673 12.7461 15.1497 12.7148 15.1185C12.6836 15.0872 12.666 15.0448 12.666 15.0006C12.666 14.9564 12.6836 14.914 12.7148 14.8828C12.7461 14.8515 12.7885 14.834 12.8327 14.834C12.8769 14.834 12.9193 14.8515 12.9505 14.8828C12.9818 14.914 12.9993 14.9564 12.9993 15.0006ZM14.8327 14.0006C14.8327 14.0449 14.8151 14.0872 14.7838 14.1185C14.7526 14.1498 14.7102 14.1673 14.666 14.1673C14.6218 14.1673 14.5794 14.1498 14.5481 14.1185C14.5169 14.0872 14.4993 14.0449 14.4993 14.0006C14.4993 13.9564 14.5169 13.9141 14.5481 13.8828C14.5794 13.8515 14.6218 13.834 14.666 13.834C14.7102 13.834 14.7526 13.8515 14.7838 13.8828C14.8151 13.9141 14.8327 13.9564 14.8327 14.0006ZM14.4993 14.6673C14.4993 14.7115 14.4818 14.7539 14.4505 14.7852C14.4193 14.8164 14.3769 14.834 14.3327 14.834C14.2885 14.834 14.2461 14.8164 14.2148 14.7852C14.1836 14.7539 14.166 14.7115 14.166 14.6673C14.166 14.6231 14.1836 14.5807 14.2148 14.5495C14.2461 14.5182 14.2885 14.5006 14.3327 14.5006C14.3769 14.5006 14.4193 14.5182 14.4505 14.5495C14.4818 14.5807 14.4993 14.6231 14.4993 14.6673ZM15.166 15.0006C15.166 15.0448 15.1484 15.0872 15.1172 15.1185C15.0859 15.1497 15.0435 15.1673 14.9993 15.1673C14.9551 15.1673 14.9127 15.1497 14.8815 15.1185C14.8502 15.0872 14.8327 15.0448 14.8327 15.0006C14.8327 14.9564 14.8502 14.914 14.8815 14.8828C14.9127 14.8515 14.9551 14.834 14.9993 14.834C15.0435 14.834 15.0859 14.8515 15.1172 14.8828C15.1484 14.914 15.166 14.9564 15.166 15.0006Z" fill="#BDC3CD"/>
</svg>
