<svg width="15" height="15" viewBox="0 0 15 15" fill="none" xmlns="http://www.w3.org/2000/svg">
<path d="M5.66699 9.66675C5.66699 7.78141 5.66699 6.83808 6.25299 6.25275C6.83833 5.66675 7.78166 5.66675 9.66699 5.66675H10.3337C12.219 5.66675 13.1623 5.66675 13.7477 6.25275C14.3337 6.83808 14.3337 7.78141 14.3337 9.66675V10.3334C14.3337 12.2187 14.3337 13.1621 13.7477 13.7474C13.1623 14.3334 12.219 14.3334 10.3337 14.3334H9.66699C7.78166 14.3334 6.83833 14.3334 6.25299 13.7474C5.66699 13.1621 5.66699 12.2187 5.66699 10.3334V9.66675Z" stroke="#FF4B4B" stroke-linecap="round" stroke-linejoin="round"/>
<path d="M11 5.66667C10.998 3.69533 10.9687 2.674 10.3947 1.97467C10.2839 1.83977 10.1602 1.71606 10.0253 1.60533C9.28667 1 8.192 1 6 1C3.80867 1 2.71267 1 1.97467 1.60533C1.83977 1.71606 1.71606 1.83977 1.60533 1.97467C1 2.71333 1 3.808 1 6C1 8.19133 1 9.28733 1.60533 10.0253C1.71606 10.1602 1.83977 10.2839 1.97467 10.3947C2.67467 10.968 3.69467 10.9987 5.66667 11" stroke="#FF4B4B" stroke-linecap="round" stroke-linejoin="round"/>
</svg>
