<svg width="17" height="19" viewBox="0 0 17 19" fill="none" xmlns="http://www.w3.org/2000/svg">
<path d="M3.42652 4.28782C3.20124 4.14752 3.02398 3.9434 2.91858 3.69982C2.83148 3.4985 2.73812 3.37891 2.64099 3.37891C2.54387 3.37891 2.45051 3.4985 2.3634 3.69982C2.25801 3.9434 2.08075 4.14752 1.85546 4.28782C0.695035 5.0105 0 6.91939 0 7.9802C0 9.26878 1.09814 10.5423 2.64095 10.5423C4.18381 10.5423 5.28191 9.26878 5.28191 7.9802C5.28198 6.91943 4.58695 5.0105 3.42652 4.28782Z" fill="url(#paint0_linear_2183_4812)"/>
<path d="M0 7.98139C0 9.27001 1.09814 10.5435 2.64095 10.5435C4.18381 10.5435 5.28191 9.26998 5.28191 7.98139C5.28191 7.83967 5.26939 7.68275 5.24514 7.51562H0.036771C0.0125178 7.68272 0 7.83967 0 7.98139Z" fill="url(#paint1_linear_2183_4812)"/>
<path d="M10.1447 3.72895C9.59467 3.38643 9.16188 2.88803 8.90459 2.29332C8.6919 1.80177 8.46394 1.50977 8.22684 1.50977C7.98975 1.50977 7.76179 1.80174 7.5491 2.29328C7.29177 2.88799 6.85902 3.38635 6.30898 3.72892C3.47575 5.49336 1.77881 10.154 1.77881 12.7441C1.77881 15.8902 4.45992 18.9995 8.22684 18.9995C11.9937 18.9995 14.6749 15.8902 14.6749 12.7441C14.6749 10.154 12.9779 5.4934 10.1447 3.72895Z" fill="url(#paint2_linear_2183_4812)"/>
<path d="M14.5823 13.7522C14.642 13.4193 14.6731 13.0822 14.6731 12.7446C14.6731 11.7527 14.4239 10.457 13.9577 9.13672H9.9668L14.5823 13.7522Z" fill="url(#paint3_linear_2183_4812)"/>
<path d="M1.77881 12.7443C1.77881 15.8905 4.45992 18.9997 8.22684 18.9997C11.9937 18.9997 14.6749 15.8905 14.6749 12.7443C14.6749 12.3923 14.6433 12.0019 14.582 11.5859H1.87165C1.8104 12.0019 1.77881 12.3923 1.77881 12.7443Z" fill="url(#paint4_linear_2183_4812)"/>
<path d="M3.54932 10.9923C3.54932 10.7852 3.76938 10.6816 3.98949 10.6816H6.2355C6.44912 10.6816 6.53973 10.9082 6.53973 11.1153C6.53973 11.3548 6.42967 11.5619 6.2355 11.5619H4.55905V12.6558H5.53644C5.73065 12.6558 5.84067 12.8436 5.84067 13.0507C5.84067 13.2254 5.75006 13.4326 5.53644 13.4326H4.55905V15.1025C4.55905 15.3097 4.30661 15.4133 4.0542 15.4133C3.80176 15.4133 3.54932 15.3096 3.54932 15.1025V10.9923Z" fill="url(#paint5_linear_2183_4812)"/>
<path d="M6.06738 14.9968C6.06738 14.9774 6.07387 14.9514 6.08031 14.9256L7.28425 10.9772C7.35545 10.7506 7.64675 10.6406 7.94445 10.6406C8.2422 10.6406 8.5335 10.7506 8.60469 10.9772L9.81508 14.9256C9.82156 14.9514 9.82801 14.9774 9.82801 14.9968C9.82801 15.2363 9.45907 15.411 9.18077 15.411C9.01897 15.411 8.88951 15.3592 8.85065 15.2233L8.63055 14.4142H7.26484L7.04478 15.2233C7.00596 15.3592 6.87649 15.411 6.71466 15.411C6.43632 15.411 6.06738 15.2363 6.06738 14.9968ZM8.417 13.6375L7.94445 11.9028L7.47195 13.6375H8.417Z" fill="url(#paint6_linear_2183_4812)"/>
<path d="M12.598 10.6817C12.8116 10.6817 12.9022 10.9147 12.9022 11.1283C12.9022 11.3743 12.7922 11.5879 12.598 11.5879H11.7047V15.1026C11.7047 15.3097 11.4523 15.4133 11.1999 15.4133C10.9475 15.4133 10.695 15.3097 10.695 15.1026V11.5878H9.80178C9.60761 11.5878 9.49756 11.3742 9.49756 11.1283C9.49756 10.9147 9.58816 10.6816 9.80178 10.6816H12.598V10.6817Z" fill="url(#paint7_linear_2183_4812)"/>
<path d="M13.7933 1.30192C13.4706 1.10097 13.2167 0.808589 13.0657 0.459693C12.9409 0.1713 12.8072 0 12.6681 0C12.529 0 12.3953 0.1713 12.2705 0.459656C12.1195 0.808552 11.8656 1.10093 11.543 1.30189C9.88083 2.33703 8.88525 5.0713 8.88525 6.59076C8.88525 8.4365 10.4582 10.2606 12.6681 10.2606C14.878 10.2606 16.4509 8.4365 16.4509 6.59076C16.4509 5.0713 15.4554 2.33706 13.7933 1.30192Z" fill="url(#paint8_linear_2183_4812)"/>
<path d="M8.88525 6.591C8.88525 8.43674 10.4582 10.2609 12.6681 10.2609C14.878 10.2609 16.4509 8.43677 16.4509 6.591C16.4509 6.38803 16.433 6.16323 16.3982 5.92383H8.93797C8.90321 6.16323 8.88525 6.38799 8.88525 6.591Z" fill="url(#paint9_linear_2183_4812)"/>
<path d="M12.4155 11.5878H12.5967C12.7909 11.5878 12.9009 11.3742 12.9009 11.1283C12.9009 10.9147 12.8103 10.6816 12.5967 10.6816H11.5093L12.4155 11.5878Z" fill="url(#paint10_linear_2183_4812)"/>
<defs>
<linearGradient id="paint0_linear_2183_4812" x1="0.638631" y1="5.47914" x2="3.54205" y2="8.38255" gradientUnits="userSpaceOnUse">
<stop stop-color="#FFF7F0"/>
<stop offset="1" stop-color="#FFDFCF"/>
</linearGradient>
<linearGradient id="paint1_linear_2183_4812" x1="2.64095" y1="8.60802" x2="2.64095" y2="11.1375" gradientUnits="userSpaceOnUse">
<stop stop-color="#F89580" stop-opacity="0"/>
<stop offset="0.261" stop-color="#F2917C" stop-opacity="0.262"/>
<stop offset="0.587" stop-color="#E38670" stop-opacity="0.589"/>
<stop offset="0.948" stop-color="#CA735D" stop-opacity="0.95"/>
<stop offset="0.997" stop-color="#C5715A"/>
</linearGradient>
<linearGradient id="paint2_linear_2183_4812" x1="3.71165" y1="7.01129" x2="16.0896" y2="19.3892" gradientUnits="userSpaceOnUse">
<stop stop-color="#FEE97D"/>
<stop offset="1" stop-color="#FE860A"/>
</linearGradient>
<linearGradient id="paint3_linear_2183_4812" x1="14.9203" y1="14.3439" x2="11.915" y2="9.0536" gradientUnits="userSpaceOnUse">
<stop stop-color="#FE7701" stop-opacity="0"/>
<stop offset="0.193" stop-color="#F87105" stop-opacity="0.193"/>
<stop offset="0.447" stop-color="#E76010" stop-opacity="0.447"/>
<stop offset="0.734" stop-color="#CC4522" stop-opacity="0.734"/>
<stop offset="1" stop-color="#AC2538"/>
</linearGradient>
<linearGradient id="paint4_linear_2183_4812" x1="8.22684" y1="13.5605" x2="8.22684" y2="19.2038" gradientUnits="userSpaceOnUse">
<stop stop-color="#FE7701" stop-opacity="0"/>
<stop offset="0.193" stop-color="#F87105" stop-opacity="0.193"/>
<stop offset="0.447" stop-color="#E76010" stop-opacity="0.447"/>
<stop offset="0.734" stop-color="#CC4522" stop-opacity="0.734"/>
<stop offset="1" stop-color="#AC2538"/>
</linearGradient>
<linearGradient id="paint5_linear_2183_4812" x1="3.54932" y1="13.0475" x2="6.53973" y2="13.0475" gradientUnits="userSpaceOnUse">
<stop stop-color="white"/>
<stop offset="1" stop-color="#EAF6FF"/>
</linearGradient>
<linearGradient id="paint6_linear_2183_4812" x1="6.06738" y1="13.0258" x2="9.82805" y2="13.0258" gradientUnits="userSpaceOnUse">
<stop stop-color="white"/>
<stop offset="1" stop-color="#EAF6FF"/>
</linearGradient>
<linearGradient id="paint7_linear_2183_4812" x1="9.49756" y1="13.0475" x2="12.9022" y2="13.0475" gradientUnits="userSpaceOnUse">
<stop stop-color="white"/>
<stop offset="1" stop-color="#EAF6FF"/>
</linearGradient>
<linearGradient id="paint8_linear_2183_4812" x1="9.79995" y1="3.00829" x2="13.9587" y2="7.16706" gradientUnits="userSpaceOnUse">
<stop stop-color="#FFF7F0"/>
<stop offset="1" stop-color="#FFDFCF"/>
</linearGradient>
<linearGradient id="paint9_linear_2183_4812" x1="12.6681" y1="7.48855" x2="12.6681" y2="11.1117" gradientUnits="userSpaceOnUse">
<stop stop-color="#F89580" stop-opacity="0"/>
<stop offset="0.261" stop-color="#F2917C" stop-opacity="0.262"/>
<stop offset="0.587" stop-color="#E38670" stop-opacity="0.589"/>
<stop offset="0.948" stop-color="#CA735D" stop-opacity="0.95"/>
<stop offset="0.997" stop-color="#C5715A"/>
</linearGradient>
<linearGradient id="paint10_linear_2183_4812" x1="12.3137" y1="11.5349" x2="11.6431" y2="7.45544" gradientUnits="userSpaceOnUse">
<stop stop-color="#8AC9FE" stop-opacity="0"/>
<stop offset="0.235" stop-color="#7CB5DE" stop-opacity="0.235"/>
<stop offset="0.755" stop-color="#5F8A9D" stop-opacity="0.755"/>
<stop offset="1" stop-color="#537983"/>
</linearGradient>
</defs>
</svg>
