<svg width="19" height="21" viewBox="0 0 19 21" fill="none" xmlns="http://www.w3.org/2000/svg">
<path d="M3.78717 4.73896C3.53817 4.58389 3.34226 4.35828 3.22577 4.08907C3.1295 3.86655 3.02631 3.73438 2.91896 3.73438C2.81161 3.73438 2.70843 3.86655 2.61216 4.08907C2.49567 4.35828 2.29975 4.58389 2.05075 4.73896C0.768189 5.5377 0 7.6475 0 8.81996C0 10.2442 1.21372 11.6517 2.91892 11.6517C4.62416 11.6517 5.83784 10.2442 5.83784 8.81996C5.83792 7.64754 5.06973 5.5377 3.78717 4.73896Z" fill="url(#paint0_linear_2183_3777)"/>
<path d="M0 8.81948C0 10.2437 1.21372 11.6512 2.91892 11.6512C4.62416 11.6512 5.83784 10.2437 5.83784 8.81948C5.83784 8.66284 5.82401 8.48941 5.7972 8.30469H0.0406412C0.0138353 8.48936 0 8.66284 0 8.81948Z" fill="url(#paint1_linear_2183_3777)"/>
<path d="M11.2103 4.12268C10.6024 3.74411 10.124 3.19325 9.83965 2.53595C9.60458 1.99266 9.35262 1.66992 9.09057 1.66992C8.82852 1.66992 8.57657 1.99262 8.34149 2.5359C8.05708 3.19321 7.57878 3.74402 6.97085 4.12264C3.83942 6.0728 1.96387 11.224 1.96387 14.0867C1.96387 17.564 4.92717 21.0005 9.09057 21.0005C13.2539 21.0005 16.2173 17.564 16.2173 14.0867C16.2173 11.224 14.3417 6.07284 11.2103 4.12268Z" fill="url(#paint2_linear_2183_3777)"/>
<path d="M16.1169 15.199C16.1829 14.831 16.2173 14.4584 16.2173 14.0853C16.2173 12.9889 15.9419 11.557 15.4265 10.0977H11.0156L16.1169 15.199Z" fill="url(#paint3_linear_2183_3777)"/>
<path d="M1.96387 14.0869C1.96387 17.5642 4.92717 21.0008 9.09057 21.0008C13.2539 21.0008 16.2173 17.5642 16.2173 14.0869C16.2173 13.6979 16.1824 13.2664 16.1147 12.8066H2.06648C1.99879 13.2664 1.96387 13.6979 1.96387 14.0869Z" fill="url(#paint4_linear_2183_3777)"/>
<path d="M3.92188 12.1481C3.92188 11.9192 4.1651 11.8047 4.40838 11.8047H6.89078C7.12689 11.8047 7.22703 12.0551 7.22703 12.284C7.22703 12.5487 7.1054 12.7776 6.89078 12.7776H5.03788V13.9867H6.11815C6.3328 13.9867 6.4544 14.1942 6.4544 14.4231C6.4544 14.6162 6.35425 14.8452 6.11815 14.8452H5.03788V16.6909C5.03788 16.9198 4.75887 17.0343 4.4799 17.0343C4.20089 17.0343 3.92188 16.9198 3.92188 16.6909V12.1481Z" fill="url(#paint5_linear_2183_3777)"/>
<path d="M6.70508 16.5764C6.70508 16.5549 6.71224 16.5263 6.71937 16.4977L8.05003 12.1337C8.12871 11.8833 8.45067 11.7617 8.77972 11.7617C9.1088 11.7617 9.43076 11.8833 9.50945 12.1337L10.8472 16.4977C10.8544 16.5263 10.8615 16.5549 10.8615 16.5764C10.8615 16.841 10.4537 17.0342 10.1462 17.0342C9.96733 17.0342 9.82424 16.977 9.78129 16.8267L9.53802 15.9324H8.02857L7.78534 16.8267C7.74244 16.9769 7.59935 17.0342 7.42048 17.0342C7.11285 17.0342 6.70508 16.841 6.70508 16.5764ZM9.302 15.074L8.77972 13.1567L8.25747 15.074H9.302Z" fill="url(#paint6_linear_2183_3777)"/>
<path d="M13.9238 11.8047C14.1599 11.8047 14.2601 12.0623 14.2601 12.2984C14.2601 12.5702 14.1385 12.8063 13.9238 12.8063H12.9366V16.6909C12.9366 16.9199 12.6576 17.0344 12.3786 17.0344C12.0996 17.0344 11.8206 16.9198 11.8206 16.6909V12.8063H10.8333C10.6187 12.8063 10.4971 12.5702 10.4971 12.2983C10.4971 12.0622 10.5972 11.8047 10.8333 11.8047H13.9238V11.8047Z" fill="url(#paint7_linear_2183_3777)"/>
<path d="M15.2449 1.43895C14.8883 1.21685 14.6076 0.893695 14.4408 0.508077C14.3029 0.18933 14.155 0 14.0013 0C13.8476 0 13.6998 0.18933 13.5619 0.508036C13.395 0.893654 13.1144 1.21681 12.7578 1.43891C10.9207 2.583 9.82031 5.60507 9.82031 7.28445C9.82031 9.32446 11.5588 11.3406 14.0013 11.3406C16.4438 11.3406 18.1823 9.32446 18.1823 7.28445C18.1823 5.60507 17.082 2.58304 15.2449 1.43895Z" fill="url(#paint8_linear_2183_3777)"/>
<path d="M9.82031 7.28426C9.82031 9.32427 11.5588 11.3404 14.0013 11.3404C16.4438 11.3404 18.1823 9.32431 18.1823 7.28426C18.1823 7.05993 18.1625 6.81148 18.124 6.54688H9.87858C9.84016 6.81148 9.82031 7.05989 9.82031 7.28426Z" fill="url(#paint9_linear_2183_3777)"/>
<path d="M13.7233 12.8063H13.9236C14.1382 12.8063 14.2598 12.5702 14.2598 12.2983C14.2598 12.0622 14.1597 11.8047 13.9236 11.8047H12.7217L13.7233 12.8063Z" fill="url(#paint10_linear_2183_3777)"/>
<defs>
<linearGradient id="paint0_linear_2183_3777" x1="0.705848" y1="6.05566" x2="3.91486" y2="9.26467" gradientUnits="userSpaceOnUse">
<stop stop-color="#FFF7F0"/>
<stop offset="1" stop-color="#FFDFCF"/>
</linearGradient>
<linearGradient id="paint1_linear_2183_3777" x1="2.91892" y1="9.51206" x2="2.91892" y2="12.3078" gradientUnits="userSpaceOnUse">
<stop stop-color="#F89580" stop-opacity="0"/>
<stop offset="0.261" stop-color="#F2917C" stop-opacity="0.262"/>
<stop offset="0.587" stop-color="#E38670" stop-opacity="0.589"/>
<stop offset="0.948" stop-color="#CA735D" stop-opacity="0.95"/>
<stop offset="0.997" stop-color="#C5715A"/>
</linearGradient>
<linearGradient id="paint2_linear_2183_3777" x1="4.10014" y1="7.7505" x2="17.7809" y2="21.4312" gradientUnits="userSpaceOnUse">
<stop stop-color="#FEE97D"/>
<stop offset="1" stop-color="#FE860A"/>
</linearGradient>
<linearGradient id="paint3_linear_2183_3777" x1="16.4905" y1="15.8529" x2="13.1689" y2="10.0058" gradientUnits="userSpaceOnUse">
<stop stop-color="#FE7701" stop-opacity="0"/>
<stop offset="0.193" stop-color="#F87105" stop-opacity="0.193"/>
<stop offset="0.447" stop-color="#E76010" stop-opacity="0.447"/>
<stop offset="0.734" stop-color="#CC4522" stop-opacity="0.734"/>
<stop offset="1" stop-color="#AC2538"/>
</linearGradient>
<linearGradient id="paint4_linear_2183_3777" x1="9.09057" y1="14.989" x2="9.09057" y2="21.2262" gradientUnits="userSpaceOnUse">
<stop stop-color="#FE7701" stop-opacity="0"/>
<stop offset="0.193" stop-color="#F87105" stop-opacity="0.193"/>
<stop offset="0.447" stop-color="#E76010" stop-opacity="0.447"/>
<stop offset="0.734" stop-color="#CC4522" stop-opacity="0.734"/>
<stop offset="1" stop-color="#AC2538"/>
</linearGradient>
<linearGradient id="paint5_linear_2183_3777" x1="3.92188" y1="14.4195" x2="7.22703" y2="14.4195" gradientUnits="userSpaceOnUse">
<stop stop-color="white"/>
<stop offset="1" stop-color="#EAF6FF"/>
</linearGradient>
<linearGradient id="paint6_linear_2183_3777" x1="6.70508" y1="14.398" x2="10.8616" y2="14.398" gradientUnits="userSpaceOnUse">
<stop stop-color="white"/>
<stop offset="1" stop-color="#EAF6FF"/>
</linearGradient>
<linearGradient id="paint7_linear_2183_3777" x1="10.4971" y1="14.4195" x2="14.2601" y2="14.4195" gradientUnits="userSpaceOnUse">
<stop stop-color="white"/>
<stop offset="1" stop-color="#EAF6FF"/>
</linearGradient>
<linearGradient id="paint8_linear_2183_3777" x1="10.8313" y1="3.32492" x2="15.4278" y2="7.92141" gradientUnits="userSpaceOnUse">
<stop stop-color="#FFF7F0"/>
<stop offset="1" stop-color="#FFDFCF"/>
</linearGradient>
<linearGradient id="paint9_linear_2183_3777" x1="14.0013" y1="8.27629" x2="14.0013" y2="12.2808" gradientUnits="userSpaceOnUse">
<stop stop-color="#F89580" stop-opacity="0"/>
<stop offset="0.261" stop-color="#F2917C" stop-opacity="0.262"/>
<stop offset="0.587" stop-color="#E38670" stop-opacity="0.589"/>
<stop offset="0.948" stop-color="#CA735D" stop-opacity="0.95"/>
<stop offset="0.997" stop-color="#C5715A"/>
</linearGradient>
<linearGradient id="paint10_linear_2183_3777" x1="13.6108" y1="12.7478" x2="12.8696" y2="8.23893" gradientUnits="userSpaceOnUse">
<stop stop-color="#8AC9FE" stop-opacity="0"/>
<stop offset="0.235" stop-color="#7CB5DE" stop-opacity="0.235"/>
<stop offset="0.755" stop-color="#5F8A9D" stop-opacity="0.755"/>
<stop offset="1" stop-color="#537983"/>
</linearGradient>
</defs>
</svg>
