<svg width="18" height="19" viewBox="0 0 18 19" fill="none" xmlns="http://www.w3.org/2000/svg">
<g clip-path="url(#clip0_2188_4037)">
<path d="M12 1.57031C13.2427 1.57031 14.25 2.57767 14.25 3.82031C14.25 4.23452 13.9142 4.57031 13.5 4.57031C13.0858 4.57031 12.75 4.23452 12.75 3.82031C12.75 3.4061 12.4142 3.07031 12 3.07031H3C2.58579 3.07031 2.25 3.4061 2.25 3.82031V15.8203C2.25 16.2345 2.58579 16.5703 3 16.5703H12C12.4142 16.5703 12.75 16.2345 12.75 15.8203V15.0703C12.75 14.6561 13.0858 14.3203 13.5 14.3203C13.9142 14.3203 14.25 14.6561 14.25 15.0703V15.8203C14.25 17.063 13.2427 18.0703 12 18.0703H3C1.75736 18.0703 0.75 17.063 0.75 15.8203V3.82031C0.75 2.57767 1.75736 1.57031 3 1.57031H12Z" fill="#0F0F0F"/>
<path fill-rule="evenodd" clip-rule="evenodd" d="M15.5998 6.97139C15.3749 6.74652 15.0104 6.74652 14.7854 6.97139L8.9379 12.819C8.82735 12.9295 8.75408 13.0718 8.72843 13.226L8.60505 13.9661L9.34515 13.8428C9.49935 13.8171 9.6417 13.7438 9.75218 13.6334L15.5998 7.78573C15.8247 7.56085 15.8247 7.19626 15.5998 6.97139ZM13.7248 5.91073C14.5355 5.10007 15.8498 5.10007 16.6605 5.91073C17.4711 6.72139 17.4711 8.03573 16.6605 8.84641L10.8129 14.694C10.4813 15.0256 10.0544 15.2453 9.59175 15.3224L8.85165 15.4457C7.83645 15.6149 6.95625 14.7348 7.12546 13.7195L7.24881 12.9794C7.32591 12.5168 7.5456 12.0899 7.87718 11.7583L13.7248 5.91073Z" fill="#0F0F0F"/>
<path d="M3.75 6.07031C3.75 5.6561 4.08579 5.32031 4.5 5.32031H10.5C10.9142 5.32031 11.25 5.6561 11.25 6.07031C11.25 6.48452 10.9142 6.82031 10.5 6.82031H4.5C4.08579 6.82031 3.75 6.48452 3.75 6.07031Z" fill="#0F0F0F"/>
<path d="M3.75 9.07031C3.75 8.65609 4.08579 8.32031 4.5 8.32031H7.5C7.91423 8.32031 8.25 8.65609 8.25 9.07031C8.25 9.48454 7.91423 9.82031 7.5 9.82031H4.5C4.08579 9.82031 3.75 9.48454 3.75 9.07031Z" fill="#0F0F0F"/>
<path d="M3.75 12.0703C3.75 11.6561 4.08579 11.3203 4.5 11.3203H5.25C5.66421 11.3203 6 11.6561 6 12.0703C6 12.4845 5.66421 12.8203 5.25 12.8203H4.5C4.08579 12.8203 3.75 12.4845 3.75 12.0703Z" fill="#0F0F0F"/>
</g>
<defs>
<clipPath id="clip0_2188_4037">
<rect width="18" height="18" fill="white" transform="translate(0 0.820312)"/>
</clipPath>
</defs>
</svg>
