<svg width="19" height="24" viewBox="0 0 19 24" fill="none" xmlns="http://www.w3.org/2000/svg">
<path d="M9.41788 16.7188C8.70858 17.2586 7.24414 18.5937 7.24414 20.4127C7.24414 21.6135 8.21875 22.5905 9.41676 22.5905C10.6148 22.5905 11.5894 21.6135 11.5894 20.4127C11.5894 18.69 10.1241 17.2922 9.41788 16.7188Z" fill="black"/>
<path d="M14.5094 4.17707C14.2459 3.8791 13.7911 3.86105 13.5042 4.12889L10.1956 7.21691V0.749919C10.1956 0.208569 9.54287 -0.195908 9.05407 0.0997742C8.96154 0.155742 6.76277 1.49841 4.54107 3.93666C1.83976 6.90135 0 10.5111 0 14.5593C0 19.7647 4.22463 23.9995 9.41734 23.9995C7.44394 23.9995 5.8385 22.3902 5.8385 20.412C5.8385 17.2156 8.94195 15.3229 9.07404 15.2438C9.18742 15.176 9.31765 15.1416 9.44973 15.1445C9.58181 15.1474 9.7104 15.1875 9.8207 15.2602C9.95035 15.3457 12.9961 17.3886 12.9961 20.412C12.9962 22.3902 11.3907 23.9995 9.41734 23.9995C14.6101 23.9995 18.8347 19.7647 18.8347 14.5593C18.8347 10.6287 17.1003 7.10572 14.5094 4.17707Z" fill="black"/>
</svg>
