<svg width="20" height="25" viewBox="0 0 20 25" fill="none" xmlns="http://www.w3.org/2000/svg">
<path d="M3.87939 7.65252C3.76064 8.9192 3.6773 11.1609 4.42522 12.1151C4.42522 12.1151 4.07314 9.65254 7.22941 6.56293C8.50025 5.31917 8.794 3.6275 8.35025 2.35874C8.09817 1.63998 7.63775 1.04623 7.23774 0.631641C7.00441 0.387889 7.18358 -0.0141975 7.52316 0.000385954C9.57734 0.0920533 12.9065 0.66289 14.3211 4.21292C14.942 5.77126 14.9878 7.38169 14.692 9.0192C14.5045 10.065 13.8378 12.3901 15.3586 12.6755C16.4441 12.8796 16.9691 12.0171 17.2045 11.3963C17.3024 11.138 17.642 11.0734 17.8253 11.2796C19.6587 13.3651 19.8149 15.8213 19.4357 17.9359C18.7024 22.0235 14.5628 24.9985 10.4503 24.9985C5.31273 24.9985 1.22312 22.0589 0.162692 16.738C-0.264394 14.5901 -0.0477258 10.34 3.2648 7.34002C3.51063 7.11502 3.91272 7.31502 3.87939 7.65252Z" fill="url(#paint0_radial_2183_3560)"/>
<defs>
<radialGradient id="paint0_radial_2183_3560" cx="0" cy="0" r="1" gradientUnits="userSpaceOnUse" gradientTransform="translate(9.43271 25.0633) rotate(-179.751) scale(14.7059 24.1294)">
<stop offset="0.314" stop-color="#FF9800"/>
<stop offset="0.662" stop-color="#FF6D00"/>
<stop offset="0.972" stop-color="#F44336"/>
</radialGradient>
</defs>
</svg>
