<svg width="20" height="20" viewBox="0 0 20 20" fill="none" xmlns="http://www.w3.org/2000/svg">
<mask id="mask0_588_1074" style="mask-type:luminance" maskUnits="userSpaceOnUse" x="-3" y="0" width="27" height="20">
<rect x="-3" width="26.6667" height="20" rx="2" fill="white"/>
</mask>
<g mask="url(#mask0_588_1074)">
<path fill-rule="evenodd" clip-rule="evenodd" d="M3.66699 0H23.667V20H3.66699V0Z" fill="#EF0000"/>
<path fill-rule="evenodd" clip-rule="evenodd" d="M-3 0H7V20H-3V0Z" fill="#2F8D00"/>
<mask id="mask1_588_1074" style="mask-type:luminance" maskUnits="userSpaceOnUse" x="0" y="3" width="14" height="14">
<path fill-rule="evenodd" clip-rule="evenodd" d="M6.92076 16.5062C3.37036 16.5062 0.492188 13.5933 0.492188 10.0002C0.492188 6.40699 3.37036 3.49414 6.92076 3.49414C10.4712 3.49414 13.3493 6.40699 13.3493 10.0002C13.3493 13.5933 10.4712 16.5062 6.92076 16.5062Z" fill="white"/>
</mask>
<g mask="url(#mask1_588_1074)">
<path fill-rule="evenodd" clip-rule="evenodd" d="M6.52441 3.3335H7.35775V5.58249H6.52441V3.3335Z" fill="#FFE017"/>
<path fill-rule="evenodd" clip-rule="evenodd" d="M6.52441 14.5786H7.35775V16.667H6.52441V14.5786Z" fill="#FFE017"/>
<path d="M0.595291 10.3369L0.362305 9.73911C2.93329 8.71271 4.87376 8.05078 6.19042 7.75247C8.12219 7.3148 10.2447 6.99097 12.5582 6.78076L12.615 7.42076C10.3281 7.62856 8.23272 7.94823 6.32912 8.37952C5.05166 8.66895 3.13815 9.32168 0.595291 10.3369Z" fill="#FFE017"/>
<path d="M12.9513 6.3869L12.7622 7.00032C10.8191 6.38689 9.23625 6.12321 8.01956 6.20488L7.97754 5.56372C9.28387 5.47603 10.9398 5.75189 12.9513 6.3869Z" fill="#FFE017"/>
<path d="M13.6233 9.81677L13.2642 10.3466C12.2736 9.65891 11.0532 9.31347 9.59473 9.31347V8.6709C11.1759 8.6709 12.5215 9.0518 13.6233 9.81677Z" fill="#FFE017"/>
<path d="M13.0852 10.0088L13.2494 10.6295C11.1138 11.208 9.10889 11.5361 7.23435 11.6134C5.34688 11.6912 3.147 11.3619 0.632812 10.6278L0.808799 10.0105C3.26188 10.7266 5.39575 11.0461 7.20851 10.9714C9.03419 10.8961 10.9931 10.5755 13.0852 10.0088Z" fill="#FFE017"/>
<path d="M12.8431 13.0301L11.8395 14.059C9.93227 12.1535 8.25316 10.7911 6.81252 9.97242C5.34727 9.13979 3.43644 8.29431 1.08301 7.43939L1.56563 6.07861C3.98847 6.95874 5.96958 7.83532 7.51193 8.71176C9.0789 9.60219 10.8525 11.0414 12.8431 13.0301Z" fill="#FFE017"/>
<path d="M1.54883 13.6127L1.16895 13.0979C1.22199 13.0578 1.31665 12.9909 1.44707 12.9062C1.6624 12.7663 1.90152 12.6267 2.15879 12.4961C2.86737 12.1367 3.57815 11.9123 4.25609 11.8917C4.28924 11.8906 4.32226 11.8901 4.35513 11.8901V12.5327C4.32865 12.5327 4.30199 12.5331 4.27515 12.5339C3.70385 12.5513 3.07646 12.7494 2.44329 13.0706C2.20729 13.1903 1.9874 13.3187 1.79005 13.447C1.72136 13.4916 1.66059 13.5328 1.60851 13.5696C1.57814 13.5911 1.55799 13.6058 1.54883 13.6127Z" fill="#FFE017"/>
<path d="M1.84375 13.8359L2.00364 13.214C4.12041 13.7715 5.75231 14.0492 6.89122 14.0492C8.02587 14.0492 9.7147 13.7216 11.9467 13.064L12.1242 13.6809C9.83938 14.3541 8.09871 14.6918 6.89122 14.6918C5.68799 14.6918 4.00821 14.4059 1.84375 13.8359Z" fill="#FFE017"/>
<path d="M1.01855 8.07886L2.02445 7.05225L3.49722 8.53028L2.49132 9.55689L1.01855 8.07886Z" fill="#FFE017"/>
<path d="M9.36328 13.2067L10.1115 11.9751L12.4478 13.4288L11.6996 14.6604L9.36328 13.2067Z" fill="#FFE017"/>
</g>
<path fill-rule="evenodd" clip-rule="evenodd" d="M0.492188 10.0002C0.492188 13.5933 3.37036 16.5062 6.92076 16.5062C10.4712 16.5062 13.3493 13.5933 13.3493 10.0002C13.3493 6.40699 10.4712 3.49414 6.92076 3.49414C3.37036 3.49414 0.492188 6.40699 0.492188 10.0002ZM12.5557 10.0805C12.5557 13.1857 10.0684 15.703 7.00015 15.703C3.9319 15.703 1.44459 13.1857 1.44459 10.0805C1.44459 6.97527 3.9319 4.458 7.00015 4.458C10.0684 4.458 12.5557 6.97527 12.5557 10.0805Z" fill="#F9E813"/>
<path d="M3.38086 5.98779V11.2051C3.7243 13.2701 4.88136 14.3026 6.85202 14.3026C8.82267 14.3026 9.97973 13.2701 10.3232 11.2051V5.98779H3.38086Z" fill="white"/>
<path d="M2.9043 5.50586H10.799V11.2453L10.7924 11.285C10.411 13.5781 9.05905 14.7846 6.85164 14.7846C4.64424 14.7846 3.29227 13.5781 2.9109 11.285L2.9043 11.2453V5.50586Z" fill="#C51918"/>
<path d="M4.70996 7.25879H8.99306V10.9595C8.99306 10.9595 8.67523 12.8706 6.85151 12.8706C5.0278 12.8706 4.70996 10.9595 4.70996 10.9595V7.25879Z" fill="#F7FCFF"/>
<path fill-rule="evenodd" clip-rule="evenodd" d="M3.66602 5.90381H4.26843V6.30541H3.66602V5.90381Z" fill="#F9E813"/>
<path fill-rule="evenodd" clip-rule="evenodd" d="M3.34863 6.06445H4.45974V6.26526H3.34863V6.06445Z" fill="#060101"/>
<path fill-rule="evenodd" clip-rule="evenodd" d="M3.34863 6.2251H3.95104V6.4259H3.34863V6.2251Z" fill="#F9E813"/>
<path fill-rule="evenodd" clip-rule="evenodd" d="M3.9834 6.2251H4.58581V6.4259H3.9834V6.2251Z" fill="#F9E813"/>
<path fill-rule="evenodd" clip-rule="evenodd" d="M3.34863 6.70703H3.75024V7.30944H3.34863V6.70703Z" fill="#F9E813"/>
<path fill-rule="evenodd" clip-rule="evenodd" d="M4.14258 6.70703H4.54418V7.30944H4.14258V6.70703Z" fill="#F9E813"/>
<path fill-rule="evenodd" clip-rule="evenodd" d="M3.8252 6.70703H4.026V7.30944H3.8252V6.70703Z" fill="#F9E813"/>
<path fill-rule="evenodd" clip-rule="evenodd" d="M3.34863 6.54639H4.45974V6.74719H3.34863V6.54639Z" fill="#060101"/>
<path fill-rule="evenodd" clip-rule="evenodd" d="M3.34863 7.02832H4.45974V7.22912H3.34863V7.02832Z" fill="#060101"/>
<path fill-rule="evenodd" clip-rule="evenodd" d="M3.50781 6.38574H3.70862V6.58655H3.50781V6.38574Z" fill="#F9E813"/>
<path fill-rule="evenodd" clip-rule="evenodd" d="M4.14258 6.38574H4.34338V6.58655H4.14258V6.38574Z" fill="#F9E813"/>
<path fill-rule="evenodd" clip-rule="evenodd" d="M3.8252 6.2251H4.026V6.6267H3.8252V6.2251Z" fill="#F9E813"/>
<path fill-rule="evenodd" clip-rule="evenodd" d="M6.68164 5.90381H7.28405V6.30541H6.68164V5.90381Z" fill="#F9E813"/>
<path fill-rule="evenodd" clip-rule="evenodd" d="M6.36426 6.06445H7.47537V6.26526H6.36426V6.06445Z" fill="#060101"/>
<path fill-rule="evenodd" clip-rule="evenodd" d="M6.36426 6.2251H6.96667V6.4259H6.36426V6.2251Z" fill="#F9E813"/>
<path fill-rule="evenodd" clip-rule="evenodd" d="M6.99902 6.2251H7.60143V6.4259H6.99902V6.2251Z" fill="#F9E813"/>
<path fill-rule="evenodd" clip-rule="evenodd" d="M6.36426 6.70703H6.76586V7.30944H6.36426V6.70703Z" fill="#F9E813"/>
<path fill-rule="evenodd" clip-rule="evenodd" d="M7.1582 6.70703H7.55981V7.30944H7.1582V6.70703Z" fill="#F9E813"/>
<path fill-rule="evenodd" clip-rule="evenodd" d="M6.84082 6.70703H7.04162V7.30944H6.84082V6.70703Z" fill="#F9E813"/>
<path fill-rule="evenodd" clip-rule="evenodd" d="M6.36426 6.54639H7.47537V6.74719H6.36426V6.54639Z" fill="#060101"/>
<path fill-rule="evenodd" clip-rule="evenodd" d="M6.36426 7.02832H7.47537V7.22912H6.36426V7.02832Z" fill="#060101"/>
<path fill-rule="evenodd" clip-rule="evenodd" d="M6.52344 6.38574H6.72424V6.58655H6.52344V6.38574Z" fill="#F9E813"/>
<path fill-rule="evenodd" clip-rule="evenodd" d="M7.1582 6.38574H7.35901V6.58655H7.1582V6.38574Z" fill="#F9E813"/>
<path fill-rule="evenodd" clip-rule="evenodd" d="M6.84082 6.2251H7.04162V6.6267H6.84082V6.2251Z" fill="#F9E813"/>
<path fill-rule="evenodd" clip-rule="evenodd" d="M9.53906 5.90381H10.1415V6.30541H9.53906V5.90381Z" fill="#F9E813"/>
<path fill-rule="evenodd" clip-rule="evenodd" d="M9.22168 6.06445H10.3328V6.26526H9.22168V6.06445Z" fill="#060101"/>
<path fill-rule="evenodd" clip-rule="evenodd" d="M9.22168 6.2251H9.82409V6.4259H9.22168V6.2251Z" fill="#F9E813"/>
<path fill-rule="evenodd" clip-rule="evenodd" d="M9.85645 6.2251H10.4589V6.4259H9.85645V6.2251Z" fill="#F9E813"/>
<path fill-rule="evenodd" clip-rule="evenodd" d="M9.22168 6.70703H9.62329V7.30944H9.22168V6.70703Z" fill="#F9E813"/>
<path fill-rule="evenodd" clip-rule="evenodd" d="M10.0156 6.70703H10.4172V7.30944H10.0156V6.70703Z" fill="#F9E813"/>
<path fill-rule="evenodd" clip-rule="evenodd" d="M9.69824 6.70703H9.89905V7.30944H9.69824V6.70703Z" fill="#F9E813"/>
<path fill-rule="evenodd" clip-rule="evenodd" d="M9.22168 6.54639H10.3328V6.74719H9.22168V6.54639Z" fill="#060101"/>
<path fill-rule="evenodd" clip-rule="evenodd" d="M9.22168 7.02832H10.3328V7.22912H9.22168V7.02832Z" fill="#060101"/>
<path fill-rule="evenodd" clip-rule="evenodd" d="M9.38086 6.38574H9.58166V6.58655H9.38086V6.38574Z" fill="#F9E813"/>
<path fill-rule="evenodd" clip-rule="evenodd" d="M10.0156 6.38574H10.2164V6.58655H10.0156V6.38574Z" fill="#F9E813"/>
<path fill-rule="evenodd" clip-rule="evenodd" d="M9.69824 6.2251H9.89905V6.6267H9.69824V6.2251Z" fill="#F9E813"/>
<path fill-rule="evenodd" clip-rule="evenodd" d="M9.53906 8.79541H10.1415V9.19702H9.53906V8.79541Z" fill="#F9E813"/>
<path fill-rule="evenodd" clip-rule="evenodd" d="M9.22168 8.95605H10.3328V9.15686H9.22168V8.95605Z" fill="#060101"/>
<path fill-rule="evenodd" clip-rule="evenodd" d="M9.22168 9.1167H9.82409V9.3175H9.22168V9.1167Z" fill="#F9E813"/>
<path fill-rule="evenodd" clip-rule="evenodd" d="M9.85645 9.1167H10.4589V9.3175H9.85645V9.1167Z" fill="#F9E813"/>
<path fill-rule="evenodd" clip-rule="evenodd" d="M9.22168 9.59863H9.62329V10.201H9.22168V9.59863Z" fill="#F9E813"/>
<path fill-rule="evenodd" clip-rule="evenodd" d="M10.0156 9.59863H10.4172V10.201H10.0156V9.59863Z" fill="#F9E813"/>
<path fill-rule="evenodd" clip-rule="evenodd" d="M9.69824 9.59863H9.89905V10.201H9.69824V9.59863Z" fill="#F9E813"/>
<path fill-rule="evenodd" clip-rule="evenodd" d="M9.22168 9.43799H10.3328V9.63879H9.22168V9.43799Z" fill="#060101"/>
<path fill-rule="evenodd" clip-rule="evenodd" d="M9.22168 9.91992H10.3328V10.1207H9.22168V9.91992Z" fill="#060101"/>
<path fill-rule="evenodd" clip-rule="evenodd" d="M9.38086 9.27734H9.58166V9.47815H9.38086V9.27734Z" fill="#F9E813"/>
<path fill-rule="evenodd" clip-rule="evenodd" d="M10.0156 9.27734H10.2164V9.47815H10.0156V9.27734Z" fill="#F9E813"/>
<path fill-rule="evenodd" clip-rule="evenodd" d="M9.69824 9.1167H9.89905V9.51831H9.69824V9.1167Z" fill="#F9E813"/>
<path fill-rule="evenodd" clip-rule="evenodd" d="M3.66602 8.79541H4.26843V9.19702H3.66602V8.79541Z" fill="#F9E813"/>
<path fill-rule="evenodd" clip-rule="evenodd" d="M3.34863 8.95605H4.45974V9.15686H3.34863V8.95605Z" fill="#060101"/>
<path fill-rule="evenodd" clip-rule="evenodd" d="M3.34863 9.1167H3.95104V9.3175H3.34863V9.1167Z" fill="#F9E813"/>
<path fill-rule="evenodd" clip-rule="evenodd" d="M3.9834 9.1167H4.58581V9.3175H3.9834V9.1167Z" fill="#F9E813"/>
<path fill-rule="evenodd" clip-rule="evenodd" d="M3.34863 9.59863H3.75024V10.201H3.34863V9.59863Z" fill="#F9E813"/>
<path fill-rule="evenodd" clip-rule="evenodd" d="M4.14258 9.59863H4.54418V10.201H4.14258V9.59863Z" fill="#F9E813"/>
<path fill-rule="evenodd" clip-rule="evenodd" d="M3.8252 9.59863H4.026V10.201H3.8252V9.59863Z" fill="#F9E813"/>
<path fill-rule="evenodd" clip-rule="evenodd" d="M3.34863 9.43799H4.45974V9.63879H3.34863V9.43799Z" fill="#060101"/>
<path fill-rule="evenodd" clip-rule="evenodd" d="M3.34863 9.91992H4.45974V10.1207H3.34863V9.91992Z" fill="#060101"/>
<path fill-rule="evenodd" clip-rule="evenodd" d="M3.50781 9.27734H3.70862V9.47815H3.50781V9.27734Z" fill="#F9E813"/>
<path fill-rule="evenodd" clip-rule="evenodd" d="M4.14258 9.27734H4.34338V9.47815H4.14258V9.27734Z" fill="#F9E813"/>
<path fill-rule="evenodd" clip-rule="evenodd" d="M3.8252 9.1167H4.026V9.51831H3.8252V9.1167Z" fill="#F9E813"/>
<path fill-rule="evenodd" clip-rule="evenodd" d="M4.05273 12.4204L4.43996 11.9589L4.7476 12.2171L4.36038 12.6786L4.05273 12.4204Z" fill="#F9E813"/>
<path fill-rule="evenodd" clip-rule="evenodd" d="M3.97168 12.7666L4.68589 11.9154L4.83971 12.0445L4.1255 12.8957L3.97168 12.7666Z" fill="#060101"/>
<path fill-rule="evenodd" clip-rule="evenodd" d="M4.09473 12.8701L4.48195 12.4086L4.63577 12.5377L4.24855 12.9992L4.09473 12.8701Z" fill="#F9E813"/>
<path fill-rule="evenodd" clip-rule="evenodd" d="M4.50293 12.3838L4.89015 11.9223L5.04397 12.0514L4.65675 12.5129L4.50293 12.3838Z" fill="#F9E813"/>
<path fill-rule="evenodd" clip-rule="evenodd" d="M4.46387 13.1797L4.72201 12.872L5.18349 13.2593L4.92534 13.5669L4.46387 13.1797Z" fill="#F9E813"/>
<path fill-rule="evenodd" clip-rule="evenodd" d="M4.97363 12.5718L5.23178 12.2641L5.69325 12.6514L5.43511 12.959L4.97363 12.5718Z" fill="#F9E813"/>
<path fill-rule="evenodd" clip-rule="evenodd" d="M4.76953 12.8149L4.89861 12.6611L5.36008 13.0483L5.231 13.2022L4.76953 12.8149Z" fill="#F9E813"/>
<path fill-rule="evenodd" clip-rule="evenodd" d="M4.34082 13.0767L5.05503 12.2255L5.20885 12.3546L4.49464 13.2057L4.34082 13.0767Z" fill="#060101"/>
<path fill-rule="evenodd" clip-rule="evenodd" d="M4.70996 13.3862L5.42417 12.5351L5.57799 12.6641L4.86379 13.5153L4.70996 13.3862Z" fill="#060101"/>
<path fill-rule="evenodd" clip-rule="evenodd" d="M4.32031 12.8516L4.44939 12.6977L4.60321 12.8268L4.47414 12.9806L4.32031 12.8516Z" fill="#F9E813"/>
<path fill-rule="evenodd" clip-rule="evenodd" d="M4.72754 12.3652L4.85661 12.2114L5.01044 12.3405L4.88136 12.4943L4.72754 12.3652Z" fill="#F9E813"/>
<path fill-rule="evenodd" clip-rule="evenodd" d="M4.40039 12.5054L4.52946 12.3515L4.83711 12.6097L4.70804 12.7635L4.40039 12.5054Z" fill="#F9E813"/>
<path fill-rule="evenodd" clip-rule="evenodd" d="M9.48145 12.0552L9.86867 12.5166L9.56102 12.7748L9.1738 12.3133L9.48145 12.0552Z" fill="#F9E813"/>
<path fill-rule="evenodd" clip-rule="evenodd" d="M9.1543 11.915L9.8685 12.7662L9.71468 12.8953L9.00047 12.0441L9.1543 11.915Z" fill="#060101"/>
<path fill-rule="evenodd" clip-rule="evenodd" d="M9.03125 12.0186L9.41847 12.48L9.26465 12.6091L8.87743 12.1476L9.03125 12.0186Z" fill="#F9E813"/>
<path fill-rule="evenodd" clip-rule="evenodd" d="M9.43945 12.5049L9.82667 12.9664L9.67285 13.0954L9.28563 12.634L9.43945 12.5049Z" fill="#F9E813"/>
<path fill-rule="evenodd" clip-rule="evenodd" d="M8.66211 12.3281L8.92026 12.6358L8.45878 13.023L8.20064 12.7153L8.66211 12.3281Z" fill="#F9E813"/>
<path fill-rule="evenodd" clip-rule="evenodd" d="M9.17188 12.936L9.43002 13.2437L8.96855 13.6309L8.7104 13.3233L9.17188 12.936Z" fill="#F9E813"/>
<path fill-rule="evenodd" clip-rule="evenodd" d="M8.96777 12.6929L9.09685 12.8467L8.63538 13.2339L8.5063 13.0801L8.96777 12.6929Z" fill="#F9E813"/>
<path fill-rule="evenodd" clip-rule="evenodd" d="M8.78516 12.2251L9.49937 13.0763L9.34554 13.2053L8.63133 12.3542L8.78516 12.2251Z" fill="#060101"/>
<path fill-rule="evenodd" clip-rule="evenodd" d="M8.41602 12.5347L9.13022 13.3858L8.9764 13.5149L8.26219 12.6637L8.41602 12.5347Z" fill="#060101"/>
<path fill-rule="evenodd" clip-rule="evenodd" d="M9.00977 12.2432L9.13884 12.397L8.98502 12.5261L8.85594 12.3722L9.00977 12.2432Z" fill="#F9E813"/>
<path fill-rule="evenodd" clip-rule="evenodd" d="M9.41797 12.73L9.54704 12.8838L9.39322 13.0129L9.26414 12.8591L9.41797 12.73Z" fill="#F9E813"/>
<path fill-rule="evenodd" clip-rule="evenodd" d="M9.33691 12.3833L9.46599 12.5371L9.15834 12.7953L9.02927 12.6414L9.33691 12.3833Z" fill="#F9E813"/>
<path fill-rule="evenodd" clip-rule="evenodd" d="M7.46551 7.6709H6.36523V8.47213C6.36523 8.47213 6.44688 8.88588 6.91537 8.88588C7.38386 8.88588 7.46551 8.47213 7.46551 8.47213V7.6709ZM6.84145 7.99218C6.84145 8.0809 6.77039 8.15283 6.68272 8.15283C6.59506 8.15283 6.524 8.0809 6.524 7.99218C6.524 7.90346 6.59506 7.83154 6.68272 7.83154C6.77039 7.83154 6.84145 7.90346 6.84145 7.99218ZM6.68272 8.7954C6.77039 8.7954 6.84145 8.72348 6.84145 8.63476C6.84145 8.54604 6.77039 8.47411 6.68272 8.47411C6.59506 8.47411 6.524 8.54604 6.524 8.63476C6.524 8.72348 6.59506 8.7954 6.68272 8.7954ZM7.31758 8.63476C7.31758 8.72348 7.24651 8.7954 7.15885 8.7954C7.07118 8.7954 7.00012 8.72348 7.00012 8.63476C7.00012 8.54604 7.07118 8.47411 7.15885 8.47411C7.24651 8.47411 7.31758 8.54604 7.31758 8.63476ZM6.92079 8.47411C7.00845 8.47411 7.07952 8.40219 7.07952 8.31347C7.07952 8.22475 7.00845 8.15283 6.92079 8.15283C6.83312 8.15283 6.76206 8.22475 6.76206 8.31347C6.76206 8.40219 6.83312 8.47411 6.92079 8.47411ZM7.31758 7.99218C7.31758 8.0809 7.24651 8.15283 7.15885 8.15283C7.07118 8.15283 7.00012 8.0809 7.00012 7.99218C7.00012 7.90346 7.07118 7.83154 7.15885 7.83154C7.24651 7.83154 7.31758 7.90346 7.31758 7.99218Z" fill="#013399"/>
<path fill-rule="evenodd" clip-rule="evenodd" d="M7.46551 9.43799H6.36523V10.2392C6.36523 10.2392 6.44688 10.653 6.91537 10.653C7.38386 10.653 7.46551 10.2392 7.46551 10.2392V9.43799ZM6.84145 9.75927C6.84145 9.84799 6.77039 9.91992 6.68272 9.91992C6.59506 9.91992 6.524 9.84799 6.524 9.75927C6.524 9.67055 6.59506 9.59863 6.68272 9.59863C6.77039 9.59863 6.84145 9.67055 6.84145 9.75927ZM6.68272 10.5625C6.77039 10.5625 6.84145 10.4906 6.84145 10.4018C6.84145 10.3131 6.77039 10.2412 6.68272 10.2412C6.59506 10.2412 6.524 10.3131 6.524 10.4018C6.524 10.4906 6.59506 10.5625 6.68272 10.5625ZM7.31758 10.4018C7.31758 10.4906 7.24651 10.5625 7.15885 10.5625C7.07118 10.5625 7.00012 10.4906 7.00012 10.4018C7.00012 10.3131 7.07118 10.2412 7.15885 10.2412C7.24651 10.2412 7.31758 10.3131 7.31758 10.4018ZM6.92079 10.2412C7.00845 10.2412 7.07952 10.1693 7.07952 10.0806C7.07952 9.99184 7.00845 9.91992 6.92079 9.91992C6.83312 9.91992 6.76206 9.99184 6.76206 10.0806C6.76206 10.1693 6.83312 10.2412 6.92079 10.2412ZM7.31758 9.75927C7.31758 9.84799 7.24651 9.91992 7.15885 9.91992C7.07118 9.91992 7.00012 9.84799 7.00012 9.75927C7.00012 9.67055 7.07118 9.59863 7.15885 9.59863C7.24651 9.59863 7.31758 9.67055 7.31758 9.75927Z" fill="#013399"/>
<path fill-rule="evenodd" clip-rule="evenodd" d="M8.89422 9.43799H7.79395V10.2392C7.79395 10.2392 7.87559 10.653 8.34408 10.653C8.81257 10.653 8.89422 10.2392 8.89422 10.2392V9.43799ZM8.27017 9.75927C8.27017 9.84799 8.1991 9.91992 8.11144 9.91992C8.02377 9.91992 7.95271 9.84799 7.95271 9.75927C7.95271 9.67055 8.02377 9.59863 8.11144 9.59863C8.1991 9.59863 8.27017 9.67055 8.27017 9.75927ZM8.11144 10.5625C8.1991 10.5625 8.27017 10.4906 8.27017 10.4018C8.27017 10.3131 8.1991 10.2412 8.11144 10.2412C8.02377 10.2412 7.95271 10.3131 7.95271 10.4018C7.95271 10.4906 8.02377 10.5625 8.11144 10.5625ZM8.74629 10.4018C8.74629 10.4906 8.67522 10.5625 8.58756 10.5625C8.49989 10.5625 8.42883 10.4906 8.42883 10.4018C8.42883 10.3131 8.49989 10.2412 8.58756 10.2412C8.67522 10.2412 8.74629 10.3131 8.74629 10.4018ZM8.3495 10.2412C8.43716 10.2412 8.50823 10.1693 8.50823 10.0806C8.50823 9.99184 8.43716 9.91992 8.3495 9.91992C8.26183 9.91992 8.19077 9.99184 8.19077 10.0806C8.19077 10.1693 8.26183 10.2412 8.3495 10.2412ZM8.74629 9.75927C8.74629 9.84799 8.67522 9.91992 8.58756 9.91992C8.49989 9.91992 8.42883 9.84799 8.42883 9.75927C8.42883 9.67055 8.49989 9.59863 8.58756 9.59863C8.67522 9.59863 8.74629 9.67055 8.74629 9.75927Z" fill="#013399"/>
<path fill-rule="evenodd" clip-rule="evenodd" d="M6.0368 9.43799H4.93652V10.2392C4.93652 10.2392 5.01817 10.653 5.48666 10.653C5.95515 10.653 6.0368 10.2392 6.0368 10.2392V9.43799ZM5.41274 9.75927C5.41274 9.84799 5.34168 9.91992 5.25401 9.91992C5.16635 9.91992 5.09528 9.84799 5.09528 9.75927C5.09528 9.67055 5.16635 9.59863 5.25401 9.59863C5.34168 9.59863 5.41274 9.67055 5.41274 9.75927ZM5.25401 10.5625C5.34168 10.5625 5.41274 10.4906 5.41274 10.4018C5.41274 10.3131 5.34168 10.2412 5.25401 10.2412C5.16635 10.2412 5.09528 10.3131 5.09528 10.4018C5.09528 10.4906 5.16635 10.5625 5.25401 10.5625ZM5.88887 10.4018C5.88887 10.4906 5.8178 10.5625 5.73014 10.5625C5.64247 10.5625 5.57141 10.4906 5.57141 10.4018C5.57141 10.3131 5.64247 10.2412 5.73014 10.2412C5.8178 10.2412 5.88887 10.3131 5.88887 10.4018ZM5.49208 10.2412C5.57974 10.2412 5.65081 10.1693 5.65081 10.0806C5.65081 9.99184 5.57974 9.91992 5.49208 9.91992C5.40441 9.91992 5.33335 9.99184 5.33335 10.0806C5.33335 10.1693 5.40441 10.2412 5.49208 10.2412ZM5.88887 9.75927C5.88887 9.84799 5.8178 9.91992 5.73014 9.91992C5.64247 9.91992 5.57141 9.84799 5.57141 9.75927C5.57141 9.67055 5.64247 9.59863 5.73014 9.59863C5.8178 9.59863 5.88887 9.67055 5.88887 9.75927Z" fill="#013399"/>
<path fill-rule="evenodd" clip-rule="evenodd" d="M7.46551 11.2051H6.36523V12.0063C6.36523 12.0063 6.44688 12.4201 6.91537 12.4201C7.38386 12.4201 7.46551 12.0063 7.46551 12.0063V11.2051ZM6.84145 11.5264C6.84145 11.6151 6.77039 11.687 6.68272 11.687C6.59506 11.687 6.524 11.6151 6.524 11.5264C6.524 11.4376 6.59506 11.3657 6.68272 11.3657C6.77039 11.3657 6.84145 11.4376 6.84145 11.5264ZM6.68272 12.3296C6.77039 12.3296 6.84145 12.2577 6.84145 12.1689C6.84145 12.0802 6.77039 12.0083 6.68272 12.0083C6.59506 12.0083 6.524 12.0802 6.524 12.1689C6.524 12.2577 6.59506 12.3296 6.68272 12.3296ZM7.31758 12.1689C7.31758 12.2577 7.24651 12.3296 7.15885 12.3296C7.07118 12.3296 7.00012 12.2577 7.00012 12.1689C7.00012 12.0802 7.07118 12.0083 7.15885 12.0083C7.24651 12.0083 7.31758 12.0802 7.31758 12.1689ZM6.92079 12.0083C7.00845 12.0083 7.07952 11.9364 7.07952 11.8477C7.07952 11.7589 7.00845 11.687 6.92079 11.687C6.83312 11.687 6.76206 11.7589 6.76206 11.8477C6.76206 11.9364 6.83312 12.0083 6.92079 12.0083ZM7.31758 11.5264C7.31758 11.6151 7.24651 11.687 7.15885 11.687C7.07118 11.687 7.00012 11.6151 7.00012 11.5264C7.00012 11.4376 7.07118 11.3657 7.15885 11.3657C7.24651 11.3657 7.31758 11.4376 7.31758 11.5264Z" fill="#013399"/>
</g>
<rect x="-3" width="26.6667" height="20" rx="2" fill="url(#paint0_linear_588_1074)" style="mix-blend-mode:overlay"/>
<defs>
<linearGradient id="paint0_linear_588_1074" x1="10.3333" y1="0" x2="10.3333" y2="20" gradientUnits="userSpaceOnUse">
<stop stop-color="white" stop-opacity="0.7"/>
<stop offset="1" stop-opacity="0.3"/>
</linearGradient>
</defs>
</svg>
