<svg width="36" height="36" viewBox="0 0 36 36" fill="none" xmlns="http://www.w3.org/2000/svg">
<path fill-rule="evenodd" clip-rule="evenodd" d="M21.9767 2.63341C22.037 2.66135 22.0918 2.69991 22.1384 2.74726L25.2384 5.84724C25.2857 5.89388 25.3243 5.94865 25.3522 6.00894H22.2527C22.1795 6.0088 22.1094 5.97967 22.0577 5.92792C22.0059 5.87617 21.9768 5.80603 21.9767 5.73286V2.63341ZM0.679802 5.38996V7.35542H4.92234L6.78054 10.574C6.83807 10.6738 6.98282 10.6738 7.04042 10.574L8.89862 7.35542H19.0962V5.38996H0.679802ZM19.7759 8.45357V9.44402C19.7759 11.2623 18.3115 12.7455 16.5162 12.7455H3.25973C1.46438 12.7455 0 11.2624 0 9.44402V8.45357H4.17069L5.74134 11.1741C6.25719 12.0675 7.56384 12.0675 8.07962 11.1741L9.65027 8.45357H19.7759ZM0 4.29188H19.7759V3.30143C19.7759 1.48305 18.3116 0 16.5162 0H16.2522C15.7272 0.280801 15.2667 0.567676 14.8956 0.870227C14.4289 1.25055 14.1086 1.6518 13.99 2.0943C13.9473 2.24599 13.8466 2.37476 13.7097 2.45275C13.5728 2.53073 13.4107 2.55165 13.2584 2.51097C13.1062 2.47029 12.9761 2.37129 12.8964 2.23541C12.8166 2.09952 12.7936 1.93768 12.8322 1.78493C13.0148 1.10348 13.4498 0.521776 14.0709 0H11.906C11.3809 0.280801 10.9206 0.567676 10.5493 0.870227C10.0826 1.25055 9.76232 1.6518 9.64375 2.0943C9.62427 2.17123 9.5897 2.24352 9.54206 2.30698C9.49441 2.37045 9.43464 2.42381 9.36621 2.46399C9.29777 2.50416 9.22204 2.53034 9.1434 2.54101C9.06477 2.55168 8.9848 2.54662 8.90813 2.52614C8.83147 2.50565 8.75963 2.47014 8.6968 2.42167C8.63397 2.3732 8.58139 2.31273 8.54212 2.24378C8.50284 2.17482 8.47766 2.09875 8.46802 2.01998C8.45838 1.94122 8.46448 1.86132 8.48597 1.78493C8.66852 1.10348 9.10352 0.521776 9.72467 0H7.55972C7.03464 0.280801 6.57429 0.567676 6.20304 0.870227C5.73639 1.25048 5.41606 1.6518 5.29756 2.0943C5.25489 2.24599 5.1542 2.37476 5.01728 2.45275C4.88036 2.53073 4.71823 2.55165 4.566 2.51097C4.41377 2.47029 4.28369 2.37129 4.20391 2.23541C4.12414 2.09952 4.1011 1.93768 4.13979 1.78493C4.32226 1.10348 4.75726 0.521776 5.37841 0H3.25973C1.46438 0 0 1.48305 0 3.30143V4.29188ZM33.9692 35.8034L35.3874 34.3419C35.6365 34.0853 35.6302 33.6716 35.3735 33.4225L31.4456 29.6109C31.1891 29.3618 30.7751 29.3681 30.5261 29.6247L30.4453 29.7079L28.2031 27.5322C29.0173 26.371 29.4953 24.9569 29.4953 23.4311C29.4953 19.4808 26.293 16.2784 22.3426 16.2784C18.3923 16.2784 15.1899 19.4808 15.1899 23.4311C15.1899 27.3814 18.3923 30.5838 22.3426 30.5838C24.1165 30.5838 25.7392 29.9378 26.9892 28.8687L29.1887 31.003L29.1079 31.0863C28.8589 31.3429 28.8651 31.7568 29.1218 32.0058L33.0497 35.8173C33.3064 36.0663 33.7202 36.0602 33.9692 35.8034ZM22.3426 18.2951C25.1792 18.2951 27.4786 20.5946 27.4786 23.4311C27.4786 26.2676 25.1791 28.5671 22.3426 28.5671C19.5061 28.5671 17.2066 26.2676 17.2066 23.4311C17.2066 20.5946 19.5061 18.2951 22.3426 18.2951ZM20.7767 5.49189H20.2962V7.25364H20.9759V8.61249H22.3426C22.5018 8.61249 22.6544 8.67571 22.7669 8.78823C22.8794 8.90075 22.9426 9.05337 22.9426 9.2125C22.9426 9.37163 22.8794 9.52424 22.7669 9.63676C22.6544 9.74928 22.5018 9.8125 22.3426 9.8125H20.9608C20.8922 10.6575 20.5869 11.4661 20.0797 12.1455H22.3426C22.5018 12.1455 22.6544 12.2087 22.7669 12.3213C22.8794 12.4338 22.9426 12.5864 22.9426 12.7455C22.9426 12.9047 22.8794 13.0573 22.7669 13.1698C22.6544 13.2823 22.5018 13.3455 22.3426 13.3455H18.7387C18.0643 13.7395 17.2972 13.9466 16.5162 13.9455H4.27051V29.4193C4.27051 29.7234 4.51854 29.9715 4.82266 29.9715H17.1478C16.2868 29.2867 15.5687 28.4393 15.0346 27.4775H7.32797C7.16884 27.4775 7.01622 27.4143 6.9037 27.3018C6.79118 27.1893 6.72797 27.0366 6.72797 26.8775C6.72797 26.7184 6.79118 26.5658 6.9037 26.4532C7.01622 26.3407 7.16884 26.2775 7.32797 26.2775H14.4879C14.2161 25.527 14.0539 24.7413 14.0061 23.9445H7.32797C7.16884 23.9445 7.01622 23.8813 6.9037 23.7687C6.79118 23.6562 6.72797 23.5036 6.72797 23.3445C6.72797 23.1853 6.79118 23.0327 6.9037 22.9202C7.01622 22.8077 7.16884 22.7445 7.32797 22.7445H14.0183C14.083 21.9451 14.2631 21.1593 14.5531 20.4115H7.32797C7.16884 20.4115 7.01622 20.3483 6.9037 20.2358C6.79118 20.1233 6.72797 19.9707 6.72797 19.8115C6.72797 19.6524 6.79118 19.4998 6.9037 19.3873C7.01622 19.2747 7.16884 19.2115 7.32797 19.2115H15.1335C15.6598 18.3148 16.348 17.5237 17.1633 16.8785H7.32797C7.16884 16.8785 7.01622 16.8153 6.9037 16.7028C6.79118 16.5902 6.72797 16.4376 6.72797 16.2785C6.72797 16.1194 6.79118 15.9667 6.9037 15.8542C7.01622 15.7417 7.16884 15.6785 7.32797 15.6785H19.2298C20.1918 15.2917 21.2424 15.0785 22.3427 15.0785C23.4219 15.0785 24.4532 15.2832 25.4002 15.656V7.20887H22.2528C21.4384 7.20887 20.7768 6.54714 20.7768 5.73279V5.49189H20.7767Z" fill="#323232"/>
</svg>
