<svg width="20" height="20" viewBox="0 0 20 20" fill="none" xmlns="http://www.w3.org/2000/svg">
<path d="M17.5 0.5H2.5C1.39543 0.5 0.5 1.39543 0.5 2.5V17.5C0.5 18.6046 1.39543 19.5 2.5 19.5H17.5C18.6046 19.5 19.5 18.6046 19.5 17.5V2.5C19.5 1.39543 18.6046 0.5 17.5 0.5Z" stroke="black"/>
<path fill-rule="evenodd" clip-rule="evenodd" d="M2.86816 16.9992L6.63416 7.95117L10.8642 15.3872L13.2682 11.3802L17.0622 16.9992H2.86816Z" stroke="black" stroke-linejoin="round"/>
<path d="M14.0002 7.266C15.1782 7.266 16.1332 6.31102 16.1332 5.133C16.1332 3.95498 15.1782 3 14.0002 3C12.8222 3 11.8672 3.95498 11.8672 5.133C11.8672 6.31102 12.8222 7.266 14.0002 7.266Z" stroke="black"/>
</svg>
