<svg width="32" height="32" viewBox="0 0 32 32" fill="none" xmlns="http://www.w3.org/2000/svg">
<path fill-rule="evenodd" clip-rule="evenodd" d="M18.8523 16.0007C18.8523 17.4735 17.6882 18.6673 16.2523 18.6673C14.8163 18.6673 13.6523 17.4735 13.6523 16.0007C13.6523 14.528 14.8163 13.334 16.2523 13.334C17.6882 13.334 18.8523 14.528 18.8523 16.0007Z" stroke="black" stroke-width="1.5" stroke-linecap="round" stroke-linejoin="round"/>
<path fill-rule="evenodd" clip-rule="evenodd" d="M10.0984 24.135L6.82892 17.0857C6.39036 16.3889 6.39036 15.4932 6.82892 14.7964L10.0776 7.85769C10.5749 7.10057 11.412 6.65298 12.3019 6.66835H16.2527H20.2033C21.0932 6.65298 21.9303 7.10057 22.4276 7.85769L25.6699 14.791C26.1084 15.4878 26.1084 16.3836 25.6699 17.0804L22.4068 24.135C21.9099 24.9 21.0669 25.3524 20.1708 25.335H12.3331C11.4375 25.352 10.5951 24.8996 10.0984 24.135Z" stroke="black" stroke-width="1.5" stroke-linecap="round" stroke-linejoin="round"/>
</svg>
