<svg width="36" height="37" viewBox="0 0 36 37" fill="none" xmlns="http://www.w3.org/2000/svg">
<path d="M7.5 18.5H6V30.5C6 31.2956 6.31607 32.0587 6.87868 32.6213C7.44129 33.1839 8.20435 33.5 9 33.5H16.5V18.5H7.5ZM27 18.5H19.5V33.5H27C27.7956 33.5 28.5587 33.1839 29.1213 32.6213C29.6839 32.0587 30 31.2956 30 30.5V18.5H27ZM28.1865 11C28.4065 10.2707 28.5123 9.51169 28.5 8.75C28.5 5.855 26.145 3.5 23.25 3.5C20.817 3.5 19.1925 5.723 18.144 8.1275C17.1105 5.855 15.4035 3.5 12.75 3.5C9.855 3.5 7.5 5.855 7.5 8.75C7.5 9.644 7.6185 10.3835 7.8135 11H3V17H16.5V14H19.5V17H33V11H28.1865ZM10.5 8.75C10.5 7.5095 11.5095 6.5 12.75 6.5C14.082 6.5 15.321 8.7875 16.047 11H12C11.439 11 10.5 11 10.5 8.75ZM23.25 6.5C24.4905 6.5 25.5 7.5095 25.5 8.75C25.5 11 24.561 11 24 11H20.2845C21.0495 8.636 22.161 6.5 23.25 6.5Z" fill="white"/>
</svg>
