<svg width="19" height="21" viewBox="0 0 19 21" fill="none" xmlns="http://www.w3.org/2000/svg">
<path d="M3.25147 20C2.00804 20 1 18.9656 1 17.6884V8.39751C1 7.69558 1.31138 7.03059 1.84443 6.59254L8.03728 1.50695C8.43296 1.17929 8.93058 1 9.44431 1C9.95805 1 10.4557 1.17929 10.8513 1.50695L17.0431 6.59254C17.5772 7.03059 17.8886 7.69558 17.8886 8.39751V17.6884C17.8886 18.9656 16.8806 20 15.6372 20H3.25147Z" stroke="black" stroke-width="1.58331" stroke-linecap="round" stroke-linejoin="round"/>
<path d="M6.80566 20.0005V14.1951C6.80566 13.6352 7.02808 13.0982 7.42399 12.7023C7.81989 12.3064 8.35685 12.084 8.91674 12.084H9.97228C10.5322 12.084 11.0691 12.3064 11.465 12.7023C11.8609 13.0982 12.0834 13.6352 12.0834 14.1951V20.0005" stroke="black" stroke-width="1.58331" stroke-linecap="round" stroke-linejoin="round"/>
</svg>
