<svg width="16" height="17" viewBox="0 0 16 17" fill="none" xmlns="http://www.w3.org/2000/svg">
<path d="M3.1663 5.20363C3.06938 6.06496 3.00137 7.58928 3.61181 8.2381C3.61181 8.2381 3.32444 6.56362 5.90055 4.46272C6.9378 3.61698 7.17755 2.46666 6.81537 1.60391C6.60962 1.11517 6.23383 0.711423 5.90735 0.429509C5.71691 0.26376 5.86314 -0.00965413 6.14031 0.000262445C7.8169 0.0625952 10.5341 0.450758 11.6887 2.86474C12.1954 3.92439 12.2328 5.01947 11.9914 6.13296C11.8384 6.84412 11.2942 8.4251 12.5355 8.61918C13.4214 8.75802 13.8499 8.17152 14.0421 7.74936C14.122 7.57369 14.3992 7.52978 14.5488 7.67003C16.0451 9.0881 16.1727 10.7583 15.8632 12.1962C15.2647 14.9757 11.886 16.9987 8.52937 16.9987C4.33618 16.9987 0.998292 14.9998 0.132787 11.3817C-0.215795 9.92109 -0.0389532 7.03112 2.66469 4.99113C2.86533 4.83814 3.19351 4.97413 3.1663 5.20363Z" fill="url(#paint0_radial_2188_4003)"/>
<path d="M10.0624 10.4008C8.51676 8.74327 9.20883 6.85204 9.58802 6.09838C9.63903 5.99922 9.503 5.90572 9.39587 5.96663C8.73101 6.34346 7.36899 7.23029 6.73474 8.47836C5.87604 10.1656 5.93725 10.9915 6.44567 12.0002C6.75175 12.6079 6.39636 12.7368 6.21782 12.7595C6.04438 12.7822 5.88454 12.6858 5.75701 12.5852C5.3902 12.2917 5.12877 11.9189 5.00203 11.5086C4.97482 11.4207 4.83709 11.3967 4.77418 11.4689C4.29806 12.0172 4.05151 12.8969 4.0396 13.5188C4.0022 15.4412 5.90835 16.9995 8.21409 16.9995C11.1201 16.9995 13.2371 14.3221 11.5673 12.0837C11.0827 11.4321 10.627 11.0057 10.0624 10.4008Z" fill="url(#paint1_radial_2188_4003)"/>
<defs>
<radialGradient id="paint0_radial_2188_4003" cx="0" cy="0" r="1" gradientUnits="userSpaceOnUse" gradientTransform="translate(7.69886 17.0427) rotate(-179.793) scale(12.0027 16.4078)">
<stop offset="0.314"/>
<stop offset="0.662"/>
<stop offset="0.972" stop-color="#F44336"/>
</radialGradient>
<radialGradient id="paint1_radial_2188_4003" cx="0" cy="0" r="1" gradientUnits="userSpaceOnUse" gradientTransform="translate(8.37392 7.09123) rotate(90.6946) scale(10.4631 9.45104)">
<stop offset="0.214" stop-color="#FFF176"/>
<stop offset="0.328" stop-color="#FFF27D"/>
<stop offset="0.487" stop-color="#FFF48F"/>
<stop offset="0.672" stop-color="#FFF7AD"/>
<stop offset="0.793" stop-color="#FFF9C4"/>
<stop offset="0.822" stop-color="#FFF8BD" stop-opacity="0.804"/>
<stop offset="0.863" stop-color="#FFF6AB" stop-opacity="0.529"/>
<stop offset="0.91" stop-color="#FFF38D" stop-opacity="0.209"/>
<stop offset="0.941" stop-color="#FFF176" stop-opacity="0"/>
</radialGradient>
</defs>
</svg>
