<svg width="32" height="32" viewBox="0 0 32 32" fill="none" xmlns="http://www.w3.org/2000/svg">
<path d="M14.7039 3.41705C15.3031 2.41632 16.6976 2.41632 17.2967 3.41705L20.8149 9.29359C21.0248 9.64416 21.3565 9.89607 21.7403 9.99639L28.1743 11.6781C29.2699 11.9644 29.7008 13.3508 28.9755 14.2556L24.7159 19.5692C24.4618 19.8862 24.3351 20.2938 24.3625 20.7063L24.8206 27.6222C24.8986 28.7999 23.7704 29.6567 22.723 29.2152L16.5723 26.6227C16.2053 26.468 15.7953 26.468 15.4284 26.6227L9.27764 29.2152C8.23021 29.6567 7.10203 28.7999 7.18005 27.6222L7.63818 20.7063C7.66551 20.2938 7.53882 19.8862 7.28471 19.5692L3.0252 14.2556C2.29983 13.3508 2.73076 11.9644 3.82641 11.6781L10.2603 9.99639C10.6441 9.89607 10.9758 9.64416 11.1857 9.29359L14.7039 3.41705Z" fill="#FFE55A"/>
</svg>
