<svg width="24" height="25" viewBox="0 0 24 25" fill="none" xmlns="http://www.w3.org/2000/svg">
<path d="M9.6845 24.067C8.77738 24.067 7.98365 23.7269 7.4167 23.1599L0.953466 16.6967C-0.407215 15.336 -0.293825 13.0682 1.18025 11.7075L10.9318 1.95598C11.272 1.61581 11.7255 1.38903 12.1791 1.27564L18.8691 0.0283475C19.5494 -0.0850426 20.3432 0.141738 20.9101 0.708688L23.2913 3.08988C23.8583 3.65683 24.085 4.33717 23.9716 5.01751L22.8377 11.8209C22.7244 12.2745 22.4976 12.728 22.1574 13.0682L12.4059 22.8198C11.6121 23.7269 10.5916 24.067 9.6845 24.067ZM20.003 1.61581L19.2093 2.40954L12.4059 3.65683L2.65432 13.4084C2.08737 13.9753 1.97398 14.7691 2.42754 15.2226L8.89077 21.6859C9.11755 21.9126 9.45772 22.026 9.6845 21.9126C10.0247 21.9126 10.3648 21.6859 10.705 21.4591L20.4566 11.7075L21.5905 4.90412L19.2093 2.52293L20.003 1.61581Z" fill="black"/>
<path d="M17.8478 5.13086C17.1674 5.13086 16.7139 5.58442 16.7139 6.26476C16.7139 6.9451 17.1674 7.39866 17.8478 7.39866C18.5281 7.39866 18.9817 6.9451 18.9817 6.26476C18.9817 5.58442 18.5281 5.13086 17.8478 5.13086Z" fill="black"/>
</svg>
