<svg width="15" height="14" viewBox="0 0 15 14" fill="none" xmlns="http://www.w3.org/2000/svg">
<path d="M0.666992 7.33323C0.666992 6.97961 0.807468 6.64047 1.05752 6.39042C1.30756 6.14038 1.6467 5.9999 2.00033 5.9999C2.53076 5.9999 3.03947 6.21061 3.41454 6.58569C3.78961 6.96076 4.00033 7.46947 4.00033 7.9999V10.6666C4.00033 11.197 3.78961 11.7057 3.41454 12.0808C3.03947 12.4559 2.53076 12.6666 2.00033 12.6666C1.6467 12.6666 1.30756 12.5261 1.05752 12.276C0.807468 12.026 0.666992 11.6869 0.666992 11.3332V7.33323ZM9.65299 4.2039L9.47499 4.77723C9.32966 5.24723 9.25699 5.4819 9.31299 5.6679C9.36013 5.81881 9.45937 5.94806 9.59299 6.03257C9.76033 6.1379 10.013 6.1379 10.5197 6.1379H10.789C12.5023 6.1379 13.359 6.1379 13.7637 6.64457C13.8099 6.70279 13.851 6.76435 13.887 6.82923C14.1983 7.39457 13.8443 8.15657 13.1363 9.68057C12.487 11.0792 12.1617 11.7786 11.559 12.1899C11.5003 12.2299 11.4403 12.2677 11.379 12.3032C10.7443 12.6666 9.95766 12.6666 8.38433 12.6666H8.04366C6.13699 12.6666 5.18433 12.6666 4.59233 12.0932C4.00033 11.5192 4.00033 10.5959 4.00033 8.74923V8.0999C4.00033 7.1299 4.00033 6.64457 4.17233 6.1999C4.34499 5.7559 4.67433 5.39123 5.33433 4.66057L8.06166 1.64057C8.13033 1.56457 8.16433 1.52723 8.19499 1.50057C8.33136 1.38301 8.50834 1.32352 8.68803 1.33486C8.86772 1.3462 9.03582 1.42746 9.15633 1.56123C9.18299 1.59123 9.21166 1.63323 9.26966 1.71723C9.35966 1.8479 9.40433 1.91323 9.44366 1.97857C9.79566 2.55923 9.90166 3.24923 9.74099 3.90523C9.72299 3.9779 9.69966 4.05323 9.65299 4.2039Z" stroke="#FF4B4B" stroke-width="1.125" stroke-linecap="round" stroke-linejoin="round"/>
</svg>
