<svg width="36" height="37" viewBox="0 0 36 37" fill="none" xmlns="http://www.w3.org/2000/svg">
<path d="M12.3804 11.5509V13.5636L9.71301 13.8663V11.5807C9.71873 10.7443 9.85385 9.93726 10.0996 9.17795C10.1118 9.09823 10.1321 9.01919 10.1609 8.94181C11.0043 6.57643 12.8982 4.77064 15.2365 3.96353C16.0983 3.66342 17.025 3.5 17.9895 3.5C17.993 3.5 17.9965 3.5 18 3.50001C18.0035 3.5 18.007 3.5 18.0105 3.5C18.975 3.5 19.9017 3.66342 20.7635 3.96352C23.1018 4.77063 24.9957 6.57642 25.8391 8.94181C25.8679 9.01919 25.8882 9.09823 25.9004 9.17795C26.1462 9.93726 26.2813 10.7443 26.287 11.5807V13.8663L23.6196 13.5636V11.5509C23.6166 10.9533 23.5141 10.3776 23.3272 9.83882C23.3208 9.82375 23.3148 9.80852 23.3089 9.79311C23.2648 9.66773 23.2163 9.54471 23.1636 9.42418C22.3035 7.48482 20.3184 6.11692 18 6.10912C15.6816 6.11692 13.6965 7.48486 12.8364 9.42426C12.7837 9.54476 12.7352 9.66776 12.6911 9.79311C12.6852 9.80851 12.6792 9.82375 12.6728 9.83881C12.4859 10.3776 12.3834 10.9533 12.3804 11.5509Z" fill="white"/>
<path d="M24.3468 13.5666C27.883 13.5666 30.75 16.371 30.75 19.8299V27.2367C30.75 30.6956 27.883 33.5 24.3468 33.5H11.6532C8.11703 33.5 5.25 30.6956 5.25 27.2367V19.8299C5.25 16.371 8.11703 13.5666 11.6532 13.5666H24.3468ZM17.9924 20.5738C17.2608 20.5738 16.6663 21.1553 16.6663 21.8709V25.1807C16.6663 25.9113 17.2608 26.4927 17.9924 26.4927C18.7392 26.4927 19.3337 25.9113 19.3337 25.1807V21.8709C19.3337 21.1553 18.7392 20.5738 17.9924 20.5738Z" fill="white"/>
</svg>
