<svg width="17" height="19" viewBox="0 0 17 19" fill="none" xmlns="http://www.w3.org/2000/svg">
<path fill-rule="evenodd" clip-rule="evenodd" d="M1.84315 7.00076C1.84315 5.14404 2.5445 3.36337 3.7929 2.05047C5.0413 0.737578 6.73449 0 8.5 0C10.2655 0 11.9587 0.737578 13.2071 2.05047C14.4555 3.36337 15.1568 5.14404 15.1568 7.00076V10.7652L16.8895 14.4096C16.9693 14.5773 17.007 14.7637 16.9989 14.951C16.9909 15.1384 16.9375 15.3205 16.8437 15.48C16.75 15.6395 16.619 15.7712 16.4632 15.8625C16.3075 15.9538 16.1321 16.0018 15.9538 16.0017H12.1841C11.9726 16.8601 11.496 17.6202 10.8292 18.1629C10.1624 18.7056 9.34313 19 8.5 19C7.65686 19 6.8376 18.7056 6.1708 18.1629C5.50401 17.6202 5.02744 16.8601 4.81591 16.0017H1.04623C0.867902 16.0018 0.692526 15.9538 0.536761 15.8625C0.380995 15.7712 0.250013 15.6395 0.156253 15.48C0.0624936 15.3205 0.00907016 15.1384 0.00105681 14.951C-0.00695654 14.7637 0.0307064 14.5773 0.110468 14.4096L1.84315 10.7652V7.00076ZM6.8529 16.0017C7.01984 16.3058 7.25994 16.5583 7.54906 16.7338C7.83819 16.9093 8.16615 17.0018 8.5 17.0018C8.83385 17.0018 9.16181 16.9093 9.45094 16.7338C9.74006 16.5583 9.98016 16.3058 10.1471 16.0017H6.8529ZM8.5 2.00022C7.23892 2.00022 6.0295 2.52706 5.13778 3.46484C4.24607 4.40262 3.74511 5.67453 3.74511 7.00076V10.7652C3.74509 11.0755 3.67639 11.3816 3.54445 11.6593L2.43181 14.0015H14.5691L13.4565 11.6593C13.3242 11.3817 13.2552 11.0756 13.2549 10.7652V7.00076C13.2549 5.67453 12.7539 4.40262 11.8622 3.46484C10.9705 2.52706 9.76108 2.00022 8.5 2.00022Z" fill="black"/>
</svg>
