<svg width="32" height="28" viewBox="0 0 32 28" fill="none" xmlns="http://www.w3.org/2000/svg">
<path d="M13.3333 11.6667C16.2789 11.6667 18.6667 9.57732 18.6667 6.99999C18.6667 4.42267 16.2789 2.33333 13.3333 2.33333C10.3878 2.33333 8 4.42267 8 6.99999C8 9.57732 10.3878 11.6667 13.3333 11.6667Z" stroke="#777777"/>
<path d="M28.0001 11.6667H25.3334H22.6667" stroke="#777777" stroke-width="2" stroke-linecap="round"/>
<path d="M23.9967 21C24.0001 20.8084 24.0001 20.6138 24.0001 20.4167C24.0001 17.5172 19.2245 15.1667 13.3334 15.1667C7.44237 15.1667 2.66675 17.5172 2.66675 20.4167C2.66675 23.3162 2.66675 25.6667 13.3334 25.6667C16.3081 25.6667 18.4531 25.4839 20.0001 25.1573" stroke="#777777" stroke-width="2" stroke-linecap="round"/>
</svg>
