<svg width="21" height="21" viewBox="0 0 21 21" fill="none" xmlns="http://www.w3.org/2000/svg">
<path d="M16.798 18.2162C16.7833 19.0828 15.4941 19.0827 15.4795 18.2162C15.4943 17.3497 16.7834 17.3499 16.798 18.2162Z" fill="#733617"/>
<path d="M18.6685 12.1698L16.9626 14.934C13.714 13.8602 15.93 11.8572 15.7386 9.38477C17.2121 10.3464 17.9557 10.9661 18.5206 11.883C18.5763 11.9752 18.6257 12.071 18.6685 12.1698Z" fill="#77A226"/>
<path d="M17.8708 13.4534C17.8708 13.8819 17.4004 13.8602 17.3185 13.5663C17.2126 13.1881 16.9703 12.576 16.7434 12.217C16.5384 11.8897 17.0356 11.5749 17.2434 11.9012C17.3753 12.1555 17.8708 12.9841 17.8708 13.4534Z" fill="#679522"/>
<path d="M18.6684 12.1735C18.1004 13.0953 17.5317 14.0167 16.9625 14.9378C16.8447 14.8986 16.7284 14.8553 16.6138 14.8077C16.3694 13.9323 17.0266 13.2242 17.6603 12.7175C17.6781 12.6997 17.6988 12.682 17.7165 12.6672C18.0003 12.4218 18.293 12.1735 18.5206 11.8867C18.5763 11.9789 18.6256 12.0747 18.6684 12.1735Z" fill="#658920"/>
<path d="M17.871 13.4559C17.8917 13.838 17.4241 13.8957 17.3181 13.5683C17.2789 13.428 17.2326 13.2898 17.1792 13.1543C17.33 13.0006 17.4955 12.8558 17.6611 12.7168C17.7762 12.98 17.871 13.2519 17.871 13.4559Z" fill="#567C1C"/>
<path d="M14.6734 9.70533C14.3895 11.902 11.4715 15.4822 7.06936 16.6175C3.03289 17.7488 1.24547 14.2503 0.916992 12.0585L12.9113 6.14258C13.3704 6.49826 14.9457 8.43855 14.6734 9.70533Z" fill="#8C421C"/>
<path d="M9.05163 15.0235C6.78964 16.3351 4.0828 16.5259 2.07144 14.9643C1.19634 13.7108 0.947986 12.2562 0.921387 12.0788C1.39737 14.6155 4.67017 16.827 8.75895 14.509C13.7849 11.659 14.3555 7.62346 12.9453 6.17773C13.0961 6.32261 13.7287 6.9494 14.1929 7.76834C14.3644 9.93836 12.9009 12.8386 9.05163 15.0235Z" fill="#733617"/>
<path d="M8.75895 14.5075C4.67017 16.8253 1.39737 14.6139 0.921385 12.0772C0.921385 12.0713 0.918425 12.0654 0.918425 12.0595C0.806447 11.4627 0.862745 10.8464 1.08102 10.2797C2.31683 7.10744 6.91116 9.22723 8.66748 7.32328C10.4384 5.40453 12.0378 5.29217 12.9128 6.14363C14.3795 7.60707 13.7975 11.6379 8.75895 14.5075Z" fill="#FD9133"/>
<path d="M11.726 12.2103C4.57416 19.6584 -1.86152 12.4593 2.01698 9.04102C-0.082453 12.2656 4.02311 16.928 9.34896 13.9163C10.2035 13.4397 11.001 12.8674 11.726 12.2103Z" fill="#FD8115"/>
<path d="M5.38261 14.3026C3.45745 14.3936 1.50439 12.5639 2.17841 10.7094C2.94626 8.54639 7.6199 10.3927 9.53257 8.12721C10.8532 6.73971 12.0378 6.31907 12.36 7.51604C12.6911 8.77082 11.8491 11.3944 8.17277 13.4792C7.20899 14.0256 6.2704 14.3026 5.38261 14.3026Z" fill="#DE4C3C"/>
<path d="M10.8851 11.3707C9.77322 12.6286 7.26251 14.3741 5.38317 14.3005C3.4585 14.3922 1.50431 12.5622 2.17837 10.7085C2.32621 10.333 2.54496 10.0787 2.87019 9.9043C1.92543 11.5035 3.74322 13.8155 5.97444 13.7092C7.60567 13.776 9.72655 12.4451 10.8851 11.3707Z" fill="#D73624"/>
<path d="M5.45911 11.4509C5.57483 12.4609 3.5745 12.7467 3.40278 11.745C3.28706 10.735 5.28739 10.4492 5.45911 11.4509Z" fill="#E5E5E5"/>
<path d="M5.37468 11.8649C4.99921 12.5183 3.5476 12.5922 3.40273 11.7467C3.36725 11.4333 3.53284 11.1909 3.78412 11.0371C3.70995 11.1616 3.67976 11.3073 3.6984 11.451C3.81664 12.1428 4.81001 12.2197 5.37468 11.8649Z" fill="#D6D6D6"/>
<path d="M3.60084 7.76997C3.54652 7.77001 3.49324 7.75509 3.44685 7.72685C3.40046 7.6986 3.36274 7.65812 3.33785 7.60985C2.71017 6.39321 3.05028 5.1913 3.35025 4.13086C3.63924 3.10926 3.88897 2.22695 3.35488 1.43039C3.14155 1.111 3.62877 0.779237 3.84627 1.10127C5.171 3.11263 2.77869 5.29506 3.8633 7.33866C3.88603 7.38377 3.89691 7.43393 3.89489 7.4844C3.89287 7.53488 3.87803 7.58401 3.85177 7.62716C3.82551 7.67031 3.7887 7.70607 3.74479 7.73105C3.70089 7.75604 3.65135 7.76943 3.60084 7.76997ZM5.62388 7.17866C5.57164 7.17873 5.52031 7.16495 5.47513 7.13874C5.42994 7.11252 5.39251 7.07479 5.36664 7.02941C4.1398 5.01492 6.46208 3.0263 5.38607 1.4417C5.15734 1.13212 5.62984 0.77875 5.8612 1.08979C7.20515 2.91119 4.81422 4.88716 5.88054 6.73665C5.99566 6.92577 5.84324 7.18458 5.62388 7.17866ZM7.64692 6.55204C7.59731 6.5521 7.54849 6.53968 7.50494 6.51591C7.4614 6.49215 7.42454 6.4578 7.39776 6.41604C6.15773 4.61792 8.47498 2.77244 7.41977 1.45521C7.17288 1.15921 7.62539 0.779683 7.87358 1.07645C9.23468 2.72674 6.85628 4.44673 7.89552 6.09693C8.02446 6.28507 7.87269 6.55861 7.64692 6.55204Z" fill="#4398D1"/>
<path d="M14.7852 6.73277C14.7136 6.73273 14.6444 6.70669 14.5906 6.65947C14.5367 6.61226 14.5018 6.5471 14.4924 6.47611C14.1448 3.86293 13.1294 2.34743 11.3879 1.84293C11.0184 1.73536 11.1793 1.1683 11.5524 1.27502C13.5432 1.8519 14.6965 3.52761 15.0785 6.39813C15.084 6.43989 15.0805 6.48235 15.0683 6.52266C15.0561 6.56297 15.0354 6.60021 15.0076 6.63188C14.9799 6.66356 14.9457 6.68894 14.9073 6.70634C14.8689 6.72374 14.8273 6.73275 14.7852 6.73277Z" fill="#679522"/>
<path d="M14.6847 6.10475C14.6977 6.14644 13.4994 5.68638 13.4721 5.68306C13.1099 5.54962 13.3097 4.99695 13.6742 5.12727L14.5049 5.42911L15.0681 3.82878C15.1975 3.46543 15.7529 3.65929 15.626 4.02511L14.9637 5.90708C14.9432 5.96474 14.9054 6.01467 14.8555 6.05005C14.8055 6.08543 14.7459 6.10453 14.6847 6.10475Z" fill="#679522"/>
<path d="M14.2165 4.46459C14.201 4.46461 14.1855 4.46341 14.1703 4.46098L12.6406 4.21948C12.2591 4.15752 12.3513 3.57692 12.733 3.63559L13.9621 3.82961L14.1466 2.39325C14.1957 2.01089 14.7809 2.08396 14.7333 2.46863L14.5098 4.20683C14.5002 4.27794 14.4653 4.3432 14.4114 4.39057C14.3575 4.43794 14.2882 4.46423 14.2165 4.46459Z" fill="#679522"/>
<path d="M13.4129 3.10681C13.4019 3.10924 12.0929 3.03885 12.0799 3.03998C11.6933 3.01935 11.7251 2.42922 12.11 2.44957L13.0881 2.4988L12.9807 1.29283C12.9477 0.906978 13.5366 0.856334 13.5697 1.24012L13.7076 2.78474C13.7109 2.82558 13.7058 2.86667 13.6926 2.90545C13.6793 2.94423 13.6582 2.97985 13.6306 3.01009C13.6029 3.04033 13.5693 3.06452 13.5319 3.08117C13.4944 3.09781 13.4539 3.10654 13.4129 3.10681Z" fill="#679522"/>
<path d="M16.4682 8.80076C16.4261 8.80071 16.3845 8.79169 16.3461 8.77428C16.3078 8.75688 16.2736 8.7315 16.2458 8.69983C16.2181 8.66817 16.1974 8.63095 16.1852 8.59065C16.1729 8.55036 16.1694 8.50792 16.1749 8.46616C16.5569 5.5956 17.7103 3.91988 19.701 3.34301C20.0724 3.23828 20.2372 3.80063 19.8656 3.91105C18.1241 4.41558 17.1087 5.93105 16.7611 8.54422C16.7516 8.6152 16.7167 8.68035 16.6629 8.72754C16.609 8.77473 16.5398 8.80075 16.4682 8.80076Z" fill="#77A226"/>
<path d="M16.5693 8.17326C16.5081 8.17304 16.4485 8.15396 16.3986 8.11861C16.3487 8.08326 16.3109 8.03337 16.2904 7.97575L15.6281 6.09357C15.5013 5.72864 16.0559 5.53312 16.1859 5.89724L16.7491 7.49757L17.5798 7.19574C17.9439 7.06513 18.1445 7.61804 17.7819 7.75152C17.7507 7.75712 16.5618 8.21182 16.5693 8.17326Z" fill="#77A226"/>
<path d="M17.0401 6.53327C16.9683 6.53291 16.8991 6.5066 16.8452 6.45918C16.7913 6.41177 16.7563 6.34646 16.7468 6.27531L16.5233 4.53711C16.4754 4.15289 17.063 4.07868 17.11 4.46178L17.2945 5.89809L18.5235 5.70407C18.906 5.64609 18.9973 6.22612 18.6159 6.28816L17.0863 6.52966C17.071 6.53209 17.0556 6.5333 17.0401 6.53327Z" fill="#77A226"/>
<path d="M17.8409 5.17502C17.8 5.17474 17.7595 5.166 17.7221 5.14935C17.6846 5.13271 17.6511 5.10852 17.6234 5.0783C17.5958 5.04808 17.5747 5.01248 17.5614 4.97372C17.5482 4.93497 17.5431 4.89389 17.5464 4.85307L17.6843 3.30845C17.7198 2.92512 18.3059 2.97487 18.2733 3.36117L18.1659 4.56713L19.144 4.51791C19.5343 4.49455 19.5576 5.08934 19.174 5.10832C19.1518 5.1069 17.8623 5.17636 17.8409 5.17502Z" fill="#77A226"/>
<path d="M16.1181 16.2813C16.0463 18.7737 12.8005 18.7732 12.729 16.2813C12.8008 13.7889 16.0466 13.7892 16.1181 16.2813Z" fill="#679522"/>
<path d="M15.7093 17.5173C14.8253 18.6643 12.7853 18.2504 12.729 16.2814C12.7497 15.563 13.0364 15.0516 13.4326 14.75C13.1932 15.0516 13.0393 15.4655 13.0246 15.9858C13.075 17.7596 14.7306 18.2711 15.7093 17.5173Z" fill="#567C1C"/>
<path d="M13.8964 17.0886C13.8359 17.0886 13.7769 17.07 13.7273 17.0354C13.6777 17.0008 13.6399 16.9518 13.619 16.895C13.2364 15.8559 13.5913 15.3406 13.9562 15.0913C14.2765 14.8755 14.6084 15.3595 14.2899 15.5795C14.175 15.6579 13.8701 15.866 14.1739 16.6905C14.19 16.7352 14.1952 16.7832 14.189 16.8303C14.1828 16.8774 14.1653 16.9224 14.1382 16.9614C14.111 17.0003 14.0748 17.0323 14.0328 17.0544C13.9907 17.0765 13.944 17.0883 13.8964 17.0886Z" fill="#77A226"/>
<path d="M9.69265 19.1631C8.29741 16.7343 11.4055 14.8283 12.9378 17.1722C14.3329 19.601 11.2247 21.5071 9.69265 19.1631Z" fill="#FDB62F"/>
<path d="M13.0162 19.356C12.3629 20.4115 10.6925 20.6894 9.69316 19.1609C8.99841 17.9517 9.41824 16.8726 10.2076 16.3848C9.85888 16.9465 9.79959 17.7269 10.2846 18.5696C11.0531 19.7462 12.2209 19.8527 13.0162 19.356Z" fill="#FDAB11"/>
<path d="M12.1342 18.7201C12.0941 18.7201 12.0543 18.7119 12.0175 18.6961C11.9806 18.6803 11.9473 18.6571 11.9196 18.628C11.892 18.5989 11.8705 18.5645 11.8566 18.5269C11.8427 18.4893 11.8365 18.4492 11.8385 18.4091C11.8634 17.9334 11.6627 17.6042 11.2074 17.3725C10.864 17.1966 11.1295 16.671 11.4753 16.8456C12.1359 17.1815 12.4656 17.7326 12.4292 18.4397C12.4252 18.5153 12.3924 18.5865 12.3375 18.6387C12.2827 18.6908 12.2099 18.7199 12.1342 18.7201Z" fill="#FDC04C"/>
<path d="M17.569 17.392C17.5543 18.2586 16.2651 18.2585 16.2505 17.392C16.2652 16.5255 17.5543 16.5256 17.569 17.392Z" fill="#A64E21"/>
<path d="M19.2507 17.4565C19.2359 18.3231 17.9468 18.323 17.9321 17.4565C17.9469 16.5899 19.2359 16.5901 19.2507 17.4565Z" fill="#733617"/>
<path d="M19.0495 18.1655C19.0348 19.0321 17.7456 19.032 17.731 18.1655C17.7457 17.2989 19.0349 17.2991 19.0495 18.1655Z" fill="#A64E21"/>
<path d="M18.0378 18.2612C18.023 19.1278 16.7339 19.1276 16.7192 18.2612C16.734 17.3946 18.0231 17.3948 18.0378 18.2612Z" fill="#C05A26"/>
<path d="M17.7807 16.1686C19.4432 15.8889 20.5984 15.0978 19.0647 11.5996C18.1999 13.3013 15.4422 13.5553 17.7807 16.1686Z" fill="#77A226"/>
<path d="M17.7462 16.5479C17.5022 16.5556 17.3541 16.2394 17.5232 16.0578C18.081 15.4187 18.3524 14.7516 18.3769 13.9585C18.3775 13.9195 18.3859 13.881 18.4016 13.8452C18.4174 13.8095 18.4401 13.7774 18.4686 13.7506C18.497 13.7239 18.5306 13.7032 18.5672 13.6897C18.6038 13.6763 18.6428 13.6703 18.6818 13.6722C19.5204 13.7048 18.3389 16.5314 17.7462 16.5479Z" fill="#679522"/>
<path d="M8.15678 11.9691C8.63236 11.9691 8.63317 11.23 8.15678 11.23C7.6812 11.23 7.68043 11.9691 8.15678 11.9691ZM11.0499 8.88363C11.5255 8.88363 11.5262 8.14453 11.0499 8.14453C10.5743 8.14453 10.5735 8.88363 11.0499 8.88363Z" fill="#8C421C"/>
<path d="M17.7858 16.4136C17.7711 17.2801 16.4819 17.28 16.4673 16.4136C16.482 15.547 17.7712 15.5471 17.7858 16.4136Z" fill="#733617"/>
<path d="M18.3879 17.2339C18.3731 18.1004 17.0839 18.1003 17.0693 17.2339C17.0839 16.3673 18.3733 16.3674 18.3879 17.2339Z" fill="#8C421C"/>
<path d="M19.069 16.7124C19.0543 17.579 17.7651 17.5789 17.7505 16.7124C17.7652 15.8458 19.0543 15.846 19.069 16.7124Z" fill="#A64E21"/>
</svg>
