<svg width="21" height="21" viewBox="0 0 21 21" fill="none" xmlns="http://www.w3.org/2000/svg">
<path d="M17.2438 18.6459C17.2279 19.5827 15.8342 19.5826 15.8184 18.6459C15.8343 17.7091 17.228 17.7093 17.2438 18.6459Z" fill="#733617"/>
<path d="M19.2646 12.1104L17.4204 15.0988C13.9084 13.9379 16.304 11.7725 16.0971 9.09961C17.6901 10.1392 18.494 10.8092 19.1047 11.8004C19.1649 11.9 19.2183 12.0036 19.2646 12.1104Z" fill="#77A226"/>
<path d="M18.4022 13.4987C18.4022 13.9618 17.8937 13.9384 17.8051 13.6207C17.6906 13.2118 17.4287 12.5501 17.1833 12.162C16.9618 11.8081 17.4993 11.4678 17.724 11.8205C17.8665 12.0955 18.4022 12.9912 18.4022 13.4987Z" fill="#679522"/>
<path d="M19.264 12.1128C18.6499 13.1093 18.0352 14.1055 17.4198 15.1012C17.2925 15.0589 17.1667 15.012 17.0428 14.9605C16.7787 14.0142 17.4891 13.2487 18.1742 12.7008C18.1934 12.6817 18.2158 12.6625 18.235 12.6465C18.5418 12.3812 18.8582 12.1128 19.1043 11.8027C19.1644 11.9024 19.2178 12.006 19.264 12.1128Z" fill="#658920"/>
<path d="M18.4022 13.4983C18.4246 13.9114 17.9191 13.9737 17.8045 13.6197C17.7621 13.4681 17.712 13.3187 17.6543 13.1722C17.8173 13.0061 17.9962 12.8495 18.1753 12.6992C18.2997 12.9837 18.4022 13.2778 18.4022 13.4983Z" fill="#567C1C"/>
<path d="M14.9451 9.44539C14.6382 11.8201 11.4836 15.6907 6.72447 16.9181C2.3607 18.1411 0.428353 14.3589 0.0732422 11.9893L13.0401 5.59375C13.5364 5.97827 15.2395 8.07589 14.9451 9.44539Z" fill="#8C421C"/>
<path d="M8.8676 15.1939C6.4222 16.6118 3.49588 16.8181 1.32143 15.1299C0.375373 13.7747 0.106881 12.2022 0.078125 12.0104C0.592709 14.7528 4.13088 17.1436 8.5512 14.6377C13.9847 11.5566 14.6015 7.19381 13.077 5.63086C13.24 5.78748 13.924 6.46509 14.4258 7.35043C14.6111 9.69642 13.029 12.8319 8.8676 15.1939Z" fill="#733617"/>
<path d="M8.55062 14.6369C4.1303 17.1427 0.592126 14.752 0.0775423 12.0096C0.0775423 12.0032 0.0743423 11.9968 0.0743423 11.9905C-0.0467148 11.3452 0.0141482 10.679 0.250122 10.0664C1.58614 6.63685 6.55299 8.92852 8.45173 6.87019C10.3662 4.79585 12.0954 4.67439 13.0413 5.59489C14.6269 7.17699 13.9977 11.5347 8.55062 14.6369Z" fill="#FD9133"/>
<path d="M11.7588 12.1529C4.02708 20.2049 -2.93043 12.4221 1.26255 8.72656C-1.00711 12.2127 3.43135 17.253 9.18905 13.9971C10.1129 13.4819 10.975 12.8632 11.7588 12.1529Z" fill="#FD8115"/>
<path d="M4.90295 14.4137C2.82169 14.512 0.710271 12.534 1.43895 10.5291C2.26906 8.19073 7.32166 10.1868 9.38942 7.73756C10.8171 6.23756 12.0978 5.78281 12.4461 7.07683C12.8041 8.43336 11.8938 11.2697 7.91935 13.5235C6.87743 14.1143 5.86273 14.4137 4.90295 14.4137Z" fill="#DE4C3C"/>
<path d="M10.8516 11.2455C9.64958 12.6054 6.93529 14.4924 4.90356 14.4129C2.82283 14.5119 0.710181 12.5335 1.4389 10.5295C1.59872 10.1236 1.83522 9.84874 2.18682 9.66016C1.16546 11.389 3.13064 13.8885 5.54277 13.7736C7.30627 13.8458 9.59912 12.407 10.8516 11.2455Z" fill="#D73624"/>
<path d="M4.98415 11.3315C5.10926 12.4234 2.94672 12.7323 2.76108 11.6494C2.63598 10.5576 4.79851 10.2486 4.98415 11.3315Z" fill="#E5E5E5"/>
<path d="M4.88994 11.7797C4.48403 12.4861 2.91472 12.566 2.75809 11.6519C2.71974 11.3131 2.89876 11.051 3.17041 10.8848C3.09023 11.0193 3.05759 11.1769 3.07774 11.3322C3.20557 12.0802 4.27949 12.1633 4.88994 11.7797Z" fill="#D6D6D6"/>
<path d="M2.97504 7.35269C2.91632 7.35274 2.85872 7.33661 2.80857 7.30608C2.75841 7.27554 2.71764 7.23178 2.69073 7.17959C2.01215 5.86431 2.37984 4.56494 2.70414 3.41851C3.01655 2.31408 3.28654 1.36022 2.70914 0.499073C2.47852 0.153782 3.00524 -0.20488 3.24038 0.143261C4.67252 2.31772 2.08624 4.67711 3.25879 6.88642C3.28336 6.93519 3.29512 6.98941 3.29294 7.04398C3.29076 7.09854 3.27472 7.15166 3.24633 7.19831C3.21794 7.24496 3.17813 7.28361 3.13067 7.31062C3.08321 7.33763 3.02965 7.35211 2.97504 7.35269ZM5.16212 6.71344C5.10565 6.71352 5.05016 6.69862 5.00131 6.67028C4.95246 6.64193 4.91199 6.60115 4.88403 6.55208C3.5577 4.37425 6.06829 2.22439 4.90503 0.511303C4.65775 0.17662 5.16857 -0.205406 5.41869 0.130856C6.87161 2.09994 4.28682 4.23613 5.4396 6.23559C5.56405 6.44004 5.39927 6.71984 5.16212 6.71344ZM7.3492 6.03601C7.29557 6.03608 7.24279 6.02265 7.19571 5.99695C7.14864 5.97126 7.10879 5.93413 7.07983 5.88899C5.73926 3.94506 8.24441 1.94994 7.10364 0.5259C6.83672 0.205902 7.32592 -0.204397 7.59424 0.116434C9.06571 1.90053 6.49445 3.75999 7.61796 5.544C7.75735 5.7474 7.59328 6.04311 7.3492 6.03601Z" fill="#4398D1"/>
<path d="M15.0659 6.23303C14.9885 6.23299 14.9137 6.20483 14.8555 6.15379C14.7973 6.10275 14.7596 6.03231 14.7494 5.95555C14.3736 3.13049 13.2758 1.4921 11.3931 0.946703C10.9937 0.830407 11.1677 0.217369 11.571 0.332744C13.7233 0.95639 14.9701 2.76798 15.383 5.87126C15.3889 5.91641 15.3852 5.9623 15.372 6.00588C15.3588 6.04946 15.3364 6.08972 15.3064 6.12396C15.2764 6.15821 15.2394 6.18565 15.1979 6.20446C15.1564 6.22327 15.1114 6.23301 15.0659 6.23303Z" fill="#679522"/>
<path d="M14.9563 5.55308C14.9703 5.59814 13.6748 5.10079 13.6454 5.09719C13.2538 4.95293 13.4698 4.35545 13.8639 4.49634L14.7618 4.82265L15.3708 3.09255C15.5106 2.69975 16.1111 2.90932 15.9738 3.30481L15.2578 5.33938C15.2357 5.40171 15.1948 5.45569 15.1409 5.49394C15.0869 5.53219 15.0224 5.55284 14.9563 5.55308Z" fill="#679522"/>
<path d="M14.4519 3.77802C14.4352 3.77805 14.4185 3.77675 14.402 3.77412L12.7483 3.51304C12.3359 3.44606 12.4356 2.81838 12.8482 2.88181L14.177 3.09156L14.3764 1.53874C14.4295 1.12537 15.0621 1.20436 15.0106 1.62023L14.769 3.49936C14.7587 3.57625 14.7209 3.6468 14.6626 3.69801C14.6043 3.74922 14.5295 3.77764 14.4519 3.77802Z" fill="#679522"/>
<path d="M13.5819 2.31079C13.5699 2.31342 12.1548 2.23732 12.1408 2.23855C11.7228 2.21623 11.7572 1.57825 12.1733 1.60026L13.2307 1.65348L13.1146 0.349723C13.079 -0.0674145 13.7156 -0.122165 13.7514 0.292737L13.9004 1.9626C13.904 2.00675 13.8985 2.05118 13.8842 2.09311C13.8699 2.13503 13.8471 2.17354 13.8172 2.20623C13.7873 2.23892 13.7509 2.26508 13.7104 2.28307C13.67 2.30106 13.6262 2.3105 13.5819 2.31079Z" fill="#679522"/>
<path d="M16.8853 8.46701C16.8398 8.46696 16.7948 8.4572 16.7533 8.43838C16.7119 8.41957 16.6749 8.39213 16.6449 8.35789C16.6149 8.32366 16.5925 8.28342 16.5793 8.23986C16.566 8.1963 16.5622 8.15042 16.5681 8.10528C16.9811 5.00195 18.228 3.19037 20.3801 2.56672C20.7817 2.45349 20.9599 3.06145 20.5581 3.18081C18.6754 3.72625 17.5777 5.3646 17.2019 8.18966C17.1917 8.2664 17.1539 8.33683 17.0957 8.38785C17.0375 8.43886 16.9627 8.46699 16.8853 8.46701Z" fill="#77A226"/>
<path d="M16.9928 7.78761C16.9267 7.78738 16.8622 7.76675 16.8083 7.72853C16.7543 7.69032 16.7135 7.63638 16.6913 7.57409L15.9753 5.53929C15.8382 5.14477 16.4378 4.9334 16.5783 5.32704L17.1873 7.05714L18.0853 6.73083C18.4789 6.58963 18.6958 7.18737 18.3037 7.33168C18.27 7.33773 16.9847 7.8293 16.9928 7.78761Z" fill="#77A226"/>
<path d="M17.5012 6.01471C17.4236 6.01431 17.3487 5.98587 17.2904 5.93461C17.2322 5.88336 17.1944 5.81275 17.1841 5.73583L16.9425 3.85669C16.8906 3.44131 17.5259 3.36109 17.5767 3.77524L17.7762 5.32802L19.1049 5.11827C19.5184 5.05559 19.6171 5.68265 19.2048 5.74972L17.5511 6.01081C17.5346 6.01343 17.5179 6.01474 17.5012 6.01471Z" fill="#77A226"/>
<path d="M18.3673 4.54696C18.323 4.54665 18.2793 4.5372 18.2388 4.51921C18.1984 4.50122 18.1621 4.47507 18.1322 4.4424C18.1023 4.40972 18.0795 4.37124 18.0652 4.32934C18.0508 4.28744 18.0453 4.24304 18.0489 4.19891L18.198 2.52904C18.2364 2.11462 18.8701 2.16841 18.8347 2.58603L18.7186 3.88978L19.7761 3.83656C20.1981 3.81131 20.2232 4.45434 19.8085 4.47485C19.7845 4.47332 18.3904 4.54841 18.3673 4.54696Z" fill="#77A226"/>
<path d="M16.5087 16.5539C16.431 19.2485 12.9221 19.2479 12.8447 16.5539C12.9224 13.8594 16.4313 13.8598 16.5087 16.5539Z" fill="#679522"/>
<path d="M16.0666 17.8901C15.111 19.1302 12.9056 18.6827 12.8447 16.5541C12.8671 15.7774 13.1771 15.2244 13.6054 14.8984C13.3465 15.2244 13.1802 15.6719 13.1643 16.2345C13.2187 18.1521 15.0087 18.7051 16.0666 17.8901Z" fill="#567C1C"/>
<path d="M14.1051 17.4249C14.0398 17.4248 13.976 17.4047 13.9223 17.3673C13.8687 17.3299 13.8278 17.277 13.8052 17.2156C13.3916 16.0922 13.7752 15.5351 14.1698 15.2656C14.5161 15.0323 14.8749 15.5555 14.5306 15.7934C14.4063 15.8781 14.0767 16.1032 14.4051 16.9945C14.4225 17.0428 14.4281 17.0947 14.4214 17.1456C14.4147 17.1965 14.3959 17.2451 14.3665 17.2873C14.3371 17.3295 14.298 17.364 14.2525 17.3879C14.2071 17.4118 14.1565 17.4245 14.1051 17.4249Z" fill="#77A226"/>
<path d="M9.56245 19.6688C8.05407 17.0431 11.4142 14.9825 13.0707 17.5165C14.5789 20.1422 11.2188 22.2029 9.56245 19.6688Z" fill="#FDB62F"/>
<path d="M13.1555 19.8782C12.4492 21.0192 10.6433 21.3197 9.563 19.6672C8.81192 18.36 9.26579 17.1934 10.1191 16.666C9.74215 17.2733 9.67806 18.117 10.2024 19.028C11.0332 20.3001 12.2957 20.4151 13.1555 19.8782Z" fill="#FDAB11"/>
<path d="M12.1974 19.1913C12.154 19.1913 12.1111 19.1825 12.0712 19.1654C12.0313 19.1483 11.9954 19.1232 11.9655 19.0918C11.9356 19.0603 11.9124 19.0232 11.8973 18.9825C11.8822 18.9418 11.8756 18.8985 11.8778 18.8551C11.9046 18.3409 11.6877 17.9849 11.1955 17.7344C10.8243 17.5443 11.1112 16.9761 11.4851 17.1648C12.1993 17.528 12.5557 18.1238 12.5164 18.8882C12.5121 18.97 12.4766 19.0469 12.4173 19.1033C12.3579 19.1597 12.2792 19.1912 12.1974 19.1913Z" fill="#FDC04C"/>
<path d="M18.0739 17.7533C18.0579 18.6902 16.6643 18.6901 16.6484 17.7533C16.6643 16.8165 18.058 16.8167 18.0739 17.7533Z" fill="#A64E21"/>
<path d="M19.8942 17.8237C19.8782 18.7605 18.4846 18.7604 18.4688 17.8237C18.4847 16.8868 19.8782 16.887 19.8942 17.8237Z" fill="#733617"/>
<path d="M19.6784 18.5912C19.6625 19.5281 18.2688 19.528 18.2529 18.5912C18.2689 17.6544 19.6626 17.6546 19.6784 18.5912Z" fill="#A64E21"/>
<path d="M18.5817 18.6928C18.5657 19.6296 17.1721 19.6295 17.1562 18.6928C17.1722 17.756 18.5659 17.7561 18.5817 18.6928Z" fill="#C05A26"/>
<path d="M18.3035 16.4317C20.1008 16.1292 21.3497 15.274 19.6916 11.4922C18.7567 13.3318 15.7754 13.6065 18.3035 16.4317Z" fill="#77A226"/>
<path d="M18.2667 16.8436C18.003 16.852 17.8429 16.5101 18.0256 16.3137C18.6286 15.6228 18.9221 14.9017 18.9486 14.0442C18.9492 14.002 18.9583 13.9604 18.9753 13.9218C18.9923 13.8832 19.0169 13.8484 19.0477 13.8195C19.0785 13.7907 19.1147 13.7683 19.1543 13.7537C19.1939 13.7391 19.236 13.7327 19.2782 13.7348C20.1848 13.77 18.9075 16.8258 18.2667 16.8436Z" fill="#679522"/>
<path d="M7.90057 11.8925C8.41472 11.8925 8.41559 11.0935 7.90057 11.0935C7.38642 11.0935 7.38559 11.8925 7.90057 11.8925ZM11.0283 8.55684C11.5424 8.55684 11.5432 7.75781 11.0283 7.75781C10.5141 7.75781 10.5133 8.55684 11.0283 8.55684Z" fill="#8C421C"/>
<path d="M18.3102 16.6987C18.2943 17.6355 16.9006 17.6354 16.8848 16.6987C16.9007 15.7618 18.2944 15.762 18.3102 16.6987Z" fill="#733617"/>
<path d="M18.9596 17.5834C18.9437 18.5203 17.55 18.5201 17.5342 17.5834C17.55 16.6466 18.9439 16.6468 18.9596 17.5834Z" fill="#8C421C"/>
<path d="M19.6969 17.019C19.681 17.9558 18.2873 17.9557 18.2715 17.019C18.2874 16.0821 19.681 16.0823 19.6969 17.019Z" fill="#A64E21"/>
</svg>
