<svg width="24" height="24" viewBox="0 0 24 24" fill="none" xmlns="http://www.w3.org/2000/svg">
<path d="M24 17.68V23C24 23.55 23.55 24 23 24H17.68C17.13 24 16.68 23.55 16.68 23C16.68 22.45 17.13 22 17.68 22H22V17.68C22 17.13 22.45 16.68 23 16.68C23.55 16.68 24 17.13 24 17.68ZM7.32 23C7.32 23.55 6.87 24 6.32 24H1C0.45 24 0 23.55 0 23V17.68C0 17.13 0.45 16.68 1 16.68C1.55 16.68 2 17.13 2 17.68V22H6.32C6.87 22 7.32 22.45 7.32 23ZM24 1V6.32C24 6.87 23.55 7.32 23 7.32C22.45 7.32 22 6.87 22 6.32V2H17.68C17.13 2 16.68 1.55 16.68 1C16.68 0.45 17.13 0 17.68 0H23C23.55 0 24 0.45 24 1ZM0 6.32V1C0 0.45 0.45 0 1 0H6.32C6.87 0 7.32 0.45 7.32 1C7.32 1.55 6.87 2 6.32 2H2V6.32C2 6.87 1.55 7.32 1 7.32C0.45 7.32 0 6.87 0 6.32ZM17.09 20.32C16.07 21.04 14.97 21.31 13.9 21.12C13.1781 20.9882 12.5067 20.6595 11.96 20.17C11.47 20.67 10.83 20.99 10.11 21.12C9.89 21.16 9.67 21.18 9.44 21.18C8.16 21.18 6.89 20.54 5.81 19.33C4.64 18.03 3.81 16.21 3.45 14.19C2.67 9.79 4.38 5.94 7.33 5.41C8.49 5.2 9.68 5.54 10.78 6.39C10.85 6.45 10.92 6.5 11 6.54V5.82C11 4.16 12.35 2.82 14 2.82C14.55 2.82 15 3.27 15 3.82C15 4.37 14.55 4.82 14 4.82C13.45 4.82 13 5.27 13 5.82V6.55C13.08 6.5 13.16 6.45 13.23 6.39C14.32 5.54 15.51 5.2 16.67 5.41C19.62 5.94 21.33 9.79 20.55 14.19C20.08 16.84 18.79 19.13 17.09 20.32Z" fill="#323232"/>
</svg>
