<svg width="14" height="16" viewBox="0 0 14 16" fill="none" xmlns="http://www.w3.org/2000/svg">
<path d="M9.11166 0.666504L9.51033 1.41184C9.77966 1.91517 9.91433 2.16717 9.825 2.27517C9.73633 2.38317 9.443 2.29584 8.85566 2.12184C8.25335 1.94356 7.62847 1.85307 7.00033 1.85317C3.50233 1.85317 0.666995 4.60517 0.666995 7.99984C0.665932 9.08202 0.958552 10.1442 1.51366 11.0732M4.88966 15.3332L4.491 14.5878C4.22166 14.0838 4.087 13.8318 4.17633 13.7245C4.265 13.6165 4.55833 13.7032 5.14566 13.8778C5.73233 14.0518 6.35566 14.1458 7.001 14.1458C10.499 14.1458 13.3343 11.3938 13.3343 7.99917C13.3353 6.91721 13.0427 5.85527 12.4877 4.9265" stroke="#FF4B4B" stroke-linecap="round" stroke-linejoin="round"/>
</svg>
