<svg width="30" height="29" viewBox="0 0 30 29" fill="none" xmlns="http://www.w3.org/2000/svg">
<path d="M29.9277 21.3633V27.7917C29.9277 28.4563 29.384 29 28.7194 29H22.2911C21.6265 29 21.0827 28.4563 21.0827 27.7917C21.0827 27.1271 21.6265 26.5833 22.2911 26.5833H27.5111V21.3633C27.5111 20.6988 28.0548 20.155 28.7194 20.155C29.384 20.155 29.9277 20.6988 29.9277 21.3633ZM9.77273 27.7917C9.77273 28.4563 9.22898 29 8.5644 29H2.13607C1.47148 29 0.927734 28.4563 0.927734 27.7917V21.3633C0.927734 20.6988 1.47148 20.155 2.13607 20.155C2.80065 20.155 3.3444 20.6988 3.3444 21.3633V26.5833H8.5644C9.22898 26.5833 9.77273 27.1271 9.77273 27.7917ZM29.9277 1.20833V7.63667C29.9277 8.30125 29.384 8.845 28.7194 8.845C28.0548 8.845 27.5111 8.30125 27.5111 7.63667V2.41667H22.2911C21.6265 2.41667 21.0827 1.87292 21.0827 1.20833C21.0827 0.54375 21.6265 0 22.2911 0H28.7194C29.384 0 29.9277 0.54375 29.9277 1.20833ZM0.927734 7.63667V1.20833C0.927734 0.54375 1.47148 0 2.13607 0H8.5644C9.22898 0 9.77273 0.54375 9.77273 1.20833C9.77273 1.87292 9.22898 2.41667 8.5644 2.41667H3.3444V7.63667C3.3444 8.30125 2.80065 8.845 2.13607 8.845C1.47148 8.845 0.927734 8.30125 0.927734 7.63667ZM21.5782 24.5533C20.3457 25.4233 19.0165 25.7496 17.7236 25.52C16.8513 25.3608 16.04 24.9635 15.3794 24.3721C14.7873 24.9763 14.014 25.3629 13.144 25.52C12.8782 25.5683 12.6123 25.5925 12.3344 25.5925C10.7877 25.5925 9.25315 24.8192 7.94815 23.3571C6.5344 21.7863 5.53148 19.5871 5.09648 17.1463C4.15398 11.8296 6.22023 7.1775 9.78482 6.53708C11.1865 6.28333 12.6244 6.69417 13.9536 7.72125C14.0382 7.79375 14.1227 7.85417 14.2194 7.9025V7.0325C14.2194 5.02667 15.8507 3.4075 17.8444 3.4075C18.509 3.4075 19.0527 3.95125 19.0527 4.61583C19.0527 5.28042 18.509 5.82417 17.8444 5.82417C17.1798 5.82417 16.6361 6.36792 16.6361 7.0325V7.91458C16.7327 7.85417 16.8294 7.79375 16.914 7.72125C18.2311 6.69417 19.669 6.28333 21.0707 6.53708C24.6352 7.1775 26.7015 11.8296 25.759 17.1463C25.1911 20.3483 23.6323 23.1154 21.5782 24.5533Z" fill="#323232"/>
</svg>
