<svg width="24" height="24" viewBox="0 0 24 24" fill="none" xmlns="http://www.w3.org/2000/svg">
<path d="M18.0703 8.50989L9.51026 4.22989C3.76026 1.34989 1.40026 3.70989 4.28026 9.45989L5.15026 11.1999C5.40026 11.7099 5.40026 12.2999 5.15026 12.8099L4.28026 14.5399C1.40026 20.2899 3.75026 22.6499 9.51026 19.7699L18.0703 15.4899C21.9103 13.5699 21.9103 10.4299 18.0703 8.50989ZM14.8403 12.7499H9.44026C9.03026 12.7499 8.69026 12.4099 8.69026 11.9999C8.69026 11.5899 9.03026 11.2499 9.44026 11.2499H14.8403C15.2503 11.2499 15.5903 11.5899 15.5903 11.9999C15.5903 12.4099 15.2503 12.7499 14.8403 12.7499Z" fill="#F0403A"/>
</svg>
