<svg width="26" height="26" viewBox="0 0 26 26" fill="none" xmlns="http://www.w3.org/2000/svg">
<path d="M9.09282 4.47096C9.86823 2.20177 13.0036 2.13304 13.923 4.26479L14.0008 4.47225L15.0472 7.53242C15.287 8.23423 15.6745 8.87644 16.1836 9.41575C16.6927 9.95506 17.3116 10.3789 17.9984 10.6587L18.2798 10.7638L21.34 11.8089C23.6092 12.5843 23.6779 15.7197 21.5474 16.639L21.34 16.7168L18.2798 17.7632C17.5778 18.0029 16.9353 18.3903 16.3958 18.8995C15.8562 19.4086 15.4322 20.0275 15.1522 20.7145L15.0472 20.9946L14.0021 24.056C13.2266 26.3252 10.0913 26.3939 9.17321 24.2635L9.09282 24.056L8.04769 20.9959C7.80804 20.2938 7.42058 19.6513 6.91147 19.1118C6.40235 18.5723 5.78342 18.1482 5.09645 17.8683L4.81636 17.7632L1.7562 16.7181C-0.514293 15.9427 -0.583017 12.8073 1.54873 11.8893L1.7562 11.8089L4.81636 10.7638C5.51817 10.5239 6.16039 10.1364 6.69969 9.6273C7.239 9.11819 7.66285 8.49934 7.94266 7.8125L8.04769 7.53242L9.09282 4.47096ZM21.9209 2.34294e-07C22.1635 -3.05981e-07 22.4012 0.0680476 22.607 0.19641C22.8129 0.324773 22.9786 0.508303 23.0853 0.726142L23.1475 0.877854L23.6014 2.20825L24.9331 2.66209C25.1762 2.74468 25.3893 2.89758 25.5454 3.10142C25.7015 3.30526 25.7936 3.55086 25.81 3.80708C25.8264 4.06331 25.7663 4.31864 25.6375 4.5407C25.5086 4.76277 25.3167 4.94157 25.0861 5.05446L24.9331 5.1167L23.6027 5.57054L23.1488 6.90223C23.0661 7.14527 22.9131 7.35827 22.7092 7.51426C22.5053 7.67024 22.2596 7.76218 22.0034 7.77843C21.7472 7.79468 21.4919 7.7345 21.2699 7.60553C21.0479 7.47655 20.8692 7.28458 20.7565 7.05395L20.6942 6.90223L20.2404 5.57184L18.9087 5.118C18.6656 5.03541 18.4525 4.8825 18.2964 4.67867C18.1403 4.47483 18.0482 4.22923 18.0318 3.973C18.0154 3.71678 18.0754 3.46145 18.2043 3.23939C18.3332 3.01732 18.5251 2.83851 18.7557 2.72562L18.9087 2.66338L20.2391 2.20955L20.6929 0.877854C20.7804 0.621662 20.9458 0.399259 21.166 0.24183C21.3862 0.0843997 21.6502 -0.00016245 21.9209 2.34294e-07Z" fill="white"/>
</svg>
