<svg width="16" height="14" viewBox="0 0 16 14" fill="none" xmlns="http://www.w3.org/2000/svg">
<path d="M7.05942 1.60533C7.37733 0.724756 8.62267 0.724756 8.94058 1.60533L10.0067 4.55842C10.1498 4.95473 10.5259 5.21885 10.9473 5.21885H14.154C15.148 5.21885 15.5332 6.5118 14.7013 7.0558L12.2945 8.62955C11.9066 8.88319 11.7438 9.37014 11.9012 9.80607L12.8621 12.4675C13.1881 13.3706 12.1778 14.1695 11.3742 13.6441L8.54727 11.7956C8.21481 11.5782 7.78519 11.5782 7.45273 11.7956L4.62578 13.6441C3.82219 14.1695 2.81189 13.3706 3.13793 12.4675L4.09877 9.80607C4.25615 9.37014 4.09337 8.88319 3.70546 8.62955L1.29871 7.0558C0.466766 6.5118 0.851971 5.21885 1.84599 5.21885H5.05271C5.47406 5.21885 5.85021 4.95473 5.99329 4.55842L7.05942 1.60533Z" fill="black"/>
</svg>
