<svg width="25" height="24" viewBox="0 0 25 24" fill="none" xmlns="http://www.w3.org/2000/svg">
<path d="M19.5603 18.6699L17.4203 14.3999L15.2803 18.6699" stroke="#292D32" stroke-width="1.5" stroke-linecap="round" stroke-linejoin="round"/>
<path d="M15.6699 17.9099H19.1899" stroke="#292D32" stroke-width="1.5" stroke-linecap="round" stroke-linejoin="round"/>
<path d="M17.4198 22.0001C14.6198 22.0001 12.3398 19.73 12.3398 16.92C12.3398 14.12 14.6098 11.8401 17.4198 11.8401C20.2198 11.8401 22.4998 14.11 22.4998 16.92C22.4998 19.73 20.2298 22.0001 17.4198 22.0001Z" stroke="#292D32" stroke-width="1.5" stroke-linecap="round" stroke-linejoin="round"/>
<path d="M5.52 2H9.44C11.51 2 12.51 3.00002 12.46 5.02002V8.94C12.51 11.01 11.51 12.01 9.44 11.96H5.52C3.5 12 2.5 11 2.5 8.92999V5.01001C2.5 3.00001 3.5 2 5.52 2Z" stroke="#292D32" stroke-width="1.5" stroke-linecap="round" stroke-linejoin="round"/>
<path d="M9.51019 5.84985H5.4502" stroke="#292D32" stroke-width="1.5" stroke-linecap="round" stroke-linejoin="round"/>
<path d="M7.4707 5.16992V5.84991" stroke="#292D32" stroke-width="1.5" stroke-linecap="round" stroke-linejoin="round"/>
<path d="M8.49043 5.83984C8.49043 7.58984 7.12043 9.00983 5.44043 9.00983" stroke="#292D32" stroke-width="1.5" stroke-linecap="round" stroke-linejoin="round"/>
<path d="M9.51015 9.01001C8.78015 9.01001 8.12016 8.62 7.66016 8" stroke="#292D32" stroke-width="1.5" stroke-linecap="round" stroke-linejoin="round"/>
<path d="M2.5 15C2.5 18.87 5.63 22 9.5 22L8.45 20.25" stroke="#292D32" stroke-width="1.5" stroke-linecap="round" stroke-linejoin="round"/>
<path d="M22.5 9C22.5 5.13 19.37 2 15.5 2L16.55 3.75" stroke="#292D32" stroke-width="1.5" stroke-linecap="round" stroke-linejoin="round"/>
</svg>
