<svg width="20" height="20" viewBox="0 0 20 20" fill="none" xmlns="http://www.w3.org/2000/svg">
<g clip-path="url(#clip0_2188_4028)">
<path d="M17.9417 8.68315L10.4417 1.18315C10.3837 1.12509 10.3148 1.07903 10.239 1.0476C10.1632 1.01618 10.0819 1 9.99987 1C9.91779 1 9.83652 1.01618 9.7607 1.0476C9.68488 1.07903 9.616 1.12509 9.55799 1.18315L2.05799 8.68315C1.97061 8.77055 1.91111 8.88191 1.887 9.00313C1.8629 9.12435 1.87527 9.24999 1.92257 9.36418C1.96986 9.47837 2.04995 9.57597 2.15271 9.64465C2.25546 9.71333 2.37627 9.75 2.49987 9.75002H5.62487V12.25C5.62525 12.5814 5.75707 12.8991 5.9914 13.1335C6.22574 13.3678 6.54346 13.4996 6.87487 13.5H13.1249C13.4563 13.4996 13.7739 13.3677 14.0083 13.1334C14.2426 12.8991 14.3744 12.5814 14.3749 12.25V9.75002H17.4999C17.6235 9.75 17.7443 9.71333 17.847 9.64465C17.9498 9.57597 18.0299 9.47837 18.0772 9.36418C18.1245 9.24999 18.1368 9.12435 18.1127 9.00313C18.0886 8.88191 18.0291 8.77055 17.9417 8.68315ZM13.1249 8.50002V12.25H6.87487V8.50002H4.00868L9.99987 2.50883L15.9911 8.50002H13.1249Z" fill="black"/>
<path d="M13.125 14.5H6.875C6.54348 14.5 6.22554 14.6317 5.99112 14.8661C5.7567 15.1005 5.625 15.4185 5.625 15.75V17C5.625 17.3315 5.7567 17.6495 5.99112 17.8839C6.22554 18.1183 6.54348 18.25 6.875 18.25H13.125C13.4565 18.25 13.7745 18.1183 14.0089 17.8839C14.2433 17.6495 14.375 17.3315 14.375 17V15.75C14.375 15.4185 14.2433 15.1005 14.0089 14.8661C13.7745 14.6317 13.4565 14.5 13.125 14.5ZM13.125 17H6.875V15.75H13.125V17Z" fill="black"/>
</g>
<defs>
<clipPath id="clip0_2188_4028">
<rect width="20" height="19.25" fill="white"/>
</clipPath>
</defs>
</svg>
