<svg width="21" height="19" viewBox="0 0 21 19" fill="none" xmlns="http://www.w3.org/2000/svg">
<path d="M16.1111 1V5.72222M4.77778 1V5.72222M18.4722 1.94444V3.36111M18.4722 3.36111V4.77778M18.4722 3.36111H19.8889M2.41667 1.94444V3.36111M2.41667 3.36111V4.77778M2.41667 3.36111H1M16.1111 3.36111H4.77778M7.61111 5.72222V13.2778M13.2778 5.72222V13.2778M14.2222 16.1111V18M6.66667 16.1111V18M5.98383 16.1111H14.906C16.0743 16.1111 16.6589 16.1111 16.9007 15.8249C17.4484 15.1771 16.3982 14.3195 16.0148 13.8879C15.5832 13.4006 15.2668 13.2778 14.6283 13.2778H6.26056C5.62211 13.2778 5.30667 13.4006 4.87411 13.8879C4.49067 14.3195 3.44044 15.1771 3.98822 15.8249C4.23 16.1111 4.81556 16.1111 5.98383 16.1111Z" stroke="black" stroke-width="1.41667" stroke-linecap="round" stroke-linejoin="round"/>
</svg>
