<svg width="16" height="12" viewBox="0 0 16 12" fill="none" xmlns="http://www.w3.org/2000/svg">
<path d="M9.33317 7.87598V4.12398C9.33317 2.02731 9.33317 0.979315 8.71651 0.717982C8.09917 0.457315 7.37317 1.19798 5.92117 2.68132C5.16917 3.44932 4.74051 3.61932 3.67051 3.61932C2.73517 3.61932 2.26717 3.61932 1.9305 3.84865C1.23317 4.32465 1.33984 5.25465 1.33984 5.99998C1.33984 6.74532 1.23384 7.67532 1.93184 8.15132C2.26784 8.38065 2.73584 8.38065 3.67117 8.38065C4.74117 8.38065 5.16984 8.55065 5.92184 9.31865C7.37384 10.8013 8.09984 11.5426 8.71717 11.282C9.33384 11.0206 9.33384 9.97265 9.33384 7.87532M11.3332 3.99998C11.7498 4.54665 11.9998 5.24198 11.9998 5.99998C11.9998 6.75798 11.7498 7.45332 11.3332 7.99998M13.3332 2.66665C14.1665 3.57732 14.6665 4.73732 14.6665 5.99998C14.6665 7.26265 14.1665 8.42265 13.3332 9.33332" stroke="#FF4B4B" stroke-linecap="round" stroke-linejoin="round"/>
</svg>
